<mxfile host="65bd71144e">
    <diagram id="uyw8BgKWtLdPUq1vNU2F" name="PÃ¡gina-1">
        <mxGraphModel dx="1112" dy="478" grid="1" gridSize="10" guides="1" tooltips="1" connect="1" arrows="1" fold="1" page="1" pageScale="1" pageWidth="827" pageHeight="1169" math="0" shadow="0">
            <root>
                <mxCell id="0"/>
                <mxCell id="1" parent="0"/>
                <mxCell id="Xypq0hgRcFvhTNyDPKPe-8" value="" style="rounded=1;whiteSpace=wrap;html=1;labelBackgroundColor=none;fillColor=#ADD8E6;fontColor=#ADD8E6;strokeColor=none;" parent="1" vertex="1">
                    <mxGeometry x="320" y="140" width="290" height="270" as="geometry"/>
                </mxCell>
                <mxCell id="Xypq0hgRcFvhTNyDPKPe-6" value="" style="rounded=1;whiteSpace=wrap;html=1;labelBackgroundColor=none;fillColor=#F5DEB3;strokeColor=none;" parent="1" vertex="1">
                    <mxGeometry x="330" y="180" width="270" height="220" as="geometry"/>
                </mxCell>
                <mxCell id="Xypq0hgRcFvhTNyDPKPe-5" value="" style="rounded=1;whiteSpace=wrap;html=1;labelPosition=right;verticalLabelPosition=middle;align=left;verticalAlign=middle;fillColor=#FFC0CB;strokeColor=none;fontColor=#333333;" parent="1" vertex="1">
                    <mxGeometry x="340" y="220" width="250" height="170" as="geometry"/>
                </mxCell>
                <mxCell id="Xypq0hgRcFvhTNyDPKPe-2" value="vm-windows-01&lt;br&gt;Public IP Address&lt;br&gt;" style="aspect=fixed;html=1;points=[];align=center;image;fontSize=12;image=img/lib/azure2/compute/Virtual_Machine.svg;labelBackgroundColor=none;" parent="1" vertex="1">
                    <mxGeometry x="370" y="270" width="69" height="64" as="geometry"/>
                </mxCell>
                <mxCell id="Xypq0hgRcFvhTNyDPKPe-3" value="vm-ubuntu-01&lt;br&gt;Public IP Address&lt;br&gt;" style="aspect=fixed;html=1;points=[];align=center;image;fontSize=12;image=img/lib/azure2/compute/Virtual_Machine.svg;labelBackgroundColor=none;" parent="1" vertex="1">
                    <mxGeometry x="490" y="270" width="69" height="64" as="geometry"/>
                </mxCell>
                <mxCell id="Xypq0hgRcFvhTNyDPKPe-4" value="vnet-two-vms-01" style="aspect=fixed;html=1;points=[];align=left;image;fontSize=12;image=img/lib/azure2/networking/Virtual_Networks.svg;labelPosition=right;verticalLabelPosition=middle;verticalAlign=middle;labelBackgroundColor=none;" parent="1" vertex="1">
                    <mxGeometry x="353" y="230" width="33.5" height="20" as="geometry"/>
                </mxCell>
                <mxCell id="Xypq0hgRcFvhTNyDPKPe-7" value="rg-two-vms-01" style="aspect=fixed;html=1;points=[];align=left;image;fontSize=12;image=img/lib/azure2/general/Resource_Groups.svg;rounded=1;labelBackgroundColor=none;fillColor=#F5DEB3;labelPosition=right;verticalLabelPosition=middle;verticalAlign=middle;" parent="1" vertex="1">
                    <mxGeometry x="347.75" y="190" width="21.25" height="20" as="geometry"/>
                </mxCell>
                <mxCell id="Xypq0hgRcFvhTNyDPKPe-9" value="Azure Cloud" style="shape=image;aspect=fixed;image=data:image/png,iVBORw0KGgoAAAANSUhEUgAAAggAAAIICAYAAAAL/BZjAAAAAXNSR0IArs4c6QAAIABJREFUeF7svQe8HUXdN/7bPefcltzkptyb5KZ3SEJNaIEAIQQCCIQWCL0EBNEgHXxAro+AINKUIiiKPNKigghIF1EfQOS1PooNlY5SEkhyyzlb3s/M7OzO7tlzdrad+tv3//wN98xO+c7szHd+VQF8EAFEABFABBABRAAR8CCgICKIACKACCACiAAigAh4EUCCgGsCEUAEEAFEABFABIoQQIKAiwIRQAQQAUQAEUAEkCDgGkAEEAFEABFABBCBYARQghCMEZZABBABRAARQASaDgEkCE035ThgRAARQAQQAUQgGAEkCMEYYQlEABFABBABRKDpEECC0HRTjgNGBBABRAARQASCEUCCEIwRlkAEEAFEABFABJoOASQITTflOGBEABFABBABRCAYASQIwRhhCUQAEUAEEAFEoOkQQILQdFOOA0YEEAFEABFABIIRQIIQjBGWQAQQAUQAEUAEmg4BJAhNN+U4YEQAEUAEEAFEIBgBJAjBGGEJRAARQAQQAUSg6RBAgtB0U44DRgQQAUQAEUAEghFAghCMEZZABBABRAARQASaDgEkCE035ThgRAARQAQQAUQgGAEkCMEYYQlEABFABBABRKDpEECC0HRTjgNGBBABRAARQASCEUCCEIwRlkAEEAFEABFABJoOASQITTflOGBEABFABBABRCAYASQIwRhhCUQAEUAEEAFEoOkQQILQdFOOA0YEEAFEABFABIIRQIIQjBGWQAQQAUQAEUAEmg4BJAhNN+U4YEQAEUAEEAFEIBgBJAjBGGEJRAARQAQQAUSg6RBAgtB0U44DRgQQAUQAEUAEghFAghCMEZZABBABRAARQASaDgEkCE035ThgRAARQAQQAUQgGAEkCMEYYQlEABFABBABRKDpEECC0HRTjgNGBBABRAARQASCEUCCEIwRlkAEEAFEABFABJoOASQITTflOGBEABFABBABRCAYASQIwRhhiRpG4LqH/jjrhw8/dvjbr722eMBsUYYMDRRFBdM0QAcVsiOHQ8+MKTBn590g0z0CtBYVwAwakAIGLUIKGqAqKhhggGmaoCgKqKCCYbIS5Dfy6KYOCiisrGnQNzPWb2LZcvWQGs0y9eimAeSDddog/ckA6YFsG6yvxfVklAwdh2w9ofpqY+fXV2vMAq4idsmN2X9+dF0HU9ehNZNxrQs2g+Ef8tYIKEB3Z8fv587s+s7bnVf9vU/pY4sFH0SgzhBAglBnE9bM3TVNU9nx5OsmTZwwZc4/Xv3TjW9uKMwHMwdgqgAK29ANw9mLyWHLH8M0IW/qMHrBbJi5566gd40CdXgHPfAVMMFU8FNotrVlLRlGBc1ohCAIs1YjDz3KxhdGjhnzhY0fbPjjwTtNfGeVojgLM6gC/B0RqCICuCtWEXxsWh6B5Wdct8df3iocZShw6KaBQo+ZUSGjG4wckPu+woiBSBDI3/nGT382TZtLZEeNgM45M2Hcbgsh2zMWAAmC/GQ0QEkqDUqHE7jIhmpmQFd1yBg6tCnwVg7yT87t1NZdP7/38QaAEYfQ4AggQWjwCa734S087bZcu57/7W/e2DAvl82BoplgqDqYoELOMKkqgcqGrZVciiBQZYFpQsYEMBUTTIPUoAPoCkzYZ3cYs3w3UIiYGZ+mQKBiBMEga8oEg7ARBUCDAmRMBea0bvr9/Ex28fnbjN/cFIDjIOsSASQIdTltzdHpuYdfesHm/LDTNudhZikxMN3oiZ2AZTVQUoJAiIElRqYqBSJNsMgF+XdLzxiYfODe0D53DqgZlfINsqeb+IXU7WLzSgjSUiOEVVEQspAxDGhTjFe6lYFb79mx92ZFsURgdYs2drwREcDtrxFntc7H9OyzZvaoqz53u9nSdWK+YFArgXKbsEIN+0TbA0YAXCoGH4LArNJMqpbImUMwlGuFqQfsDV277woqaZVIKPALqc/VRKc2JR1CTJsF1VDBUPMAkIWsCfoIY/Ce4xaPXbNKUcgf8UEEagYB3P5qZiqwIwSBvrue6PneY69c/vYHG0/NqC3MI8CyDyh1AyxHEDixoNIAyzJdIdID8m96gDCCoNL/1AAyAKN32RV6D1wKmZZ28it9Cz+UGl+fRVyATnhqT3xpBPMkMax1192SuWNFN5z/qald61PrNFaMCIREAPe9kIBh8fQQ6Pvm46PveuwP/7OhH/YHYh9A/As8t0C/jTmIILilD5wYEG5AjByZtIGQBiZx0CCTbYH2hdvC9FUHQsZUQWeejEgS0pv60DVXUn1QTnoVuuNlXhilDv3osO4xJ5w0XdmQZL1YFyIQFQEkCFGRw/cSRYC4ME5bedXVGwaU89WMQg0JVUu+L5KCShAEMBRKDEbtvTN0778PtGSyxJaRShnwqQ0EOEGIf5MvPZ406/ZrVVFMGJspXPvgwtHnK+Q/8EEEqowAEoQqTwA2zxBYePz117767/w5SoZZE2TojZ7bHrjtC7yYkdu/Sg0PySvMxdwxQmSlmUGipZfmWy+Nk8D+g6odLCmCYuhMsZDNwdxTj4WWObNchAXnrLII2GSATaA1j8n3odKEwDsCYryoGibMzG3+xl2Lek9LfoRYIyIQDgEkCOHwwtIpILDygm8ue+Gvmx/UhgqdumXMbXmFuQ/3EsZhpCzRAtANnhKEMkGTROM1D0GgVgr09wJ1gzQMDYz2Vtjuvy8GaO2gAZXwqTwClZAWcFJZ+dE5LRK7GEMBaFGNj3dqLRx0zdbdz1WzP9g2IoAEAddA1RGYsvKqJz8eUpdTC0FLAlCKIPht5DIEwc+jgckqRBsEgSBwQ8ZCAToXbgezTloNzKwMn0ohYLulpsTLqi0x8OJI3W/p/1OgWxl88qGdevatFNbYDiLghwDueLguqorAHY/9au65X3v2z0WbpRP7yJYI8A291MZO/k6CH/GbflBMBF6OGSkyyYMtQbA8HEDTIaMoMPWM46Ft3jzIkiseqocTWzN+UKZ5cKdZd2KgkHwbpgJnzsrOPaq77a9J1ot1IQJhEECCEAYtLJsoAre9bOa+dOWX128YVIYlRRAy1PuBXTmZHQK/fgphl62YCMUEwVJTmAX7fUPXIGsAjFmyE4xdfRjkdBdzSRSPpqzMA2faB3ja9Sc1h0SOMM4YNFbv0t2O8RGSQhXrCYsAEoSwiGH5xBBYcup1p//2jYFbM2quqE5RxSAe+PzgL9UJlcQyEGwFHJJQniCQSIwsNoJlg2CpGAxNY26QoMDCm74CGg3KhE9iCBACl5IKIWitJDaGFCoyjQwMtOTMXY23j79px6nfTaEJrBIRCEQA97pAiLBAGggcccS6zHOb/3XTkA6nK6oVaEBsiMqe2cmhWlIAmZgI5QgCr96uh6sRyA+Go2JgHg3kv3UgVmOGWQBF02DmUQdDx5LdqUEkPnIINGK8ArmRy5ZyVpNrfZvUIgdas8qtu+3Q8ek+DMUsCyiWSxABJAgJgolVySOw5Igru1/T2n7z8aA2kfkgeB4fguC9EfqJi9MgCCYUSJpI0DMZWHT9FaBDBqUIklNdCQ+EelEbeCFj/S5BNy3PnM5M/vWuzODCexf1vi8JORZDBBJDAAlCYlBiRWEQ2PXUm+b/8a3N/wdGi+254H6fKKfdEgQ5guDYIHAPBR7fIFiCwGwQFBLemcZNMOj/Z4IGukFS9mow99yzoG36tDBDbeqyNMR1ijkRvGuinsAuRxB4sjAi2Zrcpmx576IRRYa89TRW7Gt9IoAEoT7nre57vcMx1zz79w+VPSkJ4KuQHibFS5JnaiwmCE4AJQ4IiXZIamAxEYg9AnscjwaexdEbNMkpSzwa2OZNOmTQd01do2qInn33gN6DDsTAyz4rsBLSgvojBCVUCD74uSJ18uSOigKzC5sf+faS8WTR4YMIVBQBJAgVhRsbIwj09a1rufVXrw0VaFa7AihU20oepSi/MnNddBMB50YqeimwGmQIghP7gL3DjBB1xgeIF7qHIDBDRwOgkIfRC+bApDUng5IrNqxs1tlttngFYebZj/CWet+PIJD1mDMMuKy3q33pdGUwTNtYFhGIiwAShLgI4vuhEVj8yevP+dOb2rXkbkWOfvciFP6LH9geM3d6IFFJgZWfURBh07et91TwlyD4EwSqS/AhCJY0gZAIrQBaDmD7L1wCRucIqj9uppD5osGh5UhqMazQSyDwhbTVEoEdCF2AhwUPflEuIidHmMrDYF526Oxv7tB9Q3DtWAIRSA4BJAjJYYk1SSIwdv8r7teVllWSxUtmdCzl3cClAplQBIGRjmIJguXmaJpg6Dr1aJi7+nBo2W1nyBkZmqOhGR70RgiaZWo1IGVvQQiCH0koVpixNsk6VzTj+z9b0rUKkzgFzQP+niQCSBCSRBPrCkRgz0/dPOtv7xSe6s8XpC39St0mycbpDobkbl61Ah7xvzI7BGZbwIwRrQswVTE4BIHGRLBtEIoJgt6ehR2/dBUYKsk6GTjkxihgpEuE6k9i4Kwd9i9GEGQeWYLguOOqMEyBf2yV619+/Q7j/iHTBpZBBJJAQG5FJ9ES1oEIAMDoA6/d2TDMFxTfk9XxXPCC5X+AuG0QqL2CcI7xDI5kkZMQzO7QyzzDI2cJwv3N4EaKxJGCkAVin0AtKEE38lTVsPXF54I6abLsmVDzc48SgqApCmFs6LGZKVrLrlBecvWSbKVZExY/t+uIF4J6ir8jAkkhgAQhKSSxHikEFp184/defVc73L9waYJAyheThCCC4LAFom7wShsYgQhDEIAShJymw7AlO8G01UfQCIuN8FSSINSntEDuICdrwWtUW54gOJKHIFymt/Q/dM+icSsbYb3hGOoDgcbY3eoDa+wlAIw9+GrdyOdUf919sgRBBJyrG0SSEIUg0KiKug6ds6bBtNPWgNrR1hDzivEKSk9j2YBGPq+FIQhhvByG6Ro8tVtXVlGslKcNsfJwELWMABKEWp6dBuvbyvNvO+O5/9t8C7t0h9dps9gGoimXk5SJSxhcrmICfqIEgd/URILAAzeyfAy8DR40ifyNBGBiMRFAL4CeVWDLsz8F7VOkTSlqYjZdnggYwEiYEyYhCLrFUwmBvXT9CW0pY0MiW5Cpv9RCIc3u1ZX/4pXzxny+JhYTdqLhEUCC0PBTXDsDHHfQlb8Y0IftmqHGg9GWnkmzNfLHTRDIX5USxnScIPBDQIyuaBssCm6V3EiR2SA4BIH8m2R4NPUCzFx9CIzYbUntABzQExbvIRI3kxpjnMNPqoEUC4W5yYchCA4m8kaMpYZJiMdIbfCXTywZu1jB3AwprgasmiMQbZdG/BCBkAgc13fXgmd+/+FjA0OFSTQ3YkTzf3+C4Jx6MgSBlA7yaChHEEyS2EkfhPzw4bDjVV+kTmv18IieG8n3l9iDJF9rpWqsB4JAJFutqvnGbsO1fS/fauwrlcIG22leBOpjZ2ve+WmYkU857KpVm4cy9+smE+VGDR/guqVa6gbxbwp1ZSx+MnZOAENQUzCXR0IWmA6eEQ2TuzlSyQGTIBBJAsvySH7XaehlIkXY5tILQJ0wniZwygRYr1diMitpbEjRqjtWEEKVUGI+/VeYvLFhmHVAa7WIl66Y0GYUYJiirH5019H3hakHyyICURBAghAFNXwnNAI7nHr7d//69sZj+IJLkiDwzjA3x2K1A/mdEAT2GPSAZ09pgsB+DiYIuQVzYd4nTwNQa8SfAeMVFK1NN4mRT9ZdytjQSxBY/fFVCH4flUgQQCmAaeRgUht8dd2izrNCf4T4AiIQEgEkCCEBw+LREOhZebWeL+RUbpyYFkFgOnYrEJLQVUdvTLZ3N0GgG7xhhW22gihZYRWpcaItQSC/0XIGEDWDqeWhfVIPzD3rLDA7Wqvj8ugV66d4o68PaYG4pXGyKK5Z5/fgkMciuM57fKU4xJT8K9pWGviWkMuMrFsDWqDTGIAndhuN3gzRtiJ8KwQCgeszRF1YFBHwReDYvv9Z88jL//4GsTuQVVOXIxD2QeXyaLBkAoIEgUsT3McDURW4CQKVK4iqCUIC7EiKFkGwwuPSzI5U7KuDoeVpJMWpp58MXfO2IJkZUl8BlVQh1Ach8EKeXLwCt6RAvt4wi6CU101QHXuNGTrui1uM/W5QOfwdEYiDQPo7Wpze4bsNgcDEg698s19vnyi6NgYdPnEJAr3T+dgjKBCeINC6rKBK1IuB2iQQO4QCmLoOMw49EDr33YvEy099vjBegT/EznqKr0LgLbgcaiMa1QYtiKgEocPsf+vJXXsmY26GIITx9zgIIEGIgx6+G4jA8Vd8Z+tHX/roOUMvdFHvhRJvBBEG12vUUJAc2pY8QvDdCzZYtBMw0BTPXKZhEM8E+2RwIjQSQuG4RFr/tnI6EHdHxdBBGdMJCy65BNSs/OEUBJw7cyLvc9Bb0X4PhX20JhJ6SxDz+4qiuC0Aa87GkAe5kOoFa8NKGCr1RrlCQaq0qBtwVtE/WtpZ2Ltvq+6XY3cSK0AESiAQdX0ioIiAFAK9B/73eZuUEdeQSIaKmS3phB/mkOJlnc3XCVgTTBBYt6lBo4sgOKmhqT2CRT5oSmnLc4EaOBLpgUUmqFrC0AC0Aiy8qg/0ESOlMJEpVKmARmFwl+l3umXkPQXcxn3MGNX7lPNGSAqXqBKCIBxJmvHu/OYLHtxzwjVBZfF3RCAqAkgQoiKH78kgoMxZffPd720cXE2kB0RH7zXwKlWJ1AZtW+wXR7RjB3lpkb+XIPDDnxkkCu57lpsj83xg9XGCQMvqeTA0DTq23wpmn3KSDCaBZXgfAgtGKCCFa4R6K/IKDWQlt2WFJQgOLsl6I6RFEFRTh9E55X8e2nHECUDYAj6IQAoIyH1tKTSMVTY+An19feotL3foBSCSg/iP93ATb/neGyIlAOJB77lBFhMERgq4OsFuy46DwG6h7PBm6ghaXi8AGDrkhrXBVv99Cei5ViB5JoI+rEoaG/K+xp+BStYgH5bYzx3RX2ZA+p+OsSGZz6A5Two9agcDAG1GP4D+Su6nS5cK4q+kWsF6EIHKrWnEugkROObyew/58QvvPhA5KpIHM7cHnx3ZyI5nwIvzw70cQSBKZtEGwT7waSPc7oBUbVgRlFh7RQTBIHYIGv2SJp1yLIzeamt6UATatGG8guIvwrItYT/I23PIEgS2LuTrDfPJpkkQ/KU+RBanwNLhAyuu3HbcE2H6imURAVkEKkV6ZfuD5RoIgYkHfCG/SR2R83M3TGKYzsZJtkrLVkBgEWUJAjVi02wjxbIEgf7IiIKXIICpUQmCoRVg6oH7Q+d+e0POUKgUoeyTIkGoVzWCu9/yB3ljEwT/ENYGJToajMv35x/aq7c1ie8J60AEvAggQcA1kQoCx19535wfvvD2X7L0sOTLLFk3QJEg2FIK4eB1VAb0hKfjFHXTXoLAgTCIRIC/YgddYu8Tw0R+INH2ScAkUwPdKEDH+HEw5+LzSt5R0zq406o3lYXhzAKDWCKwU1D65FqOVxAVQxlceN37jMhv2bf12D9HbQvfQwRKIYAEAddGKghMOfjyL23Quy7KmiSYEL8NVpYguA8gJ7oiv9xHIQhFEgSLIBhGAVTdhJ2u+QL0dwzz2D+kArHU4ZpOy9FrZQdfOEPAMAQhTNKlMKNIy9iQ9yEMIfD2u7Ow8eonlk68KMx4sCwiIIMAEgQZlLBMKASO6FvX8uL/vXfnQH9hdUF1mYWVqCeaEbZbgmBVTVUBTjPUa4InYaKGZPy/Sb90nqHJpWpwYiJYIZitqIrUtsBO/cz+TTwaiIcDkToougbDFm4Ls048jtkhSNyOQwErFE6z7qh9cr/Htxb33DqQOFuPEN0g0voQW4hKEII2wiCNURzM4s7lsJy57sDR/zl+7ezZQ3H6ge8iAl4Egr4LRAwRCI3ArEOvnrTJaH1lUC8MBzMnYd0dXbJQtLl6Mjzy38WYCeLf+EGeAccQ3Am7TKQOPJsj80xgagvHi4FGVORhmbVB0EwNdrj+GjAyyXhuJHHDDD2BsV8IEa9AtP73CZ1NuuK/OuSzMsoMJ20JgdiHuITAO57hZn7zaGPDlvftMesNmbFiGURAFgEkCLJIYTlpBJad+z/LX/7Lh0+CkoeMkQu26I+RJjmIINidFmImBBEEeihZ0RId10bHa8K2UbByMnCCYGpDoAwNQe9pJ8DY7baTxsuvYNKHSKzOhHw5zC3eZf0fRBAiejnIdL8SBCGtOSVSsm1HwP63bj3yMZmxYhlEQBYBJAiySGE5aQRmrPrym+v7sxOJqx8NOmQZKZJkTf5PkIqh9O+xCALpDNU4kKiKjgSBHBZegkBj73LdBbU7sIweqYSB3HENMDWSjleD7iW7wKTDD5MgRsVopHWISE9e6IIKg0biCU7V5Z890bE79f9domm7SClVQRobYaXmkqDSY2z410O7T5keBgssiwgEIZDGdxHUJv7ewAjc8sjvR116208+JIlpvQ8jCFGWXPmIiK52PCoG+zcfCQL/jWzkIkHI2ASBlLBiIngIAuUWNGgSVzkQV0edBlFqG98D084+E9paO4LdHYXOV+pASXb51VdAo0pICvjaSBbncrVpYEAW1s6A7qN7R7xfuXaxpUZHIMpu3eiY4PhiIDD/mC/f9NbHrWeS3PWVIAhFm7EgpnYduK64A06uBd5HxSzY3SUEgdfL7Q24BIHWaeVi8BIEk7hAmjroug7zLzoHsr29ZelQfRICr/FlfcUrSIsgVHMuDcUA3cjADPOj6+7ffdK5MT5ffBURcN+3EA9EICkE1q37Y8un733qh0Oavl/pvI3lWlOgtBqi9HtMxM8zOwrSBk8wItHrwbuhK0JZbrDIDBJZvbwNSgrEoEx2FkgTVBIwySyAoedh1C6LYPqRRwkxINL1akhqDt31hDA2pHH9yusa/OIVJH2wpkUASuGbdP/jzGOLaj72qZEjVq6ar+Tj1IPvIgL2xQmhQASSQmD7E76y8K1NuZ8UBgsjDFX+Zum0H40gMENC6/gRDd1iEgRHisDzMFgeDb4EAUA1NIsgFEBTAHa69krQM8SLgwnqaukwkZtzJAjlcKq1+WwDfX2P3r/svj0m/kZufrEUIlAeAVQx4ApJDIFdzrzjkL+8tuGBArRCJtIlJjpB4N4GkDBBIOAUGywyMsLVDfygIATBBBJVUQNVG4IpJ50IXdttE9HuIrFpiVQRG5O8zQiRHoSRIITxdAgzgDQlCLVGCLy4EHuYKe3KIfcuGvHDMJhhWUSgFAJIEHBtJIbAgmNueOWtj9Qt8hkNckaQBCFa7APFLF0v28Dd9dqbuuIkYOKW7Nw90QbAcqPjBovk4/D3aChBECyDRmK3YBYGoWObLWHOiSeBqdbqZyaf2dB18Pq4I5bLnpjUwZpmQiS/jyCpfif2gZWoiKwuQmIJRevNbP71A7v2Lky7Tay/ORCo1Z2rOdBvoFHe/fPXRn3qqgc+JOc3OcSDU9QnTxDYrd5tHCkSBOvab5srxCUItD7b5ZF4NDASQvqgGUMwbMwYmH7mJ6Glq6smZzrMLT4MQXAfrEFEUR6aShGEeiAGYh/tAF4AkNEBzl04cuyhI5QP5JHFkoiAPwJIEHBlJILALmd84+5X3ug/momlDQlvxmoRBMoiLK7guffaEgRGMojIXC4mAqUm1MWReTYQT4Y8kSfA7DM/CcNnzUwE46QrQYJQjGg9kAPKS2kgL/aIm7hpZmF+7r3b7lg8/fSk1wvW13wIIEFovjlPfMTffvafbRdd/6MXh0yTKNwTekoLrcs2UMowkYvFabUiQeC1sUiJ5Bd+W6YEwXLXdHs0OKGWSRpoWxJBUj9TrsCCJoGhwYQli2H0YSuhhXhHVu1rY7YEsoefX3Kk0nROXk0RZmGkaUsg9kMWkzB9T6usSdZ2GUcR8hNJNa4rA7+9ZGLPzvvPVjA3Q1qT0ST1Vm3LahJ8m2KYe5z19eWvvKY9kNe14ckNOBpBcNsXOL0hCZXY4e0QBJsaiEGQyFFqkYzoBMGSJmh5GNQM2PVr14BuKmCkmfHHB3jn8JM3NiTVyBAEp+7kVAjiENIiCPVECEQpAZUUlIxEKqxzxYSWTPuGrY23D7lpyfSfJvc9Yk3NiAAShGac9YTHPOXIG09bvxluyyR6AMrE7y1Rxsre6M7qKNgm0IyMwqZagiCQQqIEwZE8uCUIlHfQOrkEgdkjkHgIhpaHLU5dAx0L5oWKqhhuioTPmEtHiipgZYI8DRwWxSuwXDSFLJicZ7ES0baQoKUSrdYyqJXEJRzSqZb2xKw2PNKw4NgiRHoAkDVMGJHRPvn4kjG3p9pfrLzhEUj8O2x4xHCARQhsffxX/++ND4z5ZRwMUkItwI5B3GAFLwZ+oJeSNii2fpekGrTsEah4l6smhGyOVkwEOkBPjgZdL0DWyIMydSosOPtT1Mo8nUdezB/OHVE+DkKYcdFaZfhfmErLcoMKNhajzyQSp/1ISAvKNdUL+V/9YI/uHWN0B19FBFLbsRDaJkHg2w/+puucO55Zb0Kusrs+O5HLo+whCLywLWYWJAkuq3AfgkBE3tydjLfLpAaO+yQnCJbGH3SjAIqeh7auLpix9gzIjkrem4H1W17MH4YgMD6UPKlJmyDUqxrBhXRMgkBCfp81b1Tnqh5lU5NsRTjMFBBI/utPoZNYZe0isPTMG+/87WvqCTSsjiocllXrcolQy6VyNPB+GmJ+BkdaQILPkIccwfzWS8Ips8BMbjdH4F4MVtAgEt1RM3XIaEMw9aRjYeQ2UW04OQGw2iyDbRh3RHc1qm2kGXfqKuWOWET44nY85fcdgimqhBJo1EccYyoqLMp8cP1Ni6efk0ALWEWTIoAEoUknPolh33bby7n/euTZt4agpTtLbjxqcRKkJNoJV0d0gkDa4R4J1F1RIAVcgkDlFjZBcCduIjYI7D0nXwPoOhTMQZi6dHfKYR01AAAgAElEQVQYc9CB4YZil5ZXIcQhCEndvJEgONPMMeUbLZM6Jbzt+hIEE0bkB947bOSEiZ9cpDiZyCKuQHytORFIeKU2J4jNOuo9z7zpE79/U/ueqattpqqBApkiKKjjYEVVwIJ/OBUE+CRx8suLIKgj7LwOlssjqcOPINDBCnYHnCCwmAiWNIXkZ9AKYLZlYNurr4y0VDBeQTFsSZGZSBMS4iXfeAUVIAhE8mUoLf0Ls+8edPPimc+E6DIWRQRsBJAg4GKIjEDXQV+5RIHsF8PqqSu1uYsXKyfCIjEm8JF0iAZiAoEgxID2l6ooGPkQN32SwdGxabBIgWWbwCQSOoBeAFMvwMJzzgB92nQwgKSF9rMbkI9XUMqWwN8qIx1jQzK+tNwRvYuyUmsm8scgvGjqSTJiy/glZMcM04CsroKpDF76/NLxl4d8HYsjAhQBJAi4ECIhsGdfX/adv4752X82GbtEqkDcUD3uXXHr4++7Ja9CQCMfgkBuXOIhxP/ND0AWR0HIwWCRCC9BoKSAkA2eXZIQBEIitDxkJo6DrS/8LBj0Bul8elFiCsgSBFZ3uDgIYfBPiyDUFSHwrt9oQUJLwB6OIHDciJIrY+rQmVGfHrFb14rvKZY7TpjJxbJNjwAShKZfAtEAmLXfV1s35IxBPQGOmdZhEJYgsBu/O8qiH0Hg5ajqwSNBoGgS9QKXSJgGDb1saEOQ6cjBVhdfAEbnCE94XH7jlD/IkSBEW7dpvBUloJF8P6IRBJ3wAaMDssZm6Jo8tu0xjKooDzmWtBFAgoCLIRIC+332tsuf/8fAf6kJEARvB9IgDLZNgCi5oBIBtziYGhmKtgvW7+SQF90qSTnyfxnRzZH/W3B/JIoEYtOg60Og6DpMWLUSundbHOih6RfNUMTJHWdS3ogxzGSjsaE/WknGK3C1EDI4hKPaKr+Nb9PRf+ltO/aimiHM4seyFAEkCLgQIiHQc9A1hTxksyy6W7rLKAnCQAgCfxwxbGmCwMo6agcZgkBu9cxKncVHIDdLdnQTgpAHU9Ng8h6LYcTBB0JWLTboFCciDEEIY8QYZrLTJghJzGuY8cQpWyo5UqIeCQEEoSReAUaPWaOQ/8Ve3a1xxo/vNicC6e7szYlpw4/6oIu+veK5V/ofU0ySC8Y56NJaTEkcJNEIArv9s4eoCohPBnNhpPSBSBuoKoEneXIbKRJDMbbnE7KggaFroLZmYcEXLwM1m7XXiT9upQzdSGnWnkN4oiEf+FY46XbodZ/EvIZuVPYF23bDmn2BYNq4VcAbweKpnK769z6gH5qagb1zg0uv2qUbczPIzj+WowgE7hGIEyLgRWDSyuu+tl7PfTpL3asdgiAfzy8eplEOFlmCwLiAc/w6bTmkQAUr50KRRwOLg0DVFra6wSIQhEwUNDD1AZh/wWchO3FSWYJQLntilPH7IZ6WgWG52U2q7/FWUOm3+YZIJQaVIgBlAbMjfEcesqZkoKew+as/3nv8WZErwRebEgEkCE057dEHfcSF60a+/Pr6h97vH9iDHTDOEqoUQfD2XubQ8SMI7Hrv5/IYnyAQKQM7ZBw1hqoXqKpBGT8Wtj7vPFAUCzufr1AkCO7xJYdyJQiCzNxEX43JvclVCK6pqAJBKMIrkXDXBnRkcs/s2z14yIVbdG9MDjWsqdERQILQ6DOc8Pi6D7pulq4or+immiXpZ8U91L2YikXklVpsfocSD5nM4HCHVablRf2vJ4ueLRXgro2CW5sJXGoA1KOBSQ8E4sFVEPRvOo2HUNAKsNMVl4HZMcxKAc2RcRByd0HEMhqKfurtaDWVX1D1QgjoKhBBTjJ0QQhjwyIP3yT7YU1VlqR4VPOFTsPY8rFl415NeEvA6hoYgTT2iAaGC4f2iQvvuuDnr2y8OtAM3yeRUvrmjM78eA8qZ88ulhowglAiRLMQfpkeKlZURbslhREE7vLICQghCbRegSCYpA2aAroAo/fbG6bvvTcYJAWCLYVxEEryoKW1pnDw+H0NSfY77a8t2YBGQm9DgC2YNqQ2XIPwA0OHbYZpZ96247hbUmsIK244BJAgNNyUpjugSYddN7Sx0NISHD+5WIteSYJQhIJ9WwwmCG43Ryc/A69TcWWJdAiC4/LIpAhegmCADio1VixA9zZbQe+xq0DJ5KjBITtY00EobYJQL6Qg3XgF8gTBhVfSagyfz99QaNgkGGX0b3x86fgR6e4QWHsjIYAEoZFmM+WxXPydp3e55YE/P6+4IgpG1YlXnkA4qgJ2eLtCMdNIicUSCIcsOFdwL0GwiYPOozWS/7WiLlpqB9IeJxC6roPanoM5Z58JudGjgbmKRn8qYUvgh030HlfgTTEyZtKHcAgJARmpTQiS7kcEGI+eaG6/dvao30R4FV9pQgTi7UxNCFgzD3naEVf94MP8iEOzZh4MRbU2vjomCHT3ZjPKQimXIwhO4TAEgaeA9hIERRuCeWs/CeqMmTHpQeXyIXB0alli4L6d88lNeJurY4IwVtt83yN7T1zdzPsYjl0egYS/HPmGsWR9IXDxt37cffdTb/144+b+RSa3vqdDiBrFr7oSBNJzvs9TG4IyBMG5BbIDJ5ggkHI8JoLj5siMGAGIBEExBkHtnQxbnPNpUF14hl8XaUsQapkQeNGqVvZEP3JZNJNVkiCI89eaUZ8/pPPDA87ebvqG8CsN32g2BJAgNNuMRxzvtMOv2XOT1v6TPGiKajpBfsoZK8bTq7uDCfNuR5VXuA9566DnF0zRK8FjsOiIh8W01eVjIhCPCTu0M1c10OiKJG4Ee8zCEJjaIGz3pctBb++ggoxSH2PaBMBvSdQ6KaBYkZTGFNckt7Fo0aEqYWwo8+kSJMrNXSvo0JXdvPyhJVOflqkPyzQ3Akl+Wc2NZIOPftezv3vR7/7x0ZdUhUUHdPTmQanrolrmJ08QHJLA+uxOBy3EPvBIE9iJzghCkcujEDSJH1giQeDhl+l7IkGg3gyDMG7FCugl3gxEilDia6wEQah1QsDnjvczvXgFcgShCK9ESUq4zcQXkxJVGKDArGHKZ+/ZceSN4VrB0s2IABKEZpz1CGOedPi1gx/rmdaMnqO++4LHfkBttUUQWAyEJAmCaLvAgiN5CQIBiAVNIhEYLemDXgAw8tAxazbMOfkk0HNZJAilVpJtJyLkxhDLJnk4S9oX1CJBoKQ34Gs0FB3GGEPw46W9qqJIDjbCfoGvNAYCQeupMUaJo4iFwFk3/2CH/3nq3Zd0T+bDcpV64w74lXU22aiKg2LphUxN9o2Lh0X2iGVdm78VH4EHWhJ/o54QHpdHShDABJVb0YsqBoMccDqAojNJhF4AtaMdpp2xBjp7JlBJeaU+yHqQGPA10yzxCkJ9pEURliTfNg1QlQwc1aPPXzt/zJ8k38JiTYpApfajJoW3MYa9xVFXvvTOYNcOwcGRnPHKEASndHKGjlEJAhVh0/+fJ/RyAEFwxP/E0FFjEgQJgkCpAFEz6AXYcs3J0LLFFvT+xxNBpbFy6oEUUINRz+FHInam8oTJnphWHyQHVoSJ5HveYnTIagYmGxt/t26vidtGrAZfaxIEUvrymgS9Jhjm6bc+0fODp/72v4M6zFIjrxafsMslI/txA0AR3FINB4VzLtUINzh07BxovAOLILD/sd4VIyxS9QSxXXCMFF1njGlJBkicCCtZE8sBwe0XdPZ3TiBI0CStAJ1bzIEZa04EUNREJQj1QAgoIbNFBdY/XAQh8qJzfFhLfaeeqh2jWt4PmzZKCO8T3gw8JMm7kqOiQtarDgq0ZeCf+0zU97hk1pg3Eu45VtdACERdZw0EAQ6lHAJzj7z8mHfzXXephqYaiui9EA839+WtWFXgPtxk5AJ+/SntSukYGzoeDcEEwUrxLBAEF42x1A3EZZKoEkgbdn4GGvvfydtAgiZRuwRdh4JegF2uvRyGlKyTwCkevPTteiAIzHizhuIV0K7UwLYYVYUguW5ypg7jYPMJ399r6l2Sr2CxJkSgBr6EJkS9joY869jbLvvPxqG+jJkBI0Fz+iCC4IaIEYTwB17yBIF2hOZXYI/YJ8cewaC5HQgB4ASBHYRcwsATOxF+oIGqDcC4Aw6EnmV7xFoZ4fGJ1Vzkl0U1QnreCMEJKHzxqiJBcK2lyOjKvzhKNS96bI/RV8u/gSWbDQEkCM024yHHO2XV9Rs35LPDCTdwB0gKWVHI4jIEwtlQHU+J4GZEtYIjuHW7PDoHuSuJE6+8BEGgGNGbn0gQnHTPXO3ASAZrg3hUmHo/dIwbB1ucfw5oNLFO8Cj8CIr8W5Uryf3yGUFKcLuJaIBfL/EK0p4h4ofUZWzc8MSyyaPSbgvrr18EEvxi6xcE7Lk/Aid8+cGZP/r5G383VHKDJ4deVFF/eISrTRBs3bjLBsEaRxiCQE4kW4TOczU4BIGQBtAGoaWjFaatWQO5qZMgU9I+oxjHWpUa2J4iVpeRILjnLiigUfgvJuwbjJyumtoy99yZI/4a9m0s3xwIIEFojnmONMp5x97w6zc2qdtlSMQ6yIHid1hGqjn4JRmC4NTCJAhyh2WwBMEOk0zNCX2u8yEJgn0YWIaLogSBtGUYQ6DqeZi56mjo2Gn7sqmZ5cYYjG+aJXzDHZMGqyBBKMIryT6EBNFLmkK+Hrt4kSeEkYFe5YP/98CyGYtiV44VNCQCSBAaclrjD+rkqx/qvP/519/IKsrI+LWlUwPzECj9BBk6soBJ7LpuWTlYl32nXjubI2UsjkEjPe+sOApiO+TfJNslz3hpuLI5Mhc+Xoa/T1wdFT0PoxZsCZNPOIERBOvLrAdCQAEkGgQxJkSSUx5CnVArKgR7+CkbG5aCWWrdUOeazEefnJiffMoW3RuTnDKsqzEQQILQGPOY+Ci2OuaaU1/vb70VTDWTeOUJVRhEENzN8OyTzl/TIAjssCQEgUVY9CMIrAy3czABiHeDngfdNGDHqy6HgpoLdtFLCMOo1RTfzFPschPGKwg7L1KEQKiU0l3FhAyo+tTCf06/f5+53wzbJpZvfASQIDT+HEca4ehDbvmCBsbnQ1zeIrUT56WaJQhEgkAiJvoSBH7dFgmCTsMuq6YOUw88HNqXLAplhxAHw6jvip4IjPCI+Tmi1lriPSQIgYCGJQg2kVVy0KLoV/xsz1GXAoZeDsS52QogQWi2GZcY7y5nX9f+1tstf9kwpE9WoGYFCIEjCSIQfFMl/+tWMYhVC4aF1p/FNNFEleBsznbSADuYkkETNFlqDMtzgW/OzHDPcn8ksRO0PBjDhsHCSy8Co8YEN6Zgd1ENWwJxRhI3eAxcSWUKVEmFQDlZ3LZNtupHq0PvTt6kz7z9wN7+OFDgu42HABKExpvT2CM6/sqnxzzw4ivvt4AJOvVgqM9HliCQ0ZFRioTBGXExQQBB185tDdiGbdkuCNEWSd4FonIgaYlZTAT2mPzfFkEwTA0UrQAE7hmfOgPap0yqOuiilCC1eAUSIirfg7AGjA3JBFVyA41NCLwryiIIxFB2v6m5cX2zOv9T9UWHHagpBCq5vmtq4NiZ0ggsPOmGZ179MLsXvVdX0HMh6TnhIZFL1Wsf6OJG78oFwAwTizZmGYLAwzITgkB8IeygSX4EgZAQHQyjANn8AIzZf38Yt/de9PAR7BWThqe4PvtGyrYFShC4YaZYOsnDuRRBcIQx/sYNSfYhJLLV8kYIRxACtnYhIBSxRdhC7X/hrj0nLg4JBRZvcASQIDT4BIcdnmma6viVX9EHzDZQqPdgAy8RMUaBABS3H7Bv+94EQq4MjoInhcuKnxELlRorFhMEO2gSlSBYUgqzQNUMnfPmwvTjjwMzw9Q7lZgB0obtnpjk4SshIfBbo7XgjcBxD3cwh/3iSpeP1S6dQ8mVQ7+DAly2d0/b/ooylNwIsKZ6R0ByBdX7MLH/sgjsfOY31v75zYEbNUWBrKlSS+dGfZiEwS97oKMKEEmCjQPPuUAzN8kRBHrQ604uBn+CkKeHtKkYsMMll8HQsBZQUyRoGK+g/OFcjc0xFikokvLIjsAATcnBwvbN59y+y/jrG/V7x3GFR0B2BYWvGd+oOwRM01R6Drv1jrxhnESOTqqXr7tRhO2wlcZRuLK6bReczI0OWXAyNJLz297UaVWmFeiIEw8SF8F6jLwVZ8EEhRABi6AQosL+rdH0z4pegNmHHgrti3ditgthh1SmvCtWQdKTG4JM1oKEwAVTXIO/iHOUCCHwlfjIb+1khZIw4R0Ad+6+bMQpfZWMiBYRN3ytMgjIr6LK9AdbqSIC+33mq5P++B/1Zx8NwfQqdqM6TQsGhI7tghMcSdzIib0Af7whc1kQJKrA97FdIASh2KNBsaQYtF49D6ZRgAFFgcVXXwFgKGAkyBAoQUiaGNhgSFYsJHCszmT7tFrXBCHmAqGSQh3GZIzXpyvrd7tlj1mYArpmFmZ1O4IEobr411TrM4742lbr8/B7I0Wxdk0NWOyMQBAcjwZ/gkDzUlhGfF6CYP1g519w3RCpBMEhCKx5dloyjwGdxkIw9SHQ9QLMW/tZaJ08KZaaR1QjkNaUJO0LvJOJ8QoCl3ciEgNvK7Y3QmDz/gVMFfRMAbIFgJHt6rZPLBn1u4g14WsNhgAShAab0DjD2X3t7U/++o388jDJguK0V0vvsrONHNLkfx3XRuduVmyv4HWLdFweHemBGDOBBEPiD3F55CoG7k5IJRck74VZAE3fBGN22g2mrFwJYUIiYLyC4lVV18aGRB6VIqnzEpZ5w40n79x5zL619G1iX6qHABKE6mFfUy2/bJq5fVbekNeUDNFI1lTfKtEZL0HgkgDnAylNEGypgZ3YyZ8gKMRLwUfFQFM+E9UEbYLETCDlCjBy1gyYfPRqyHZ0lIXAtcmLovIkDxYJ+4JajVdQ6U2uSNESS32RLEHgbqv2gvJ0ttUYhIuXj0dvhkpsOnXQRqW/nTqApDm7ePiFt5/32F+GrsmambqOfRB19nwJAhXJ8x00gCBQAQS3TSgmCORnThCo+6MYVdGyQeASBJ2EXTYAdKUAW1xwNrSNHlt2WLXijYAEgU1TsmqEhAlCAFnRQIe9RubP/soOvTdE/ZbwvcZBAAlC48xl5JH0mab6tUOvedwwWpfrFU7rHLnTCb8YhSAUHQaC8SL/TQzW5LZHGLSkBkRyYBEKK7skLUcSOGlDMP2oldC5cCdqZW4ozLOEEgIh0E0iUEhICPzaqQVvBF87kERAkaskFiGIaz8Q0MWyffMJgkawzJmFp/ZeNm4FejPIzX8jl0KC0MizKzm2gy9eN+/X//rw8Y2DMFlXTMgKZu5eIzfJKuuumHg+urwUPBIELylwi/eL4yeAmMNAvF0aboLA6iVhmZnEIqMZoOt50NpzsKjv85Anm7nJ01Jz/9MEP19JglB04CSpxoiwamyvkQjvxnklFikQG06BIEj3zY8gGAq0ZfXXdhoO+355h+6/xMEI361/BBLcYeofjGYdwZQjb/3ExrzxsA5ZILJtVRBDuozeKh36t4ITUnmCMOSSIDBvBmKLwPM5mKBrBciZGmx5ztmgdI9maNgWdwl/ugEhjymBoR3wKK2RIIRYpT5zlgJ+DkEIcDv1mXMSdSOr69Ce2XzQT5ZNfTjE4LBoAyKQ8C7TgAg1wZAWnXb7vX97Tz/KP6yyECnQEm+HCOJan+jZIZPJdukEPLKPSJFACf92Z3a0hl5SgsBcHkkMBELI6KZOVRSWy6NCtAwFAK0Ao3ZcCFMPPcTKixDzk5WUFDCJRo1Fyopl7BdvKUrfyks2k6wtgUsI4YcLs3gNPeiMngFdBZiVG7znnj3GHxO6AnyhoRCIuds0FBZNOZh168zMp+65QSsobSXyLrgJAr/E8oXTkCqIEASBHaRsI5YhCHyREYNFgh2xPyCRG/0IgmLoYGh5GDFpIkw77WTIqjnQ1JifrARBsA/DpO0cQn5hfodyzNFL9yA+IfA2lRxBkOpbRIKgaoQgGNBaGIS1+03IrlJotjF8mhSBSn1vTQpv7Q/7qL7vnvzo7z++Qy3p2uh/C3F8y90Ewjksa3/sJXtoxUQgFzAe5ZDcxsi/2eOOkiiKdB2duFWW53ugXgxCizR7I/kDIQksRwMjC1YGRZpAh9ghaJDLmjD55JOgc+oMWr7sI0EAvO+z/gtbQfiLZyKTTY0NGeNKpL6wlUgdvCUrJQQgqMXo221R3wLnObAzbCXbc8/6xvOTKJCFxcMHTrx+lwnfCRoV/t64CERfsY2LSVONbMx+l/9xqGP0vEyY7G8uhIoJAnXjq3MUbaJDYxcxcuAQBCeSorPJWtSB51cQyAQv47ZzYBkeGUFg8RGIqsG2yLc8IjRdA1UbhNlHHQ7t2y2ipCFRgkAJCTkpqr8V1HVAo8jfj9yHUkwQAtaBXLWW5Mpfadha+PBPv9h/1nzJqrBYAyJQ/V2hAUGtlyGtvvTO+Y+/MvC0oavj3dfbMCPw36g4QSAbW7ybWZi+JFdWJAjsZmUlaKJNlCYIFk0QDnLLtI8HQrK6SOoXCQK/vTkuj0yyq+s6qHoB1NEjYcF5Z4OpBFCvMOGORbiqRBDEtVHpzSjRdZkwQQjsm48HguzqL6q7RN+ziv7O4q5Ne127aPqfZevGco2FQKW/ycZCr85HM/qQm04u6OY3s9mMYqR25/cYS9FQwvUiYWAif1FK4EhHnLDMfBm4rMc9N32uQnCdydQwkagSuIpBF2IiOKpfXdPA1Adhh0svBL2jC3SFqT6kSV2NJEfCeAWlN4zShCDEPJeo3iQBNKI8qmZmh2DNC/v3fCvK6/hO/SMQceXU/8BxBADz19zxzbc/HDqFHoCWED15XIqtqb0qiMDbUvKdkqyxHEHg+ltHgpIaQdA1yBaGoGO7rWDa6iNp0KQw9oO14o2ABMF/2ZVf/9UjCCREw/ic+c1Hdh9zquQHg8UaDAEkCA02oWGG033ojYMa5ForTRBIe6KgvHY9IYoJgth3pj5xbvrlCAKdFz+XRx8JAhNZsHppG0YBlEIesj2jYcvPfAbUTAa0jALk//k9vgdOlVQIfAzkf6ux2SRGPqsW0Cg8QShWIUSzCFJMFbIwNPD8PuPKJwMJs+lg2bpCoBrfbF0B1KidXXPNoweve+GNH9bGAqjVWAv+BIGvCe9GrJBUzZ4YCU6GR0IQXG4MloGYo2JgRoo89bNj52CCTuMhEPODycesgpFbLADR+yzIbrHia7hKXggiGYk85oRtCcR++JKVGLYEdt2mmo6dj6nQ0CgHdA+suGzb3iciY4ov1i0CtXE+1C189dvxKUd99a2PBrO9oEa7XSQ78mJPCLFXid0CQ3faIQh+pMDbL1VIE+0cVobtmUDsB11SBlpItEFgcRGYZEI0hNQBdA0MvQDTVyyH9qV7QotugGHnkq7uZ1xElELjHP2FxNdGggRBqm8RCYKr7pSkG0SVpYMKo80N/3pqxfTp0WcJ36xXBKq7s9QranXe7/PvfGbm7T/82x8MFdprgR74+faLjlfVVEEw7wXn8UoIxN/8CAKXIDAjRdHP34mpQOIgsKBJpQiCwZI36XnIje2GLc89ixp62m6XVVQf+N3aK7mpSB3CYb7XhAiCdL9qkSDQdUrWqwIZUwe9NTNw3CRzztrZY94MAyWWrX8EKvkt1z9aDTKCGUfdcOG/tfYvZXUiQ6yHQXkOacOgRnqVJDc8gIx343f9t8IiItKYCR73TvZ3kWjwnAssMBAjCBpxbKR1ZETvCYNs1zroxhCYhg47fO58yA8bRSM3VuNBY8PSqBcRg4gEwNsCrTcFSQFtx+OCWzw60xwDQxc8tu/Er1RjvWGb1UOgLo6H6sHTeC2T0MoXPnbP19/b+OGarJ6rhfg4EiBXP9ZCFIJQdLt22Sc4Y+KqB9PI28aJqmXQSA8GYrugGKCT3/UCDJs3D2asXg1K3LDLEsjzIuLBV+lNQ/o2LjOehA/ZwL7FIAhJGRuWgoXXT9Zf0Jx2tSi3rdlz1JkYellmkTVOmaB10TgjxZFQBKatvL5roKX1zXwBhumKGrgx1AZs5cM9kxuQFQ/Q7q73xh5/HFxF4A4q4C9B4CFryeVMIDcBBAEMElGReS8wgsCTODFXUYNIGLQhMLIqbH/pJWBmslZMhBQ+Y4+hoTgDKbRWcnoCD+CiNwN6F1sd4yDhhqhEaOPAkMjCADxVFNUYse8UEa7ecr4Qp2EJgtBuautzmU3Tn14+86P43xLWUC8IVPJbrxdMGrqfa29+arc7n/77zxViniwRYTfM/lY94NyxFpiRX4rBmAw/10bix+eoDZwAS0IERteJ4kSYtI0XCQGwEjepVhtcZcFEzCbo+iDkQIeeww+DUdttQ2MiBN//ws0MqhD88SpLViImRxJbihzQKGB62RoRDWTDrQf2rgGHTG7Z+XPzR/4y/Nv4Rr0igAShXmcuYr/nHHfr2//erEzgrwddSuqRIPCxERsFThYiwuX/mkAQXBtvDIJAj3kqPTCoPYJIEDhpoFIEnUgRBqBnjz1g7P7LIUucIBKSA9ki50TBkqssvKSgRL0JqxCkD9YIBCFNFYJYNycIcjNRghwBwDjY+PdH9p02O049+G59IYAEob7mK1Zvr/rRH6dc+Z3nXyOGcEk9tU8gHG8BvtnzzTOykaMrnoGVqpnd0SxYRfdIHqrZmw7aLUFgL+qEAtgEgQkcTFDsAEsWQTDy0NbTA9PPOA1yuWx0glD38Qr8VnH8Lc2XrMSwJbB7mVK8AltCwBZ4Up+2qx5TMSELGfjMrNz4o2cM/3cqjWClNYdA/K+p5oaEHSqFwIKTvnrjmx9n1hqQSQyk2icIfKhC4CFrE02eILC2qPuhXy4GV5yEYoJAAyJZBEERVAzcYJFKEAwNFL1Akzhtf9G5oI8cSd3RgiRBvhOe0mEis7hiSwxSkBRwAunb/yYnCCTmRvP1ixIAACAASURBVMZohcnw7yu/v2LWf8nMMZapfwSQINT/HEqN4Ox1z7f/4IE/3ffB4OBBmUxW6h2ZQvVGEMQx8VgLYeMs2PGJ6AErShAcgsAjIvL2mC2Bj7SBmk9YUgaLINB3iCrBUpEQgsAOVEI8dKDkQc9D5/bbwuRDj3BsHwImzHsoV+rjj00G/MaVEEGQ7ltEguDUrySeUtuWhKUjNHChTpK5ZcCEtqzx4GFT1q9eO3v2kMz+gGXqG4FK7RH1jVID9H77427e8q2C8tLgUHa4qVbQf17CQro24HUwEQlDOSkDPfQFSYH3sGGGkv6poZ0YBj6SBOraOFhEEBiXIFu1AUZhAApGHna84mrQqLtj8SmBxoalV1YRMYhIALwtMGPSyLKpsp+C4lJtVeerGaZom3sUfYf7l/e+Up0eYKuVRAAJQiXRrmJbe57/wCd+/Y9/P0wt5i0Phop0pw4JgmisV+6QDUMQuDTAxlxI8mQf7vRwsazNfQgCrYMGYdJpVEXyv1OOPBI6t1rgVCuoDSr9cUvfxmUWXsKHbGDfYhCENI0NxXWThLGhDPTlyxgwa2TmgHt2Hv3j+HVhDbWOQKX3kFrHo2H7t/VxX33vtc2tY3WF3EArOO11SBDERUDugqVUENUiCDSks16AbF6DjoULYMoRR9pxIMTDqoKzbEs7EvuAEiQIgeSAdBoJgvTUTTTef+fB/eb2Sr+ABesWgUrvIXULVD13/II7Huq99eG33iKxD8j/RTJoSxGAerBjoOGTqZGgRz1TKiaChRdTQXBPBkEN4JIgWIWtWAf0QFM020WT2BxwGwTVyhhJPBtIZMVh47th6vHHQ27YcHZIV0g6JHXoyqyZhHIfiE2Vj1cQX72WZryCxHCVwT5CGfIVqKoCx0wb7Fk7e8J7EarAV+oIASQIdTRZUbu6cM3X7vz7h7kT+PtIEMIjyQkCeVMkCYQAiJt6kSFgBIJAD3ogURWZfYIfQaDRIzWSvyEPW3zqDFB7x1G5UNrJNRI/wBIiCNL9iiApSFOFINZdGyqEoG+D0mSYrW7++j3Lp54RVBp/r28EkCDU9/wF9r7v28+23fTYX54qaLAbEoRAuEoWsDMn0gzNThwJmpTJjmPrGBzaFQkEweWjXkqCYNVlQrEEgSWBYtIEuk1rRKLRD727LoWeFUtp2OU01UfSh7ALxaDQx6Rw/G3I6VuASb+UuIp4HHDPEp8lEZFh81GWCtEs1bXoSziRN2lQLrr+9F+cN7l72ar5Sj6RirGSmkQg/pdZk8PCTnEEFp52826vb1AfHdKVEfWESk1vlgZzQbQJl7Xj+3k0kNsWVzGQG6JjAFnsHulSRZAMjlyCYBZYU1SawNs2wST/JjERMlnY/vMXgaGoiaoYohECzypL0JbAD/OiNR1BQuCeTCaHSWTsns4lEfK4mt8wXY9ERmWa0KLA+kmZ9fvfv3z2i9XsE7adLgJIENLFt+q1Tzv2W6vXb9buqahrYwKjrieCwIcrqhvsA0Y4sIibWhiCYMNo5B0bBMEegcREIAQBNA1mHn8stM+ZE8vDLo1DMVaHfEhY4NKKSBDssSek8vAjM/WhQigmvq6xENmBokLOVKCtJX/kz/bqWRc4J1igbhFAglC3UyfX8bkn3va7dz6GrQNL1/SJ7NP7KnpHcMNDf3sDR0rADQud3tPECdRkkXoiWEaJwpZsCQqszJFcFu0iCOw9IpmgsRR0HUwtD8PmzYUZxxztEw0hcObj3ZYDxe1xthhCqNzHU7A2Qi5qEJsbIV6B3VCc/rK+8kRdvOe86vg1B89l3BKmhMTHUBRQTRMmZAZ//6PlE7aJ2ya+X7sI1MOarV30arxnn/nqj1vv/NlrgyQuUmBuw3ojCHQjrs4E8MO9FEEgveLqAffx5tguqKJxo304Od4OrmiNNkEgaaCZDQIV9ioGNVTMm0PQOWYUTDvxBMiN7AoFSmypgcSBEqpDQuHivhFWGH/SWYqLxg5oFB1zQprkjgXVHIRzF4zrWDVZGYjaHr5X2wjIrYTaHgP2rgQCe3z6jq/+v3f0zxDXONdtya98AhtvpSeiWl2WJQicKNi4kAOd54EQczVwgzgeTpm8YEXNo+UFgpAxWTInThBAZ7YIpqnBzGOPho65c8pOQ2xC4K09QYIQ3Ld4BAG9EYqXRjHmJE+L3LFgKADbKx9c/Y19Zl5U6W8f26sMAnIroTJ9wVYSRqDrsNv+CqDMZjfOBJ5qncgRu55edy0xPw2l7PPQ26k7xLK3FEvtTCkEDZ/M/unMkv03+vcCmJwUWHkZiBibelBYhouaMQAT91wCPXstAxo331RBV328KiJimZQtgdh8WUIQ0ZbArp8ahKazvYnGplHhrNZ7pplcoraMroCRGfzbSyvGlWel1RosthsbgXS+oNjdwgriIrDHWd9e/se3Cz8o6GYnO4YSeNI7cRPoXHEV6XXXOfy9+mb7oE+aIFgqCRIgiZICgSDQLJBaHsxcDrb//MUwRFLz6io904Nv5ZLQJygp4C2mSRCYMCad7Q0JAp9BDVQl+9F2LetXfn3p9J9KriQsVkcIpPMF1REAjdrVniO//qm8ptzML6VIEJKcaSEanzeyoiUV4Lf7UodgkATB5fJIJAglCAJpzgBiqKiDog/C7JNOg9aZE6mleSbJdM4JEQRpwhJSglBcb7LZE8X669sbIblMrqZiQFYjkTc+/vQLB0y5OckvDOuqDQSQINTGPCTei7knfev5dz4q7JJ4xeUqTO/KnsowkuiuIcREIOoG7rlQbMnupmi2FwOV7ViqAmuUovcDs0Hg75J/D/lIEAwabdHQhyDbOxHmnb4G9LAxFRMiAN6J8icE8WwJGAdjyh1pwiG5gsiacAIaJUKrJVtOrhjDRN6WQKZl/2+F2MIAdGf1p3+8vHu5TD1Ypr4QQIJQX/Ml1VvTNJXRh31d14HmAa7ck8SJW7neJmEQD2kTBAqHHT+BqBby1EjRrWJgBIFkeMwOHw6zTz8NWoYNBy0TYvoTIghyB3Z0gmDXn1B/xeVGVTdV9I6JuvT9Ma8AQaA5QwqQNRW4Yr+xuaWK4o4gFnVA+F7NIBBiB6mZPmNHAhA4+OJ7vvTsnzdeJGmMnByeTUkQiLEhu2mGkSDQGAa2CsCyK7BmQpQgeAmCCgXQdUIQGElgBqjsvwlBIP814cCV0L1wKxpZUfpJ6MBNkyAwuKxbfUL9LSIIVYyvIT1XtKCzdftjLu+uKNOu36edMQuQz2QgY+iwZPjgVdcumXyxTF1Ypn4QQIJQP3Ml3dMJR9w22K8brYGxD6RrTKhgnREIug1LSJnpIS24KoqJnXj4ZfF3tr8zOwZ+Y3VIgVvdQI9EO2YCjYHPkkVRI0XuTcGDJuXB0HXo3WlHGHvQAQA6t5VIVh/vXQ1FBxQFTQK4gGWVprSATUH8Pib0ZYSuJklvBLFxmfVul1cccjxcGxw6/YCJw1Yp9I/4NAgCSBAaZCL5MI7uu3/vH/5h02M5QyOSv9p6Qu0+tdF1mS6LBIH1mh3ejGA4Bo2ucmUIAqvC7fJo2zaUIQgkiJKhaWBkFNjmskuEIzpZghAoJYhJEIrqT1BaUK/GhsWYJ2dsmARB0I2Mtu9obZ8rd+5+tja+XOxFEgjU2hGSxJiauo4Jq266YkDPfc4g/s6EzNfcJalMh2pxNQYlB/SNmugQBHECaGwDLiYXCACRODD9t3DzFmJXOBkjye8syyONs0BtE0idlk0CUTVoGmjmIGxx2unQMnEya44c2DHYYnlC4AOQDKviXykNPS1OvBWL2vUVR1sYdNjeD0DobrRaK7O9FIc89uIcQn0kdlliPfuPUPDc4QUEIqiBCWP1zdc8uf/UC0EJswAqgye2Eg2BWv5Goo2oid86re/hjudee//Rdz8u7OnaE5J0d0sb3zrbW+ghJKgYvBIE9zwI0lfRM0GxCIJNEtzW+eQjtVUQdmZHQhBYVEVVdLU086DnB0Af3QPbnL0WFDMDKpE6KNE/9bIEIaQ7onf50GBGKZBYt+om7UWbfP01oUJwiRbK2x9qKsC4LPxkpxH5A/sW9fYnjwjWWA0Eou8a1egttlkWgXGH3NqjZ8x/F8zy4sdAEXE1ca5DgiDCRT0M6J24OIqhaUdPtC71PLSyNWaqjnCFXbZqFnM1eAgCmUtOEJjBIguaRKQL885bC2rnGNoXEhY3zCO9RkIShGL1AT3Kw3StbFlef/17I9SACiEEQSASqpyZh3HqUO8DK6a9k9iEYkVVRSC5L7Oqw8DGCQKf+Nz9l/3szx/1hb0sSh8GtQBzDRMI0SDRdVDZEgAnFwOXPLj2YJqhkWcwZGSBXK4dCQL5EzFSJASEiHwt7weDSSaomoKQDL0Apl6AcSv2ge7FiykbUQL0+P5rILo7oj0u2q43K2P8hdRY8Qr88Ii2NUf7PAwJa1wu5iESHz/1BlmLCuzSuencry6Zcl38GcYaagGBaKuwFnqOfXAhQGIfjDvsRmMIhkl87G7wkCAks5hcHguW/ptvpQxjMURzcZAft+RBKCsEBLI9Gqg0ghMEUparKaygSdoQ9CzaDsYcfBDkTDVQiu+7BmIaGzLWoiYezIhU2zgEIVlJQXSC4GNj4PtZEIJQnM/BVEwaubNT3whPHjAlo5BUo/jUPQJIEOp+CtkAjv7i/Xv/6HebniL65mibhANETROGuINLcb5FjwXSDLUPsNoTCQL9k+Bi50gbRNWEP0HgRICqK7jKgkgQeOImktibRlXMg9rRClt8+rOgdLRbBpAh5zgiQXCtnwQ9EHjvqVolBbuFFJcG40q+tkCNQRBUyINpZkFTNdh3VP4TV+406dG08cT600cACUL6GFekhQmHXnP3JmXs0YqSByWGxbpfZ2uaMHg7XEUC4TTNvBFEgsAOCMdIUcTUVjdYB7J4AHJiIaosmFEkIQXMcIwkcOLEgdgjkN91XQfFGICtTl0D6uSpVHZRNI8JXfJYvcm6UorTivEKir/KyMs8KNghlQ7EOxZGGB/f8/QBU46pyMaHjaSKQLyVkGrXsHJZBI7oWzf6F38ZeHhoaGhxQYXUb1c1TRgi75yyaJcuF4YgiDdKL0Fgh74YB8EiFq7YCBqVIFC7Ax+CQP5u6APQOnEibHHaGjD8SGNMguBeB8kShHo1Niz+NpKVEPDVF3mZp0QQxHG3q4WfLx42cPBVS6auj/9VYQ3VRAAJQjXRT6jtyQddt6g/1/6rISULGTEcbUL1e6tBguAPbOoEgbEK1jiVRrCoin4EgRTR9QEwNQ22+/x/gZ5r87mGRlcTF6+BdAgC6XQ9qROalSDQ6J7W02bmYbSyeYcfHTDz5ZS2IKy2QgggQagQ0Gk2s8PZ91z019c3fSnNNoLqrmnS4O185OtXEArO73YT1MOAHepujByPBv6bGChJLKsK0RjtjdhykaRqDKpuYPUR+wP+rm72g5ovQM++K6Bn192Z2kMleR7DP2ZYP0nJJrixYV2tH3tsChQHNJIceECxaEuUeJ3IRjr2NzaU7b1ICIouEGDAgo78Jd9Z2nuFbH1YrjYRiLJX1OZImrhXYw6/Ka+ZLblagqCmN/xou28oeP0IgpskuAkCYxDMlsBLJkSCwHFlERRZWUUvCDYIDkHQzCHIFjTo2nILGHfUoZAxW8AkagXJ8adpbGirEOomOZIz/Q4uxAQ1YkTDOiMI5QhBMf/WoCu/qfDUoTNaQn00WLjmEECCUHNTEq5Dx1/94I6P/Gr9L3XLYC3c2+mVRoLAsDUt+wB6kLuCJ4mBlLjawAm1TAmA9fgRBOa1YJUxCrYXA5UgEJJhEkcJDXSjAK3D2mHWKadAy8guMErK68mN0u0a4PqviIavriDKdoVCzXVDEJyROGub/K2SBEEIxe336dIuCgm6yn3edD7L9138hsN8z4qpAzGf/cSYwZ2/uMvkX6a3y2DNaSOABCFthFOuf8rqax7dmB+1v2FvDCk3GLH6MBtMxCaSe03yhl2uQV6FePNSrbgF7veEg57mWLB+tQwIqdpAIAuUdNBy7LCgHg2EIPA4CIKKgdom6HnQ9QLMP+lkyMyYVNpCPaV4BSIfqas1IEwS63dyxoaRl5eQPTFwsSfgjRBGauDuDwkBrsIEdcOjjx4w4xOBfcUCNYsAEoSanZrgjp1y3eOjf/CrN58x88a2waVrq0RNHxaRd3AHY28VzOXRR61AD3ae+ZG9T7EJIghWiiPqrWDkHXWDhyAopgaGlof2mdNhxnHH2/Xa7fAuY7wCB3vfT6XxCUJ0QuClvCyLqZIzfntAZ+uyvsUjP6yt3Qd7I4sAEgRZpGqw3NRjvrLfR4WRP9QNtYWKr+3rJ7uG1rf1dw0CzrskQSD8CAIJj2wLCIT8CuUIAju1HHUDzexo53CwyISgYlCssMv8PSJFMPQC6DAEiy6+FIayWcfN3aVSiLkVUFWBR0VRN+oDgmOQqiAaPhJLxX+h+xobiqqZ4miG7oqC++sl6cmSdhMykM93weaDnzhg1uM1/DVj18ogELyKEL6aRWDB6fevffP9TTfSCP5WRkBmgMY2kkx0L7aKjznZzSnl7kvs+n4EwdEPkxsW3+zLSxC8N32ibmASBvqLFQeBpIB252Vg75FMj0TCoIFSGITRey+D8bsv8ZoaJAMWzQORTFXVqKW2sidKeCMEJGQLwpCqplLP8mrChA44++GlY24I6g/+XpsIIEGozXmR6tWk42//z8f9arepkNsEZwNOgh1Vr88dO/2NSwre0oUkTsIwBMHJo+A0SbMyCg/HxLFHYBIj8nfFcAiCTSAEgkBiJhA7hJbJ42HOCSeBqQbdPuXxsb0RrPwI8m9Wt6R7jZFtMDlMxJFJLBUfINIjCEmpEYJmj+M7Eja9+5NPTJ0QVB5/r00EkCDU5rwE9upbL/198lnXPPd6YEGfQ4brt8nmVQ9qiJonDH6TYJ0M4gEhbs7E0ruYAAhW6kIkRTJfRQTByvRI67CkByzVNCELlvujyf5N2jL1QWhpGw5Tjj0WhnVPgELWCHXj5+ukHueCqQ/S2eoiEQBqXyIr3lNLZE+U+/IrTQjc5EihBrZn7zBm+uoJyr/keoylagmBdL6aWhphg/ZlwSnffO61jxUS/SbUIxrAIUEIBV24wgkTBEYErHTO1r8dr0FGIJh3Q8FFEFhRA0AbAlXTYeoRh0Lrgq1p5j2Zh5eiBEHyHZl6K1HGwae5CEJU98Qwc1K8FPzWkwnENHemsv6p7x8wc58w9WPZ2kAACUJtzEOoXjz0iz93nnzzi3/KazrxWwv/WBbyNIqdeFMNX1NV3qiLW2wAQfB6NNiGh9zQzyNBYEDzvAvssBYJAiMCxOWRZNWzjFTBCppEeANxdzSHoGvmHJh2zPHUNZLkjiz3iDjXg6TJOxan//ETEJXCqRYlCJWQGsh+g6oBYOT0N67crnvLfccrm6uyYWCjkRFAghAZuuq9uO2pNx/zzw1t3zIAEo9UJkoYyAjrwdBRdrOqyowJJwj5J7/p+7k8Mm8Grh6wKIHg8kj+4hA6Jw4Cv9kzgjBkD5N4NNjEg9StF6Bg5mGHiy+DoRyRRjiW+/Uer8BZA7XgjsiybEo9MY0NSRuVIAScgEqNySpEDhcDdGgxWocmZ9874Xv7z7o/zPtYtvoIIEGo/hyE7sHEU+6+ZP3GzV/M0GAoKTxClj80dIyJr4cg8NoIQeAbOz/cohIE/hEzFQOTIDDjRQ9BMDTQhvph4ooVMHaX3ajnC9/4601CUJoUNj5BqFVC4PelKFAA1WiBYS2Fzz+7YtwXY35N+HqFEUCCUGHAk2hu2gm3v/3eQGZCapu6iyC4eywItukPtbqAakaqUIIg0JgIVkREmyDQEMlMMkClDez0dgU38pMgkDmwy1o2CIwgOAaLNJaCoYFKYiZ0Dod5a88GgwgQLFVFamspiQXvqoOtuNLzmxxpllMf+OjeXTEMAr4QSZJfCbsC71RF/Yb4iGnMDsWg9i4jstq/ntpv4vTElwNWmCoCtbq/pzroeq78O8+/MXHtDY+9SWzgFcnNJcnxMhVE/cVaiLrZxcauBEHgVuy2cSGdT+dGL/5OyIT40MOf/J8rtwM7NElgJFuCYDJ1g+UQCYpuUluElizApOOOh47eibGHV8kKqM1EYECjaD2SIwPeukniqwBvhARUCKTVSkgNkvpGWMp578XCgPN3GjthVY/ybrQZwreqgQAShGqgHqPN3c667cXfvtWyk0JvKVWaPoEgoAoiYDIjEARWIzt46KHvCdEsEgRexi4rEAQVLHWDRRGI9MEwC6DkCzBhn2UwZufFMVZi+q8WH1i1lj0xPYJQCUIgrp0kZ1MkCPYcqgrMUt5/9t4D5u6VZFtYV7oIVOmESXdQjVr7umf/M3zN176/wcy2ZjxRbSs8ZOeK4L15ecM9kwUW7XZW2SEldXsq6nWJwYvSAjvUsp3xkW7dNkGgZMEVedEyZLQ9HpxbLK3LYBIG0yIITI1gUANHonYo6DqMnjsTJh2xmpIPIJn9amCSisMde6+idDVFWhjRhkcIQLnmhLgVJDOir+doUAhnVr93/aW1HuPWW+57tlas71Ji6cmHjAsWTxq5qkfZFGkS8aWKIxDta6t4N7FBgsCSs+88+7dvGteyHb02H3sDElwp60G/HXfjLDkbJQmCczCYVtAkfvwV65udQEleaQKphWZt5ISCHPiGCcS9TOcEgdo0MINFqoIokDTQGmx32ecgr2agRVfBCBKVV2C51Va4YwIskdLJxYuAGNkTRTVT2jDHXedkjZb6nhmH9cdLNXXIZ7LmDpn1p9++36zb0x4n1p8MAjV70CQzvMappc801W8cc8dNHxeUM+piVFb0v3oJxuTFNO5GatcXQBDYhkryJZAoiOzCWnyb5FEXieWiKC2w4h1Yf6MHjQ9BILYKnFgYpgGZgg6GrsPMg1ZA67YLQVFIVMXqbAXusSbngSDOZzTpQfoEoR7VCCJBCPeNGKArJgyD/E3L/t+ks/r6aoCR1sVGWt1OVmdXqO6Y67L1ZWfeNObVDS0vf5DPTKvLATA5qnO/EPaHpom14GuP4BAEPq9k4xUF01zCQMmEQBC4aNrJz0CphhNJ0Sgw4zYrAiO7qRIyYFBjxbyhw8JLLmUBkyq0E7BDhTRWaW8Dn69GqWS8AkICJaURMT/wcAe3uzEiHSi3FGxvGYk+krKGVRmRYOlKBsao+Vcntn600117b/mBRBVYpMoIVGhbqPIoG6D5vS+4b8uXX13/J11NPDZSxdBxbVx1RhD4YRwLrAoRBN5XxZcgWNIEfYiYxsOcU9dAy7heeVF6LAC4dKQ5CEKl7AqSlH4FEoQQ4bZFgkD6SKRYxKh57lh1i+/u1v2XmEsJX68AAkgQKgByEk3s/KmbHvvDe8NWkAA7DfEICYjqQYLgh3nom5okQaCbqbARh5EgEAsxu1963keCwAgC6HlQdQ06F+8EE5ftD4one2RSa8wfo8YnCPVkVyDOtZcghF7jQmVegqCDAi2GAb3D+r//0N5Tj0hqjWE96SGABCE9bBOr+bp1z7f33fv7fjObS6zOWq3IMXJs7FgLxC6g+ObHIx+6CQLxYuC48HDNVN0gkgGrMjHdM8/yyP7XyezIbR6y+SEYMXcG9BxyGORyyUmmUsueGCD+LrmmA40NSXyFZFQe9WJXUMrYMAwhIOqDKEqTFl2Do+dvbFs7e7YTF7xWN6Qm7xcShDpYAEvP+dbal143b8ySu19ki6s6GKiri8zFjGxYjShhSIogcHUCh64cQaBlDKJ3Z1IGQx8EVcnAvE+fAerwkZEXSPGhklJypBojCH6HaZgDNgzgSdfrJQhR6o9KEIgdzPbt/afcsXzat8JggGUrjwAShMpjHqpF0zSVcUfevG5TZsThLXkddOK/1gyPFYypuQgCuemz+RVVDL4SBCFYlbi5BxIE4lJJJQomqNogFAwDZh9+OHRssWXkVdXMBCHKwRoF6KTbie6N4PQ+KkHImAYY2tD3Xz5k0ipFaZobT5Rpr/o7SBCqPgXlO7Dionun/f7Ngac2DpmzaryrFemen6Ej1ZtGkXVWpMdOI+6+FwebcuutnUiKLGUCL8/VDSzUsp8EwW6RbMTUi4GpGDjxMA3mNqnoBeruaA5vhQWfPRdI5ATVzNL4+eWe2otXUBlvhHqyKyhnbBiFbOgRToqSMRNMA9qy5p+2ym5cccu+s96o8GeIzYVAIMK0h6gdi8ZGoPOQr++iZDLPm4pcRLbYDdZTBZahY70QBBe0gv2Al9wwPbabILB3mZsi/zd3efRKEESCwH4jJEFnsRZoRDvLkNHUQNF0MDQd5p11OkDXaMu9snhbcB8qtRavID2CUE+kQFxfIkGIQgi820CSBEFXNFB1BVryA4ufXzXthXracpqtr0gQanzGd1h7191/fqdwdI13szrdsw5ZcsA6C9lflFBzEoZAgsCMNMn5rgqmYH4EgcWXcAdNYnzCkTaQfzOCIKgYDAM0EmFR02DMwu1g0v770WA2qh00SUDVBWs6ZLX0HAWo1VwSj4C+BSZ7YpiLTxIHrMwHEqadoI1b/CaC6pURvvF4BuI4wvRBfM8AFUga6Bnt+W+tWz75FBlssEx1EAia4+r0Clu1ERhzxNe1ArRkvGmWESJ/BMwS7no1Z+gYSBAsOQENmlQcPZGlhLYkAdYBSe0KPJEW2eHA0kgTgqASqQEwssASc+pgFPIwcvpkmHrEEWC0tgtZIpNNjhSNpJFO8kiSEqs+ZvbEepEY+GVMjEpqaKDuCCdBUMyEUrNFVFSmkodWLa8/f+jkdMRREksFiwQjEGFZBFeKJZJBYGXfuhOf+mP/t1UgIlScKilUPfpzfnuqV4JAxkxv/dbj3AaLCQIta9kXuMpbERRFgsAOQocgmC0AM489HtrHTQKayIE+jU8QKuWWSNAMuslLyB7ZbAAAIABJREFUrW+rkJcgxKm70gTBoNIuAwwlA7uO3HT4TbtP+0GYsWPZyiGAp07lsA7d0ugjv/GzgpFZQozGqhUrP3Sna+4FS4Bqy1Gd+ApiV6uXUMpRD/C8DFZ6BtsdkW/+5GMl/8elArYEQRwIuW1bSXOc35kEwaRSA0I2meqBqRtIQEUdQBuCWStXQvu8rYXbZLTtIZqkgOc+8FtAfPKI32uQeiO4z/UiJaCEr1Q21BARDf3UAyLKpVQMQd9EMNL+mwFRkxETW2Jk22EM/ORnh0xdVnPbBnaIIhB1jhG+lBE4+ovfn/3Unzc/OZjXp0ULR5JyB+u2eiuhkaf/1ZMw+BAE61DgB5nLCDGQIDhBlRyXR4sgUKmBZtsmKJZnA5UsFAbA7BwJ8z99JkDMcN7RCUKAsSElB0EEIXhh1htB8Duow0gMohgYEhSD1BjBSJciCA4lUVX4+9KuwrKrl/S+HrU+fC89BJAgpIdtrJrHH/X1w/uhbR3oRDsoHiKxqsWXrQiErhtUVYMxlSYIvI+iGFyUCvBYCV7XT/7f5QgCrdso0P+h5QsFGNuua9uce84H7xrDx8VZKLVGEOqJEHhxTyJeQbUJQjkyY5ia1qYWDn/+oCkPxVlz+G46CCBBSAfX2LUu/Ox9t/z1nf4zvB9X5M03do+apwI/Q8c0XSntOXblanAME0WC4KgbWBwE+t9ilkAhx4Vz82TukSwmQsHOCMntFUgdhl6A5QumfKHnmGNe+eN64z4tUwDTbPUVMUZegxXKnlhPdgXlbulhpASU6AnZE8N8rTQle5gXAsqG6bcOKkzr0L7y4PJx5yfYBawqIQSQICQEZNLV9Bx9W35Az+WKgp2H0D0m3afmqc/tVkfu+GkSBOpk4JFs0HgF1uM+8CzjQqrFtewpaFEraBL3eKAGiFyUywgCdZGkoZYtGwTLoJFs6G1q3uzMaou3P2tt/j9m588HFehQ6LFRvEXUIkEQD6UwB1SUNZ1k/SJBiFtvNQlC5L6bJnSYAwPPrZwyXFECInRFmSx8JxYCSBBiwZfOy2fd/dMj7nr4X+s04ZBwTgsZr+V0+tU0tfp4QqRKELiYX0KCQKkAMTC0CQI57501IUo/FPvvnCAQw0RGEGhMBIEgdI1pf/HUZYsPnLzHgqHvvpV7cFPeWEaCc/ltELVKECIfUiEXdpLtNDtBMEwVjIwOq3oHd//cwik/DzkVWDxlBJAgpAxwlOqnHX3Lqx/o7TNkjBNRBREF4XjvpBFroWgePaIj0+C2CtbtX7jbO+mgCXvwcYmkHguW8aIVF4EFTSJSBg0ypg4jhpv3vPHQ5ccQZA58/I1v/McYtiZc9E6SXEs2T0j87In1okYIMvQLQzai5z6It9793g7T73KtG6CDrmRgkrbprUcPnT4p+Z5ijXEQQIIQB70U3j37m8/OuuOZt14EPT8mSvAS6tyOQoYUZkaoMoVYC3IEQUjmFIIgUGmDHV7ZCeFs6iSmnQ6gF+D0w7bZ95ozj3iSjPKGP2/a+t5/DPwOlCyVU8g96RKEeiEEXqwSjVcQMb1yEEmRmd+kCIG3LYOqxMgqy71/8vz27c+c1YG5GWQmpEJlZL/+CnUHm5my+qbPfqSPuE5TC4oa6PPtwwQsH3gbSSQLyS8qr4zd0vU7fw4f7jmIIBiU+LkJgjPHQqRBVyRFKzOkiyDwEM4mmLoOCugwssUovPXof7eIQO316NsfbVZaR5gKSd3sfXzGRwfPJQgB2wplvnJmcRyXtA6oopFFtPEpNWKvi2K5cQR9qqXiGQRt4kHxDGQ+kLTwJ9I4FuNFN0ZCfu0zK6fdLNMfLFMZBILWVmV6ga3YCMw9/Z5vvPvh4JqCokImiCBIWoWjGqLSCyxarAXXPHlICHPVcwgCGREvIkZaJH9zvCK4OkKUIDgEAbQ8GBkVViyc2PfAlad8QUTpMy+9c8YvP2i7xTdUStC6MwmpiL+1sDEHHZvJzG3cdkqFHQ5Tb7XdEZMiS0EzUgqT0W1w81Mruj9TH7lZg0bZGL/H/4obA4faGEVfnzr+b71D/YVM1lBywSmMgzbqUqMS3eJqY+QN1ovi/NNkUwwKxlSOIDCASD4F3T40wxIEVoVAEAwNskrBGK4PTn7jqS+/LU7C8ode7x3Ktv5rUG3NFU1O0LqLSBDqVY1A8Ekie2K1CUIYMhP2g5WpuwMKm8fne0d+b1WY5Bthe4LlwyCABCEMWimX/eSNT6+4+3/ffIxNiowINkyWO6Hz3mx1HqOFyFbqKeNTX9UX33xFXE0hARMfF3VLtKMK+9+c3QSBlaHujrZqyYqaSH+x1ofl9cD+xHS+rCkDxne1/nyPbbsO+NaFp2wU8b3uDbP98b9+9P2P+/X99SxpQxEudkLffKVcMmu3ODeBzCESdQ3ErbucmJ7Ii8J8M5Si+ey8QbISd9ZSB4mom3hcTMrNRZS6dcWAVeNziz+30xhMAR11oSf8XtS1lXA3sDqCwMyjbhr8jzGiNTE0KBEP2naKN+owm11ifW2yivw8IYhboo19iUlgWRiZFIDHOeDHMfu7E2rZsQngkgNyxpNgSUx0r+sFaFc/uubDx79ygR/8ezz86tVDrd0X6OYAKFQq4PPEyJ5YKYlBlMPKO9IkAxpF9UaImj2x1KeVBC7J1c1I62TjfXjosPl4LtXIfogTUSMTccb1j8y4+4UPXpW3GpfouCRBKKoJVRAS4MYsUibWAt24YxAE3jO3+6MlbRAJgqmZR+w44YC7/vuUx/xG818vvrbb4+tHPKcqulpyowhJECpFCsh4kjwAk4xXUE2CkCQm4ppJpF7TgIJpwIkz9EnnbDv5rZhfGL6eAAJIEBIAMYkqZp1447XvDow6p7K3dznXNDRyTGKGg+tgagd2kKu6IPnxLAoWMplJArybtCqoLpx5Yx4Q7NAkVuMmDVlgKh8bG398RVZR/FedaZrKbg//q1DIdmVAibZVVIoQxDmgxHwHSdyIq21LkPjBXQKUOJjbVQq6FlPRgdheTTY+vPbhQ2afF/zFYIm0EYj21afdqyar/4h161p+8dDQnR8XjNX+sevSAiQiQaAnTVp9at56K0MQiHCCpHnWYf+dJ31t3WXHry2H+IW/fP+Cp9bD1VlJSYH30EjkEJFYEnHaQYIgAbBPkTiY+xIEIAShFUa15H+wx5b9x/ZNnz4YrWf4VlIIIEFICskY9Sw46ebJ7+bbXxnUzWGKUWw0HqPqgFflCEJRJRiMKZUpEQkC93jwUzeUkiCQTokuj/4ShAyooIFpDsLXzt+t/aSlS8tuws+aZvaiR98rmBmyLoO3i3qQGHgnz48gxDn8qilBiNPvoEWdSt2iBIGq1grQrhhDo9T8nEcOmokpoIMmJeXfg7/4lDuA1QMsvmjdXn/4x+ZnTJKJDxhBIBNTWXWDMBNBbmwSt4mq9b2eFxQFjRkQii6RXo8Hx1CRDVZM7CQSBCro4QaNVr2sCRWm9ORe+uOdn9lJBq4Df/L+0+8OZZeV2iwqRwroiGS6XLJMKWPDMIdfFAIgI6WIOrAwfQ/TRiL1lgkHW7J+04QFY4y97tpzwrNh+otlk0cACULymIauccbxX3/t3aGOKWTr4xbp9UYQXIOmh1C8jTw0iI3wQgmCQJiiuJnyf9t/s5IueSUIfgRBNQ3QFAW6VOOCt3904TUysC1/9M1zPlY6ruW5GSqlRkjkgPIMMAljw2oThDRw4TAlXreHIMjUT3aOcdmP/vn4QbNnyKxPLJMeAkgQ0sNWquaV1z/Y9dMXP16v0RB45P9jFKG6BEEI3es7ConDHz0hpObfVUggCCrR/vAfPQSBH/z2ZisYLAZJEIjPfns2u3n5tl2H39t30uMynTznpTeXvfRhx4N5U+mk3K9CcytzmMj0XywTliD4rfRSIY/L9SVJCUIauNQSQSD7oKGocOz8fPd5c3vfDzvHWD45BJAgJIdlpJrmn3r7Da9tbD/L7+WgjSCJGOuROk1d9GQz97EW0BNCAmmBILgONeqwYB1VPh4NXMXglSwQj4YiyYNpQhsMvvb98xbPWrp0Kcn9HPiYpqkuffif/9iYHTGVSIYUKBETIbCm8gWC1rtM9UnGK4giKSB9TCI5kj1WemmQIOQy4PiUSQJz9oH7HyVR6mcCyBzMyX5w7bqDZ6E3Q8S5TeI1JAhJoBixjr5nn81ee/trPzTNzAEyVXg/tnoiCEXjq9AtVAbXmiljEQQvoSL2CDIEwfuer8GiacDKbXrv+O4Vq9eEGXffi6/f9PB7nWeqxE4mostjFBIcpo/ewznK4SS2V02CELfvpXBLq15CEFgwz/hkhqlaDciomR/fcvDYlYsUpRB2HWD5ZBBAgpAMjpFq2fbUb2/7xqD6zFBBHS1TQdhbeHqTy4zpSj604QAJg99GEn9vkYGxhss4AIiGibZHA8XcDRIzEHQiMJKETvwhmRrZpg2gGiYYSgYyyiD88Mbz25dOV0K5kD1vmu3nP/Lv/ryaATOmBME99fKTTpdVQPGgjJri5AfJwErZ1wUZ4MoFmnYvw9QObvvMlsfZ9wMp87r9U8wmeLsEd6Jia8toGyYrm/e67+DZv6nhj7ahu5beGdLQsCUzuBkn3Lvs/Xz+aSMoa2OJ5oI2lapJGMguHjLfSljyk8wM1G4tYijmII8G1ygEg0USDYnhqkDGMMCALCyY0vbKizefOi/KyA979t2f/Ks/szSOiiFozZbrFzmYgw7fMPVXU0LgHWeYfoedu0TqjuKNELajdnmD5hfRMyp0txT2fmq/Sc9ErgpfjIUAEoRY8MV7ef4pd/36n/3GdmqpOPchq68ZFUQEglA01GaPtWCFYiZzWo4gUFkNlSJYjy9BYDrijArQ3WYe9ep9n70/5NKixfd54q0jP9Sy94HliitTRyKHk9WQH0GIU3+1CEKcPlcac7s9b7wCmY7EKGMSV2uzBaa09P/hoU9M2TpGVfhqDASQIMQAL86rz/7TbFt50XcHNNUAJaIEIaj9oI2oVHa4oHrlfg+SBQd5SnhaIQmGPH8KEvXK9bPWS5mgCgTALwukSBCIwWKRYSI1nNOhtS27YdG07Cceu+aM/40y6s/84p87//bjYY8MmNkx5d4PWncybZeUfknquKkyJmB381uhMt5DUTfNJHDxwy6ReksZGdqZQmVmLUKZgI84awDcvXVP2+zZylCE2vGVmAhEXesxm8XXdz/7thtffrt9raIS/XGQ4DQaXkEbh8xmGK1libcwGJMESKyIKkgFohAEBYh6QYVWdej5Dx88b3dFCan/sXpKoipe9uj7P+1XMrumTRD8PAGC1rPYJ3L4R3FHTDpjot2nFL0RwuDiO2+UKSXnhSC9sGmz5S8SZL1v29p/47f3n/nZUPVi4UQQQIKQCIzhKunr61O/9teJLw38f/auA1xu4lofSVtub+69F2zAxoAxHQOmO3QwBkxzoSS0JKTxXm7KCyUJKRAChBowBtM7mGIIBEIwARJMCTbFphv3cu/uSpr3zUja1e5qdzSjkVa7V/pCwN4pZ86cmfnnzCkouTM25hP1xECjouidn74+aU3y/84BEIo66yGeEHaAUBg0CfOknAYB/26ACg2mjWy69tnfzT+Pf9IAFjy36revdzVdnHcYu7zVs/TLGq+gsO1KAwTPhzaFWULbdwAIQtsvNxaqGlCDBEL/euXogVN5gS2L3EVl8zkQAYQKSMR+ly7a7+1PtAe7M6i1At3ndUnbCCpm6MiQqrrUGKh7T6WZ77L/QoPFovGagZTw35N4W9kD27JNwNkbddj8yIWe1zvWIlzyxJcZRHIWS4CkmMtR5IrRggbRZLKww0rZEvgNknxp3+EpgZXfzBPuQlNQqk2MXRogvmFC49qj/nLQmBe4+o4qcXPA84bB3XMPrjjkzIWnb9im3YJDzoTpc9ooqgEgFN0ezQOyVgBCzhsBiMEiDSAY/MDhmU2AgBCM6oXefuuWC3YQIW/HP/Xp31dk6vfAluYShwwXAgSvB1QlAYJX2ksejD5oZQyxMPYcv+guKV+8ixFhDasMHUk0d8kR/W8SIb9RG+45EK4Tyj3dVV1y0nkLl61cq+8cxkGExhOCQYPgxEfrNh1GHjPTlHVXZAEI+BAwDEFxXKO+7Y17rrzlzJeZ+3aocOATX++1TpVejIEOmkcNgoiDKgIIDLOKtT5+gY9yZHADBABVRjBS6X7lwZnD92AYaVRUAAcigCCAiSxNPLIMNZx85c1bddld+lyWtkWWdbuJVEzDwOhK6TQe3j1LJJ9dtWUDCFZ5Sc8FR7LsEgrHqKMMiX3QltDWD2uEvV695fx3XPVHKXTS0o/Gf97d/LfNutZHQsVPDG4M/dzKFyaFBwDQnjF4+MBCc8XaDzRegW2UAhaT5ES7jgAnCYtr2+DSveKNMwcO3MbD26gOHwcigMDHN+5aR/7skRueeW/tPElQ7ANuQjgqhuoJghEgFA63qjQMZkwEPAZrDgoBgjU+u8GiBhkS075e37b4ginfPamz09YQx/xbVTqXotgzXWsWdeux45zyBBQCBOPCyh9mr1IAoSoAQZFgV9kTQh7GKNZuYNAgIQSajGDPtm3XXHPAyO94EN2oKiMHIoDAyDAvxZcuXRo75rr/fp6W6/r45drohT5aXZ5buH8ChqM1UoPllhwSAQj2X/nPLxrbvP/uBBBMg0Sj8RzxhUGTZFmB0R2p3/zrpou+752QXAvHPvXeL1el+vzEyUO3ML5GuYPWDdud3BVpciUixkdVAYQsI6sQIJi0Y3uWIi0YjgJKYqAoENM3r/ne8cMHnMDppitS/ntKW7R11lP4EMg4j/zxwoOf/1h6QNMz9fSgsYGQ5KkTNxtotcRaCLUnRAmAYEXPsNOe7/JoeC8ce2C/vrecf8IaT5NdUPn69zf1vuW91BpdLo7h4UYushoP7AzBQZibZwyOZn19n2fhiyPtlXo+wMR4fEJwfD4wB+maLzLq2r0uNfNPhw6LQi/zCDdHnQggcDCNt8qA2TdeukGv+4UsZcDp7Za33bDUc9QweN9b+IfnIdZCVpXPc3rxU+xcs0BTYjyPoKK8BBbN+N/kHwAYVr/ti3fu/N5A0STh9o5/7KNVn+gtQ6y2XW/0NmKItyQHcaIAAg/NLOQKbb8AIAhtmzYogQCBm24ZoE7t+p+Xjx/+Sxq50e9iOBABBDF8pLayX+fS2Gdff/XsFxsy+xjuZ7mbl8e1R+27UgWyhyyFAP/GTwv3bGRCLPvZUtU5hublOd2YJ8SpE/xEYoAA2bRKt2+8BCBoCPYY32vfJVec+DfmLl1UOPu1dXu+9qX6UkxHxJvBTPhbsqbTU4Eb9jkZwvJuXNyHkwt+4CLC2neKV+B32GM8AM7FWFZD4JLuUqGvLdbrSIGOOvVZvfHdQ56fPl11OSVRMQ8c4F1nHrrsmVX361zc9Po7GzfrSl0RAzjXZOgZ6XazrJgnBIMrZfieILANhqEpwAABL+RCGltjmVTf1sTg129Y8I0fwjLzkfd7b0TJVVulZD2CGCiU5Ac8xoaYbqewy7zjcSuTFW+/ygIaiXhCoAEEhBOOad2wXVui6faD+2/lnaOonnsORADBPa88lTz8p4v+77n/6j+WSdjb/K9WAULhOEttztUAEJwm31D1exILD5WLAULhDba5Ubnt8D31eTcsWJDx0FHJqp0IxV58as316zP6mTiYjURJxlwpgOAnKPCt7SqLV1AIEHj4QgUIeO9EMZjasOGH1x825go/ZDpqs+BsihgSDAfajrsDpWIayJL7xEyVO3yC4YnbTaRiAILRldI+Hv/nzgYQ9FyqnbSkQgzho1qDAXWZy95beNGP/ZzN4x74z69WxPv/CGeLxFoE1k+ULYG9X7dyxUqrVd5z+1VsbIh54KQtYOFJKUxd7rZKNGUYHygSxDen4NXTh0aXW14BZqgXMZmBWbxFZ132xH5PvPn1UtXB4rtcm/4fMrwjElfPzcZSbQCBLCrfNQs5gIDDL1ufhjM3yggUXcrMPXT4hN/NPWSFuNkqbulPK9YOuWl5ZqUkx+I8QxYCEAo6dorN4IkHtvaFtF1obJiPbjyRSq0sYFPBAKForhmiM7oBCHllrLZJRkyAJJJg997de/1+/2FcacupPIoKZDkQAYQAhKH9uGv/2J1o/I6MrbRw3FuXn4C17LKn8BRzAgzVAhDsXMxPmuQHfw2AgD8ZZ7U0d1QdVAApBoObulLv3npBscGLD6Qc/di73asyvZP4dsf6iQAIbkAmK135ZzYP9CnTow0g+E17ERUCNhUCEBgAQSENrgCCQ/tWPbyNtqW3/PFvJ42+wMu8RnXpHGBf0fQ2oxI2Dpz8x8db/vbWpoc2bMnsp8vElEwYfwSsdWG0+NVQuY2ocsDBNloGV0q/niBkPeeNoUsySe989v4Dj/jNuUc85te82Nv97X++2uPOj5W/O0m2SANDXw/tAkZ5OQCthEhOvPfUrpvJ9LgpBGFsWAQYOMBGuwLP7tJHOfrKvfpsdsOWqAwfByKAwMc317WGnHbrqE2Z2HsZpMVoRlyuGzULetwLWLsLRXn7BlttAMHOQJEaBjtAANChNaGhVYvOc2/sImBm93/0s64NKFmksRAFEPw+WIW238PjFdCMDS1x88LzuKamm5A+4blZQ1cKEN+oiRIciACCz6Ix438fW/DyB+uuAwnHxU9QfcVZyIkAAgu3fCpLXCXLfc4aIwIQXPqH0yiXSFwN45kBJ7YZ1a/xhjf/dNICWj2Rvx/x3DfXfr4FzsH+lvZNRRSI83KYuBmn0PYjgODIcrtceJV9bAUxqV2ad8sB/W90M79RGT4ORACBj2+ua/U/7eYNmzLxVqtCkId6kH25ZojgguF/gsAAwt2zEvcThBlpEdfHQYv6Nnad99+/XnitYFaXbe7Ixz6e+5nWeL2EJBmfj143FqEHtgPlwtqP4hUQ7tLmWxi/zbnEWrMGUNe9eMLQXkHKeU/rizavPY0fQsf7/dv/NuVPT6563c5kkaplGrE9ASAU8iB8TxDuAYJ9LNbcudpYbQChPiZ9teDAUfv+8qz936fJh8jf//SftUNu/wReUTV9kKFFYN9aXI3VA9G+tO/RYI97OJyLO4h4BXhMvvDaxiysNdMkGU4aGt/+h1N7LefmY1SxLAfYV3HEUNccGHT6DYvWZepn4RAyeV/hhZLDSMc1EWUKcu4xIrr2uQ2TwZSLezDjx0SUIYQQUeL3Yl+ybEk77UjSAGcHlZEGbfXq+5/cft54nxns2PxRD3/25sdyYlKcuF3Stxa/DxHP7RP+O48j6+7oTjnEPh0ihNMp3gLDXsMyNItLnnnuklOYNlnToF1L3fbs7JGnu6wWFWPkAH0VMzYYFTc4cPnTy1p/e+cHj29Noz0kh+iJeXzCbmoV+kTsQxUi3VW35TYsPPbKLwBMBM2OITfU7HhstBvnmAYyisEPjx975I9P2OthV8wRXOgv73ftfe1/u/6mIN0VX/0+TDy3X8UBjUp5I7DwxI07ol2ESHkGAOJV/GQNQaMi/+3b20mHnzCx7xav7UX1izlQ+f2xRmdl5Jm37bVWg2cyGSVJC31QeEizLGKv7Kt1gODEH4u/1QgQsuMxAQIeiw4KKJCG5rimf3bnOYpXmfBS/8AHV6MNcoOjMa6fcu1L21Ucr8ACCF74QgMIXtr2ImMEh5i6nQRS0636phlLTpzgS0Iyr3RWe/0IIPg0g/tc+sSCNz5cc50q4bS8HvdsjMorpGToCQCi1EaHF0cw46e9hZTXMOg6lrAM7Diy+aaXrpg11yeRdtXsyUu//t1/N8sXWoX9PkQ8tV8pDYEAoapEvIKg5tSVoOWIgbHNsXl3H9In8mZgYpy7whFAcMcn5lLDzrxp05ruZLNE1MdeAUKwqjv7YAXsZcy8C7pC+D0hyme2JXEQZBk1J7Yd8ent3348aP7Z+zvgoc8P2QbxR1VJIkLv6QCnDMTQZntAzhFAKOIw7UDwcz555bY3bNvw9HEj23nrR/VKc4AmDxHvODhwxV2vbPeLR1a8oyMdkBQHpwyOLM06HdJBLdSeABAK5yJ8nhDlAQLSJWiqk1ccNqXXwTdfdMSHLLIluuxP/rV+2Aufq0u6NRgrum3PgKBoovO3v6DWlAi1lF2DwEu3m4BGvG2LnvuS7WGhkHQ4d/vGkfPGt30UWL89pKMIIPgw0ePOXvjsp5tg/+KmxVvF2d/TfRgKtcmeACDCqWHAKRyNLE04l3MvRX3mszvnz6BOWAAFpt+74smN8aaDASlAootzfsIOpxKaAmHtlxsf5wLx+oRAsx8oRXIgPOGUh1LVJIRgkLzluUeOHXOA4KZ7fHMelm+P550jAzqfXN5x9V3/fqU7rTvcoMQDBEKE3aI9QCti3DXn/lfVwhMODUMOICBdg5lT+sxb9KOjQvEO++MXPjnh8U2Ndyu6BjzhxYUfUiZAEN6uGynmXCBe4xWwAoSK8MYN/9yUMZ6a3jtjcmK388f02uSmSlTGHQcigOCOT65LTZx3zaxV3a2365occ6zEuWHQCMgG1hEUvpfWn/W7T8Nx231FyoUNIMiqijbeNz/Q3As0xu9176fqlmRciensZAk/rCKAkJ0upw1fOL9pwiH0dwkyEIN6lOoerK2f9cCsiQ8Jbb6HNxYBBMECMOqcey79YkPqFxLNt9Her8+nLN4AfO6iLBcr2bfg6XVsrjJPEEaoHhyTfqdhysK//frUU4IYq9s+5jyz6rq3tzYswLkly31CDqdKGRsKUKH5Fa+g3MYuhOduBUFkOVQMNomnEQDoug696uFHz3yr/+Uiu+zpbUUAQbAEjDjrjo1fdUktTIwN4ATNi7wXPUMInvXi5qxNWFSyosIeEHafRRrZHZNK105r7jzvTd8HxdDBfg/8d/JW1PgGUhJ5tXw5nKJ4BUUzk5cYKeDT6Gb6AAAgAElEQVT1ziAmbEXLAATcULPUtfb544b1Zms0Kl2OA0znWMTK8hzoXPTG8KseXv5RRsabN4NqNWiAUHir8+Ap5kYmAhieGzICLZM1HrV6LRdtmYMyTdYgrgG0NsY+3G1Ycvo9PzthFUczvlW56Nn3B73R3fz0FjW+nb0ToQAhy9PcNia0fRp3vAq2FcrZ4wFOszcIlCc0npX9nXIcldAUZWvpOpwyuWXwxeMaPvNERlQ5y4EIIAgUhskLbn3t/a2JXRQNQRmtJ3uPXjciSo/REwT7lLDWKLVJ8wdj0gBJCiTRtju+M2HBaZ2dpksDK2E+lUcISbs9+OltmpQ81XMXlXpCELDuIm8EhtlnuVQ5NKuDDmOUtS/ce8zE/Rh6jYqW4UAEEASJx3fu+EfLHU9+vCoFqdaYHgNdksQFiRGwUdGGGT1B0Dgk9ne7hoFvehHosg4HjIxd+PCvTv2DWOrEtPbtpz8645WtjTd7bq0AIAR2I+abmLzheo1XQNMOZBVUHrUQnudIRAMeAQImQYb0xjMnJAafF+VmEDEjrnKqCOmo1huZcv6t81esi1+rI1Bwqlv8Rkw+W0Y4Xzc2AZtZdo4KdiUrc53ILljkoVL9stDIXdbFxu4YKAvbIOgb4Q/nzqw/Y/qIbu7+faz4OELJzvs+6lYVnJshTk9KVUPxCtxme3QLAAqnyde9xEeZMPZEp3sp+12V8MC2fnQJQJaQNi7Zfd7d3xpxvd/D6Ants89KT+AK8xiR1GfOrb/q0hI/zOYHzLuSB/BG6uMpGgVjYhYIpgq0zd7J0FEDDfYelVj61GUnOwTkYure18Lzn15537KtbcfgcNCIZrFZSwDBBfDL3h8cZoC2MdNkxtdJ9dq4AE0BJgF7Ltg/JOmARSyOtMtfO3Hwj0HycVP0yoMqqU+TwyoZRmXJ3P2ixfWfbk69vb5LGZmlpARA8O0mEMBayCpFXG5+omYlgKGJIlVIO4Wbv9O5KkMajtprxOjbzj9gpZBOfWrkwle+GP73L7SPVDkBVLPdKF5BbvtwmI+qBgV5JzlVEhylsRAQFO2l2AwHxaBF3vb+6N5o8q0h1az5tNR8aTYCCALYOvW8+3u9u6HrG8TyYlNDGgZyE6pkrAWfAlQKEA0hTeQOBkMhrSAVBrQl1owcKI1+ovOUUEeOO3fp8qYPt7a98ZUaHy3XoLEhy6HtJvdB3jkaMBAXIqxkM+ADAE7900CBvQ6OCYL/wV9fSev11AlD1gkbUw9tKAIIAiZ+6vfveGb55/IBTMyMAIIAzptN9BCAgOULSRqoIEG7ov/2izvO+L4UcjUq9mbY94HVV25SEt9T9FxWU5aD1bOgCFBBWcaGXuimAQQvbXvmkcgGPACEQh6w8MQOEMY0bH1k8cwx3xI5rJ7YFtOZ1hMZ5GbMLafchFTUALSocXlt1fAThKVRcMM7IWVqHCBYPCKGb5IOihzX9x4lXfjYz2dfLYR/PjfynSUrTn9la/uNCHIIgWXj90yeIIDgleYIINBnkkVjUNiaHSAk9W3wyqxRiiSFy/2XzoFwlYgAgsf5mP79u898+cvUTYqO0zoLjjiUffQ3psnrBlV2qAI20XLtV/QJomaSSmGIIEFSSm+979KZ/adXiSvXQ2tQ8/+98NkXmpxozIEdjwvPXl2A7EbxCtzOh1TCC8Ft/fxy3ICAdu4jgCmN2xbccsToG/goi2phDkQAwaMctJ98xw1bFWleXFVAOFgtAAiFpAoFDAI2WRoro1gLNA7RfkeggwR7D5P/+dQVJ+9GKx2m309/fOWz/+luznpcCIXSAmQ3ilfgVlq8AwSEPVrcdleqXBmAgPdFGSlQj7pvfnnWsLlhf4bzygo/60cAwQN3Z1zy0MB313U/t6FLHYetZ0HSPLTmUJUGEKxl5nm1BXPFzgMIUbhnZlkxplmFxf9z/IDDJzZ9ydxABSss/Qi1XfKvr9ZrkgIS4ANC4NbjFSCQJypvWjq38QyEgnrf59NhjmxxXdx2z2dXUH5Ts3LhkWc3h6KyLkOLkn53nKIfcMOxw79wS2tULp8DAldpz2PtkLPu2n5Tt/YfnPW+Il+BHYPvm4/XjbgMk6JYC+4kaFAbfPb+dacOdlc6XKUOeejzlV+piZEKZECXcgaLTFRyyKDX5wNMn1sAUDgW39ckE/MYC3swNrT3xP6MgBFbeYBgz3XjxGMdxSCBUtCrDiY/dczgtxhHHhU3OVChk602+L/nD+5b+OanqdkVYyLF0FH45sSxObPOdBRroRzHEPRtj333wz/PvoqVr2EoP/2xtRdtTGWuIm5wvIuGQwadAALr2mABCKxth2FuHGngBAjsgKAIVpUECBZvacnwFB2BKsmwXZN2zV0zB30ntDwOOWG8yzTkw/KfvMWLkbLgkb+m03pCtnxv/e+VtQf7tiYwN0QpMjg275IjKtqRjeC1Irtg4Wal+jVurzooSAI5DqmxbXDqP6+Zcw8L7WEpO+uRj49eodfdqWlKneOaEcBkRzBQQg1dii80b4Oa0RJQM8q5Px7soIgKkCjzXO5n60nBehIqvRXhhHkSJJEK/5g1WI7sEPh2AfcSwNd+zdY67rKH5z7+9ra/yJAf7jNUA66hJwhyUFYwGJOAs4tbNCSEAMeZj8nw/qKf7T7psDFjUtyNVbDiI5+jhl/845s3NCSNxWFxiz4BTPaqLWDRFFj0Uw/ECvK8bNecGgKnNpm0BhQPBHz4F86jFx7v1QudfM2MgXeGdRrCTFcEEDhnp+9pNz61SWs4SAmzD76LWAteFp4fGzxtOirlCSHg7KINreTvONSyLgOMbdv25L/+vOBQ7oZCUPH4Bz94eIXWOtMyMssjSQCT8cHiRabdAAQv7YdgCnIkeAAITICgcNAuXBTL2Y2w8rBe27bk5dkjD4m0CKyc438JZO+phmrMvuzRkUtWbnuqq0sf7XgTKhgrLUdNRVkTxVoQxn4B55sjLUhK4+BI0Hnk6F4Xn7BHVYePvePTbYOv+ueG1RIYRopULXcBR0odHKWs2QsZ6gYAOE1C1YECwlhx9z9uQEABA9iWwG/eNiD5g336dB9y+YHDPhS22HtIQ+IkqIcwDA+z/5ybDt2s1z8uIR00Waa+i0cAwRQOv05Qs3nyBEFOncoIo1/Dk5EOHfXprz++dV6/yoxMbK8zHvr4y3VaPRmLMIDgMm9BBBDczyWTXYEztKUaDQUBEBRdhQ4lffjTJ4563P3oo5KYAxFA4JCDqRc/cNPyr7rP1MmJgEPXlE9OUk0AoejG5XLjdcVGv05QW+eVeoIgi8knYCKBBiP71J391tWzaiLH/cwnvpz/eZdExsILEHhvnW4BAm/7rtZBEIUEaBC4tQbZ8ZV3VzQCGolL7FSKrTgr9ISW1KK7jhg+OwjW11IfEUBgnM1OhOQ/nHKblpISjDXzi4caNNhJrSFDx2qNtZCU9XRbbMMhK/96wVJPQheSyoc88O5+a/X6J1NySxLHRLA2Ib/iFbjZ5KoaEAg6ZJkBAdkb3MUrCJK/hX3pSIY6qQv+OWt4lJuBcQ9ws3YYm6zt4idf/ugpDy3ffLvu8WZdrQDBVw2Dn9dwi3CbUWmQm5aXoSVj+qvH7j3w4BsWzNhYC6vr8mUrW+//pOkpVdJ3Ayl3gxRhuc7iohj0/Ps2d5wAgS/CYaG6zhkgGM99xd4IfvCANo8S0kCVFNi/LX3MHw8d/oAfNNRqmxFAYJhZnLq2/+wb3t6stEygIWdasxh8VwXzazkYE6N/PG1Oab+zPUGQqA/khtYrvu3BT24/+2ha+9X0+8EPfPzAGlR3FPZVL6VBoG38TuONAII7KcC85eFvXutlNAhhAgiAdMD/NIH2zkuzh28feTO4kxFyqXFfNCp54q/uH/vUe+rSlK4NdA7UIS4mArFB9ulNW+hM1tATBD6MsWKoUny396vLKig4+AHocNJeg6bd8O2DXxU6bxVu7NevfrX7XZ+hl817JqGG5cBya0tgHyZL+xVmj/2azm6oUYZ4pmcEWrwCRHQE2d7cepKI4C3PXMZl+GLPPvHpf9i/z/siaOgJbUQAgWGW+83687zNsfYbZF0C3fGNIAIIjrc6j88xxbcWhknjKFopQ8d8YIKRig7t0mZ99Z3f4UxcwDH4AKscdu8H6pdSs8JzT3EDEHgOkQCH77Irb9kTmQBBIUUuAEJQHkMi5lJGCOrVrvkvzxn9F5fM7/HFIoDAIAJjzr33z59v1M4mN01HztGu/LTf84mh3WTDMXn2R31niowgyebHxoLi2aExhWE+SxXNhoYw7rXiaHdBm9U3Vh4oCMHUEckLnr3sxD+6qFp1Rc545svz39og/cFJj+nmqaCsKIkEpb5ylrKKySDdr3Q+u4ISnLStNaIpwM8SNl6IDGZUxGLb/PFtGZje4onrp6SvX3LisLN9ndIaaty95NXQoHmH0nbKzWlNb4xr3AYEdKtfFtqqztDRRFUibgMl+eQTgLDT7FMXeUOSdB1iigZ10paJXy48/x0WuaiWsgc8+MmEraqyPC3Fi8+HEoOgbVi+ypYfjOU0MHQihd+ugP6uFkS8AvuYPM9jCb4261szL50yypsLmh9yENI2aestpGQHT9Ypv39mxr3Lvlmi6DLg92Fa7ANnCiOAUGpjEzajAZzeWQ2Dj7dUHISrrTH+twO3rz/y1ouO3iCMPyFq6AfLVra++kXjA5vS0vRCstw8IeA6ng+SSvNDAEDw9IxAxl8aIFj8DSJegdC5LMFXTdLhqIHdB/9y35FLKj311dB/BBBczlL/M69fvSndOthQ92FbA79YJ86OIdQaBqeD3FSnCt0onO6mfkwdIg9PpDcRGAVJCnTEN9z46W3nznMpolVZbP97VvxlY6x+bgbVQQypZcdAuOsjKPOdgQLAAKaRGRC4sCWwjA3DbmjoOEdOfHUYMzaIxf/0lrasXjpr9FDf57sGOvBjq6wBtuQPYf7vXxx6x7++eg90td7/wfVggEAOAG/JdlzNj4gT3KGjbCAm81LmipYShXD0t5P27DPj5vMPecZLO2Gv+5O/r9rn0S+TL+BoCLTNyF/gGACnOAFCnjaFxz2RBSAEBcAK7Bn4uV/CiLPEmCUdgQpy15H91TH/d8CQz/j77Rk1aWuyZ3CBMspRZ97y/c/V1itklJH836QigFA4HcJ57hNAsNONu/BCd6uUhs/vPKvm1ydCSD7g/s+0dRAvGbDcCx9DtYFxAAR+uwLbyMsABBKvoMBd0Q+e+TeHLAABL0pibInapK4fvDB79K/9GGsttVnzG5DXyVq8eLFy4XPJP6/fkp4nOS20oBB3diDiAESoYy2UOsRrQMOAp9JpeDjnAugJ0OUMnLT7oJ/fdP6BP/Uqv9VQ/5IXV3336a8Tv8mquQNfUwK4JCD3gZ0KpmcEFxkT7W37d1gX89FzX6X4SksZTZnS1gTc8G1twLknnCBpAma/ZpuIAAJlakfOv751i9q0qistt2i2sLB5t0XbHzwvCKqoRQChdjUM+AVYhoSsQjy9tXnNPedtoYpDDRSY//S61n9v3LKB5Dfh82mrPBc8AgQ+90Rz2LQnBBJwK5hP+P7nE0BokjLr62V1xDMnjKqJ8OV+zW5wkuPXCHxu97sLX9/5uiffX6ZBAmR8wyv4nBgofJHk9RkBhFoFCEjSQdISMKJ/8vnj9hx3cOcJE9M+i3comu9cvjzx2od9H/88pR0QCoJ4iPAAEDw/I4QFIAizK7DfuIies3hGPGoQsC3CEeNbJvxy5+Z3eaa7p9SJAAJlprebf+uKD7vqRsWw8JfQIFCFJVCVaQ9ypXT0hDBE2leQ5pMNAw4Zj/fCDkn96acLT/85Va5qqMD+93zw0w1SUye2Mg/lx2E/UGoc3ICABgTM5Ei+yr797Baxr9H46hEIYHKd7YFkGKqve+eRUydODKW8hYSokK7GcHBn4YuftJ95wyvrFECggwIyp/6zkMn+LuAIIDhJj1Ce+wQQZKQDkuPdx01u+dat3zv86XCsgmCo+N6LH+33wtf1T2gg1QmdK1Hk0w4ySj9kVWLXFC8fzdgwJNkTmYZI46tHgGAYYRZThIGoDhL8Yo/+7UePkGoyzgjTPJQoHAGEMlzc6fw7L3tvg/RDbPnqnJzJ3RQEDxBodLl/6KWdhRUVoDIahEIOVEO4Z7xptUjp9V/ecUYHbQZr8fc971u1Zhske5NNvaIDdOjdObZ6WSrZ7QrKr0vJRpYjiCJRz/3lnDfw5sRXykTTNiB79SL2Gau+VMgVDWIwJvblzx48cVJnRcUtxJ37K00hHjiNtMWLlyfOf/a9hZu2qcfRynr+XYSqjokIjzcZW19VF4wJ0x5STwhdBjhmUttvF37viO8xTWeNFL74xdU/fe7rRCeOIkmPiuDToD3YEuSdVb7EK5Czx7+3g9o974T145OxIR4JT2RTDBxwttR4nb74rBGDTlmwi5Rxz5WeUzICCCXmeup5t439uEt5ZUsm7vttLlgNAx5wBBCKNAyiQRrLzcckJiGnYf3tZ/bYNbkYIeW3965WU1Lc95twyS2eEyBw2xXYCaE8IVRduOM8xCTe2DAbmMy9QtRGkQ66hKBJktcMVjbucc8JE1f0nGPf/Uh77GZEY9E+v1hy0Gv//eYpCUKQaVf04UW1pXC/4qgCZEv2SON58L/bM1HmehfObqeBZa89Eki4QwnBqN7xl9/646w9g+dDeHo8/JFVT3+aShyIIyv68lGfCqgSnSXLfrt2ddOmgMZyPxvPLu5pY+WdK/rLNVqKr3mDcvT5KktqIU+Mncncn9xvUw59INAlCWI6gvF94gctOrhfj7L5cSsf/kmcWwpCWm7S+Qvf/+96eSxfUibBgwrkxLLTLE7DUI3BmIiG2+/P3PmIhTXW6cgyNOhdZ6y986xb/e46zO3vcc+qM7ogcbNvZyHNKI6BOWxaA3cZE+3dez60XY5FSD+OfKWPmUZiEUDwYS8cHN/25mMnjNmJRktP/D0CCA6zfv3S93t/98Z/r1FlHLbGE0wVIlNRrAUhbCxupEy0Rt83anvfCCBZF9u4++D40Y/9/NilPo22Kpo999F39/jXttZHUrLsz9OeB4DABggK2U0/LKWAAhoJAQRFw3PS+dDHTBVK3d/9F/MCP2hdvOPAjpN3lNZT6elhBSKA4DDh+1x8+3WvfFm/QInpIFNVkmLdCrnlzwdkXZoWsWOuNkNHkRoGQ3ugQTKl/XvjPWdM4p7/Gqq406KP3pRj9VleMJ2bHgBAIQuZwh3bK9PiFZheUb4c1A5yIKQfGl89uiNisr3mLym5BGy0O/MCweSmtVf99egdv1tDy0jIUCKAUMDG65eh+A+vXvRMN0rsA0gD+hOD2MOSe1YjgMDNurIVHbQMhNUCLzY4tfMeg5W/PHPF8fP9GUR1tXrKUyuvemdjw0WS6dcXJECwp5TmPlhdAATipRHQmuUeR54ajWIV4hUgmOZAQmgtod0o1TZCEtRB14tzJ4w4IPJmyGdeBBAKhGn3ixft8fEG+bHNmt4GmgS6RDNSFHxacO7lwXpCiB1ztWkQSEY42+dlU9NxhnpVhXOPGND0mzkHb+Wc/pqqdtXq1fUL/xHfZg0qUIDA455YyH1aQCOPcVXcTLYXmXRs30cNgjdvBDo3EEWAJCRDIqZ/s0Ni7aE3H7fDMnqLPadEBBAK5nr4gntP+qZLuxMcwirnVI4lXHZKyk0QVm8UoQ3otpKjQtyYqw9AuL8cYqg1ppf6/ltXnza+52w79JEedf8Hr67U26YqgLV4Dh/twKJ3QUpwPSMwZE8UflCXGJewfkrx1aOGIM/kRuheVJzumZUXOAlfQlehQ9ZnPXvK0Ltdik6PKBYBhIJpnnDe3a9+slmeao9aliti6ZUx22SGzUXcYckrlcFqGMjWy0tqUb1qBAiFgX5KbVo44OugtuTx7197wr3CGFYDDR14/5dHrlPRgwgvREcrXT5HSBzu2PPrUE3HKyjBVw8AIRsZ0zPjnYAiBuMejzGkgCR1w+CEuvSxE0ftXwPLR9gQPHJWGB2haKjzkWUNv79vxVaVoGgaayKAUH7SejJAKJadYoBAgsBCc52yeXS/2IyXLjvu1VAsgpAQcfLDK3ddlW54erOutEqygyxxahC4NAZ5PCljmU9cVhHUXkAjb94IBCD4AQ7wvGCeewUIJmSUtW6Yc8DIhouHSF0hWQYVJ4N2ClacwCAJOOCS26/8x1eN35dAdQEQiinL33xYbjjiDlNufglV+7mhQtyY8eYTWkEusTMi0EDVYtCkpJ/96ew9Dz//sDEpN1zrKWX++MEHyYVv1T+a1pMHej1dmNwTyXyVP80KAQCrSpt3DoX0U23xCkpEthTCC4eJ2LFu88/uOH5clJvB5E1o91XeRcRbrxMh+Q9z7n4/LSVGy6AV2qFxNCuTlMPuBFncYclBKKlS9ARBoDlva27qiRtzNQIE/ASDIAlT+m6648Wr5p7qhmM9rcwp97973Xta3wUaaExD96QlcAEQongFDtPhV7wCEyC420eZxMSxcBwyK2auHDqus9PDm4p3MkLTQgQQzKnY98d3T3/zs+SDGtJasExK1NORdnpKDuAAAwZr7u2sp7VF+z0AeRKsYTAU7EQ/WADGDL6Q/2cYtpMgs3DYNw6W2mcQVkVr8PM5EwdedMguX/jWfxU3/JcPt/S77h/rv9TjybKjKDw8XB8mjtqdnNCR0MaG36Otf+vvxDPWNd3luuZRtzPq/43onwWLk2GtliTfRnuuff/47URHTEIbdmnYMvOGY8a9JH6Gq6/FCCCYc9Y6+/ZzuhNN18YQvq3grGnlJJ6uhnQShXyNAssTBF9/wsVRIEgwNhnDG0QhPDc34myOAu/U2/dKxj3Qe+dZHGiXo9x/q5IEk3tl1r/yh56Z2tktg496ZMVnn3S3DCxXnltj4NIbQcjB7WLA3vsptugv6lbAxbhyAY1cMNFjER0hSKY2n/v6vPF/9thUTVSPAII5jePOfeCpz7boB2kShge0xCgiDmwDILjb3ET0511eRXpC6LEk4H9QrI4kTcl+dkcRjyTbHzFY4JjHbguq2wCCDaVgNfWU8f1e26jHH9ZpjtpiCXLfmo45qBuqHgPNGTKraoS1uiQjScNbKk5UbZbFjCb1rMK27nRs24Mv5AhJuqGT1lUVQEOYAwj0DKlLkj2r3ZqW7oJxO449cV37kF1kOX8G3a0bylBrzhvBX4BQ6XgF7gWXvySSEPSpyzz+3HHDD+dvpXZqRgDBnMvWOXdpuhQX6FHH98bOF2uh8gAi68pUtDYQ6EQjA4AkFTSpHlBbf9CSDSDhTV8KQ7aLyizosC2+4husDmDGlZbwvy3Vsh3zYOxghZa0NExEI2QUMp70rTK4DVNWzfYkAgo00oZs/hu7IsooA7qWhkQsDuMP2B0gmQQJ0R/+8pAmRW1kGRsarwgidOR0OfKuJTD7CMDYUBithL+FsWPsz610vgVVAktBAmna63OGxILqM8z9hG2PqgivjvnZQz966kP0K4nRGKo8sXwAIX9RGoaO7j6+/ty1TS9VCiAYuhh8K5RBbWgHaOsFqpwMr9cBfag1W6JI1gg4MOxECEAwLv954yfKhSwwMH9DWFNQABBIZc0GEMx2SwIEFXQtA5KWgWFTJkLr0CFEktyuBtK/S4DgNC6/Jtn9eqZQUOUAQRgfBE8UTs8ngw779Nr2nasPG32N4OarrrkIIABA/zPv3rxFSzSJDO7jvS0DcbtXpVYWIJDbok38rQ3A2NB10BoHgNraB0CSABHVbiR6Yd0tcge+CRDwbOk5TwL75p4HEKybeCFAsC69+InBrm3AwENXQUIakfOsBoEYcKqAtAygTBr6jx0O/SfiQJPiAALRWHDGUmCZN98OQh8AAgH57hEYCxuMWAU+tc1ECKWwjHRQFQUa1M2b/nna2FaRbVdjWz1+lz7190/v9eAbG5ZqIMeCfafmO9CrLdaCJCFI1beD3jYQSFS86As9B5wAArn9W5/Npc0ZINiAhS31JX46yHtiIIBCJ08M2P4AAwXyHEHKGX8vaWmISRrseMT+oErJ3FMALSES1jcIzJnBMmlCQIETABBkYGgfixBayTw6757C2meZAMayhZSb2lD1oP7a7lceNLRH52bo8Tt2v9Nu/sVmaL0Uq5WweWJwHx9AqKYnCEyrHq8DvfdgUJW64Fgb9eSJAzkZww9E5hNCGYBgKA6s5wX8bwsIYC1/Ts7JwW9pGawyuB7WOODnBAsg4L/DoAH/Gf99ugt2nLEPSM1tOfc62mFJXhiC2d58OQR9AgjgW7wCY+/0hReepJleWXJ8xkXQAl0/f3HOmJ/SW6jdEsGsoJDy7/Rblta98K+t967dtOnwjKyAogdplyLCsBDbKOgu7av4AImXqSNIvLUfdDX3JTZKzgvRSw9RXT844AwQcloB+yFjKf2zhn54zoku2QAWjgCB2DWYIIIABFODYHo5kP41/PSgA9LTIGW6Id7aCBP3mw7ZxHwRQOCbeh8BQjWCA8zEUvtSawLdN6ml6+Sre3CU0x4NEPqd+te+3YnEF5qqyBrEQZIMNWo4IvPxAQi8SHMLlUUjwtdfqV0K+8XhIyXTbzRxZYy+6uKAIUM2DYJFvnnoZ2XMHrfCvIkZoKAYIJAbJtEi5ACChEwgYIKC7C2U2CvgZwYVpHQKsLfDxMOng1xXX8RIbEsQ5OHkua8S4YPzBkYDQBRxCiJ7omc+VGBJZHdEvE9S+q/TU5lWefPgJXMmfV0BUkPRZY8GCKdes/S8xcs2XCNDGiQUz1o9VzNAyJcqlnDP4gFCBmKgDRxHDBOjr7o4EBRAwNEkiZeLrmcNIQnI1TKmlkEl9gmwrQsG7rQd9B49EiSbPFWlsaHPAMFPY0MxyZGCXwsWmGG6MiEFZgzW5/z2gIG3B09xOHrs0YMhsEsAACAASURBVDt337m3oa2ZBtClGBguju7D/AbDOBrGpf1uUFmI9HN/Zg1GTOsvJ9S4ZCbRCFrfkVlf+nCIfESFGw7kAIIlPzkbA6L6t95tHTQIVuwEwz0yP49CkQYBdOMpgWgQMgZppjYBEZsEDBwyIGfS0D50IAzaZQfys/2GHIStAf9t2WGncLOMWNwJCtojUa3c9OEoCAX0Gm9H2ZIkXhZ3224kz1sZi/oiEi3tFkPzki5Ds75p84tnjG0FbG3dA79gzrkQMvaCm1/c7ea/ffMPjSjC2T7igBgKcWGnHY80iGBMmD1qYztk2gdFtgds4hWK0kUHonXQFz4x2KjNGTTaFgcyD31zzWQBghlfwe72KKndWUBLXB51AzhggICwN0NMgnEH7glyvA4Un91k+QFBwfQ5Ght619b59oRQQK8wPgQg1fZQTCLoJg9sEsCsYd2TfrLPyH8HMITQddFjAcLQubfeti7dOkd3yjVPmaZqBwi54bHEWmDb1IgGoaENtF6DwTfL6dAtp9oiKG+TtWkC2GIi5AMES0NgaAeMYElWMCZZS2UzoOZiIuD4CDgmQhogk4btDtgLEs3Nwp+tRBwojrPvE0Dwa02FNeq3m5Ul2gga51vNSAoMRZsXLpkz9hQ3NNRamR4JEC68ZWnbXf9Y+9CmlLwPr76MxrhgNAw0NQbtdyzO+VknizdKlmcIe38S6LF6SPcfGagBWa0t0EqOpxRAYIuJYOZfsFuLE0NamxeD6fVgxEPQjGcJU4NA1qcVJyGThsaOZhi1x24gKdjjyI18l+agd1BQQt2et/iddgo63YX7h7DsiSVcP7MU0UmrmEgWcdJ1lNlikksPM9cLlg8dJGiK6c8dOqr+6M5pvTZVbPAV6ph2zlWILH+7HXratTtvlFr/qetxWZMVXzoTmNTBA33sTxDFkRtZzHrs/Uk4mQ9k+o8GXQ7SfdQDu6KqeRwQAxByNghZl0fL04Zs8LmYCVbsAxxdEYOQbGAl05sBVKxF6Iadv3UYaLGwAASHLdSjBwKB7YV2BR4Ow/xJLV7P3oFSMAvHKaARb8+l9aG5Xiy+1EEKWvWtU589Y/vXePur1no9EiBM+8nD57+9OvMHnbgr+MOCagUIhYJsT8xHF3JbUBzyfqdDpmM46HVN9KpRidBxwH5wYE8D/JG/YwiahOtZ7RQBBNJgLt9D1q3RAgjWoUhiImjkmUFOp6D/xAnQd8wI5mjd4g/CEtkTBQAEv54QcMRD8XwIRnRFPiE4AQSDL8UACucAGdeaOfPeo4beEsxIw9OLP6djeMbnSMnAM25H61AjUVHm4rHTk7uIHFY4AASbXQEeP6uGQa9vhlTvASBpMcCpVKOv+jhADAXtAMFACmQgjh4N9lDM+GDPi4+QG382pLJpsCjr6SwIQZqVt4HkhDYjK2ZATnVDx8D+MGTqlFxUxRIs9XwQUnM1eN8z/DM2zJnseeZDwCIr2tgwX49qAgAXcRCsYWPpb5O3wN9PHdPjzsseN+DTf/fY5MX/Sr2Bb7cy2A8t74udZR1VK0AodpksL0K6pIDa0Q+0+uaS8dpZ+BaVDZ4DgQEE7PFgPj8QgGABEQsgYFsELQV1iTiM2mcaKMkkyDhluP0zwYgQKOo3QMgCJ3OoIqfWlhxJCC9E0lauLZMn1qyKoN0OEEjSKMYPe+fImg4zR2kTfrnv8HcZq1d1cXZuVfVwAYae+den1+j1B0ooBpqsgaJbNggRQOCZWtoTBDbzkaEBtvUfCBBLmHnheXqK6lSKA0EBBAVlsl4MxEjR8nDAYAEbL+o4kVMalMw2GLXvXtDQ0V7EEqG3ZZ8BAuGriBPQQTCqJXtiIemGrDG/HpVdGp4BAgKQEYI2+atnXjhtyoxKrcNK9NujAMI51z7aftur6rMAaCcuZot4W3TZcbW6UuIFbt+kcex8vLjUeAPJ6KglcEY+OSyBJFzORs8uVnToWi6KhU8MJpuy+RmybozmD1nbBXwwmlkbLQ8GUjaXzAnHRLD6xS6P5GmLGCtmALQ09OrbAYN32wlwMBuOS2HxhPqUHMm/J4R8zYlQYOSzuNsp90p3/iNpMbRw076RqK/0hyELlte4Am/MHJzZv3P6iA0+syg0zfcogDBq3k2Hrsk0PqSiZJxrBiKAwMw2zYymJ4ECmpIErdcgUGP1EUBg5mRlK5TyaLBiIuQbNBrX4uzfZTM9Wh4NBkAwytjiIdgAAo6JoBNXSAA7QMART5HaTfIzTD7yUMBPWEJiJvkEEPwyNoziFRjrwQ4QeJ4PcBt0gGDY3MhSJj1Q3XDUE2dNeaKyqzG43nsUQBh0zkNnr+1K/1lGNNfGEmyh6gPF6gtp3QUzeU5jcj9OEjUXh7GWABI6QFpJQrp9EKBkgxkgJ9ImBLfc+XuiAgTjtCcd5GkQbH+f836wAwRTM5CnQQCQSNAkwwUyCxCssMxaCuRUGvpNHg99ho8Q44jkpIagLUAndhYuDVHuiVZfZvu8hyG/BLivWbgvFbKE1xuh1K5j/X0pnuTTU9yKJa8lR0ieGHRQQYG+Sf3852YPudo9N6q7ZDBnTEh4NHT+HV+sSTf0pwsE5ytYgBoGgnzdn9OCZ4Dd+wEToEs6xDQZMrEkZFr7gFbfSPIFBhFLXzADelxz1JgIRCR4AIIZTbHIfRLbHRiZHklMBM3SNBgZHnFUxea2Bhi51170hVAqOZKA9RrFKyheCiLjFdhbd/RGcMg1U0hR3j7JOOeFTxS9lG3fPH/quD49ZQPoMQChc9FLAy9/4ovPFMnFm6WbbGtOEsIofF6FrNoAAg6KY2TKlKBLlgC1DgS1sQUkbKgQfaHmQGFMhNyfrYiIxQDBUB5Y4ZTxvFsxEewahNzvWQ2DBRb0DEjE9sA0WMR/T4wVVWKsmIwpMHzqVKhrwy7LZT6/AIINFAmfvCheQRFLScSMrEbGfQA3FoBAs1nQEYLTJtYNuGRq3y+Fz3kIG+wxO/N259665JOulhnE0Mn+3uioRqSwhVyUOEKokirirv20yePRkLqXUdo4HFR5CEdXNN+e8WEhxUFq6oCupg5AEtYklOKre6qikv5xIBvPwBb8yMqjgMU6m6zJToJlV0AMGnOeCVk1c9YWwRaAyUzQZKxVHRB2byQqKAMsGHERMiClMjBq18nQOKhfrsdSFouOi4Umw7lm84wNrTXsvnrpSbHRm9eciLb9EwXSch5LBTyl5A/ZaJ38nfWskvsbx/23lGa43BMDDRAUslAHHQbH0w89dfKYo3xmbyiap50xoSDSKxFLEYode+bdK7ZA/TC8MSl2Yea69ZeIoEYltCe5UroL84yt0zPtfUFt6AtG5PMeIZJUSQlrAcvlMf/JwXhyIp4JhQcFDSCYAzWCJplAgNgdpLNujuR5gRwU5vMCyc2gAqTT0DagFwyburMNIDjcLMnp7u3EDcIbgfWwqrSM+BfQKNcyC08wQKA+HxcwjaV9AookDVRAq36zx/Cxh42RUpWeA7/77xG78Q7fWzT7o3WJWzJITuCFzqJycp6ACCDQBdMdQMDtaCCD1tQOmabeAJJ71SGdhqiEaA7YYyKQM9uWkVEkQHCMiWADCMR7AodgVlMw8VuHgIQ1UDhsug/ZE32NV1Clz2uhjFfgEiCwggL7GsIwUwGUHpHoPv3B2WMXiV5fYWuvRwCEvmc/ecmWrq4ruJjPpWHAOyfnQcfbH8fgKhtrIR9A4Lc91NgG3S2DyV1PCpAPHKzrsVUcYyIYSCE/7LLJobxnh6x2IRfzwHhqsGIiWHkZTG2B6dkgaYY2ARss4vJGTAQMEDIAagpG7TAOGoYPA5lc8/nWnaUhIFkTvSkb8mWjYB/wcjgFLXT+xSsojn7phuU0d8RS/BHJc2xoLWsIkhJcsuyM4b8Oek6C7q9HAIQh59y/Yu02aRQXc3kPqgggUNidDxDwIkYgg9rYBpmWPgDYvz36QscB3wCC3YvBcnk0tROGy6PxhIFBQhYgmEGTkokYjJ8x3Yyt4REgCHhLz5u0CCAQduQ/8uR7ibk9wMMAEAxXSgl6xbs/euGUUSNDt0AFE1TzAGHpR6jtW50Prs8lnWXkYAQQGBnmtnjxEwTZRCQEmXgL6O39ozTRblkZcDlHl0fz8M4+OzhpEExNg2HYaMy/pUEgP2G7AquMGQOBJFTT0gQU4LIyINCIy6MGJGiSloakpsHQfXeHutYmW/I1RqbYEkwx1ixbPApoZE6pzQqEN4aDW4DgFnDwzDOmHcdEAFmGRbsOSk6cKBkZxmr0q3mAsM+PFi35x5d1MxRdTMC1IjngNYCqAg0DHmulXCnT9Y2gtvYDJMUER2av0ZUc4LCcYyLYQiXbszni5wP7rdzKr+AIEHKhlnMGizhokgoIcCInDBJ0MyaCLfRyuguG7DAWmoePhHhh8iYCQoqZI+YQcbZFEtO2/xMaZLwCNzzJ7TXsxtxu2nfFUYZ9eYfWLc/decy4A1y1W6WFahogPP4BSp7wy/u2apKkSAwTzzSXEUBgYpfbwnjBZ5KNoLX1BV1Juq0WlQuAA/bN2B7bIOvyWAAQLJLyDBpN4JCvQbBplWz5HmRNBZ1kejQBQjYvg5mbQe+Gjv59YMjOuzh7K/gWr8AACMIOpwDmzt4Fb0RDGpm5eAVsAedYAIJvPGc4JxQ9o5+5z7CG82vYm6GmAcJBP7lr/t8/bbpOk9KSLCSji8PS4AYIbIsn2zPvkwdtVZf4vVIaBE0yVHmqUg/p3oMBZGyTQMwXOUcSVRPFASpAILYDRm92t7McQMgFTeICCCRgkj0mQjdIqgaTDzsU9JiDfNjoEcUD0o75Hu3bYSWU2OLGIoDgwGAGgKDqgKa1dJ91y/GjbvF5qirWfM3utgghaeCZi363Vq+7QCYZBQMeKu9BziCgjlLDC1g4RTAIAJGKJQC19gU9UQdgy6MR9JRysqgmq1mHYk6DYA7TNCYkngklYyLkPB7sAME4dM16WQ0CjolgpIEmoZzxE4MZURFHVTS8GVSQM2kYMXk8NA0dmuO3SIND27qsNkDgnzcCX7wCt7YE9oUjjOde91cbUfjZq0GGq1+dM+wCSfI3LF2lNpGAT83ghnn0r+7v9e8vYdmnm5XhCmhgPTEIEzTaUCKAQOOQ699jugbd8XrQ2vuDqtQZ/u7WBc51K1FBkRywAwSrXesQz7ouCgIIClJNzwVngIBjIkhaBnQtBTvNPDwLTEQCyGo1NsRzwufX4Swtdm+EqjQ2FAgQMGBtr0crxrTDbjcdMmSdyPUVlrZqFiBM/8Vz415bueE9VVKIqtqK0BccQKB59pb4nbqr0aaMxLylfDTaaPVzv7uJHk0lxwW1xP89loR0S1/QSSZIrOH12rL7cUYl8zmQW0eWLOWSLrkBCIY2wDxu7Eme7BoEU6MgI42kfiaJm3QjXDMJlETCMOOnBhVASxOQMH7fPaGuqYnIBpuUF8hSAbjhPQyDkBs75flkGxxgWSVO4Y5tKhkrH5ex/kq0TON8yd8LJozEpOD+sH2IU2UWbtA2JgViKA1j+9ePu/vwPv/lJjXEFQVyK1yj3Pd/7nv4tVXSTIkSmS8wwFDInkppGMiO4T7KoddZFR2MKa0oILUMhFSykbi8GRsV4y7odVBRfQfDPJvrIj60HZ4YHIMmEW8G8yAzXRuNNWkmgSITbP43zu6IEzWRUMz4qcF8bjABAqhpGDBmOPQbO9awfmDZ3aJ4BUSqS2VMNLCauwOb5wmBpX1Xy0+kpqBEhzJCoEoyTGne8ODtx0042hVdVVaIZQlVzdAWL0eJ+b++O5WBOmaa3S4C5oYjgOCZZQQHIABVjoPe0hsydc045GIEEIRwlq+RPE2C5bpoAoTCTb8omZMVEMkOEEwySEwE60AyAQJO9lQIEIygSbisCqBmoKNvBwycMgliksIEEKr1CcFYE+4ObjczbAcIvFoTtwDB1702CICgy6DJOHbnFrh5h9GJXXaRMm54XE1lahIgHPl/j819eoX6F8NsxNvi8VWIy0oKuy+wcZ3m9I6w0xKghgF3y2LoiOcUD1GXZEi19Aatsd0ImIP/Ev8vgI2hmha437Q6AQQjCJK57mgxEQo1CFmAYGkQCjQTWIMAWJNgZXq0vBl08syg6BqMP3hvUJSGXLjuEmuicmvb/awUrmZjS/O2p1m958CAe2PDPI0gh0G0MJ6HYp1jbiAS3G1ary1n3jhzfM15M9QcQOjsRPJvV96xWFcaj+WNy25fvsIE2v2eYG2RzhFeaO3UOECwD18FCfSWvqDVt4AuW06QIk2yaMyOfvcfIOA92IiDKmGwkQUIdhsEM2gStkNQMzBy5x2gqf+g3FNaDQGEQq2MFwmMAIIX7uXXTWQ23bts3vgTas2boeYAwlGdDwx/+Sv5qS1d0lj8Ru3N0KVYgIIDDJEGgbZ8cXpoVZdBb+4NqLkdcGI8sTbbNAqi3+0AIfeEYDM+pARNMh6IDNdGYoRo1yBk/4DBgJmLQccGixnDSNGyc8BeDNh4EedmyKQhnojBdjMOLNIgBLd2BcoFsTkWozEopIonoBGrBsE3nodCg5DjaKMsvbtjfdchN5wwapXA2a94UzUHEPqedfeeWzL6S1qsAbARCYv6mmc2fFsAbojhfQrwurg4VItuhlOqDHUOkQ7dzR2AGvoBkskxBUjGB0rNibcXNvpW11gD2Ka9OKwyCY1cpBK3PBiwkixn0GgHCNmbspXEye7xQLwY0rmYCRq2QTDzM2RUkNU0TDxwL4C6Rt/G7EfD/sUryLXMsl+5tSXIoTpR1zHnENZ+8FxYm3oGEpDa+/Wzxr0krM0QNFRzO+huP3r0uuVfqgtUJAMW8GAGmEP4gp4H3YlGBBAInwwjLR1SjW2gNfcFLRYDCVsP8fLHHfejUtZt3w4Q7OmSS6SAzoZkJnPnEiAYiMGwbcCJm0oABBw0Seruhl6jh8LACROrZo6ieAX2qao+gIDdcEc3S9c9dPzgc6pG6FwQGsz56YIQUUUaZi9EKNFCDNZwgJVSvrqi+nNqhwWle6KD9wCsNQ0C4FtqDBDSiGeD3qsX6ChJPByiz38O2DUI2Zu/eaAL0yCQYZiah3IAAWmgqCo09GqDYTtPAdkheZP/HGHvIQII1Q0QkKaConajt84eV1NGUDW1gx7z66dnP7V800IAHLc/PF9ggKFwyJUCEORaH2CsBVtsKAQaaIk2UNv6g6YYaxUHzRHpChYeyQoHJUXybfdMMAMbFYmm9RyRl+kxl5Q9CyzyYiLkgjGROAjEYDEDgO0crMBLWgZAS4EiaTBq2lRoaO4FeoCyWGpG7N4IIvaDKF5BZWWfpB+3k0C0ZTLs22/bcdd8a+x9laVOXO81BRB6z130t21qw95+GfWIYruIDcIVLbwbo1cNQwUBgirrENMQZBLNkOnoTzJBKnoGdClcoNHV/FVRoTyZLgAI1jDsZZxjIuQDBAPdYbsGw0gxq0EwAyXh2AfY5REDBCOiIn5+wIAhAzho0rgpUyDRrz95avTHzI9tgkSC1KDiFfi+V4nYa9imgbk05oETH/IiWIIOOopDs77+hX/On7gfcychrVAzAOHUX78w4vEP1j+dykijrO0grOkzfF90lrBRGeBXuGczolFZoRe3ZdvDPWsyfp9WAAfVSdfVA2oZACiWNL1ZakbcQ7mdZOVaJEDAM2cd/tYTQzbUMgYUGCBYIZcNN0jyj5qCZLIOxh64b2DKrPwDo2CKMM2cs+YU/thuDlgqoFGuP+e15uYi5X2voow6zIbEpnaLQFMH4zL7yPCZg/WVyRis2Lvv1hm/P3S7jzmnO1TVeGU2VIPAxAw4c/HRW5B0jwqKgszwytj6nXpGhmAk3hch7yA4GVQlsRZ0pIIarwepbSBkYvVlosfz8i+ql69ltWL/G/dbItdmDAPyF9SgSQ4aBBJp2RY0yQQJkmZEUDSCJmEXR0uDYEZWVNMkw+OEQ6aDHMe5O8QBUqdZLwpPhm+dAsTD1JuYLbn3RsD7XnZz59AkCtuTqkBDUGqaiEwxfgqoWgNsPP6VsyY/wFg1lMVrBiBM/MGTv/vo6+4LNQkjdWNY1QIQCiVD2OKkilxtAwQSdRE0yCgJgNbBkEk2gIRvnELz21GZ3GMKWHKLU0BnAYI9p4JDTISc1gGv21w955gIZlTFbC4GHEHTiImQbUfDmVtVQFoGpEwKOoYPhcHbb+86jwDvZIl8PsgDXSa0Mcbn3v6NBSD4ut9UCUBwekbgOhwlgKHN8pWPHz/oB7yyFKZ6XDwI0wAsWtrn3tPVpSXqcNhLa1B21XMpmqk+9iEYrK8LmHbPKamC8ao6pNyvBKh+DKiIlX8SIDkBaks/UOsbDJUz8XAQcccLgYCEiAQsq/kAgaA0Q3vj9JZr2RaQVylDg0DasAVNMuwQLBsEQ1OQM2I0XB5zAAE/MWjEDkHKZKChqQFG7zkNQFEI/BCx4RUap3lhv9PzgcGDXKvGf+L/d6be6akgv2SBnAvSbrhLdiGC4144XKJuEQ8sOfXWF5bDeujevGzu2BZvLYWjdkhnj405P1n4r32uem71CzwHqcKuRWIjTkBpnnEJ6NZogkM9aexn7m87jrQKDsaENQkqigNq7w9qXRMAUkAS3IcwnldxQ8UAIXfaObo8ugEI1jMDeV4wnxIsAIHBgpayAQRspGgETcIxEWRdhRG77gRNvfuAJrHl/Sh5qbD94HVtlvJGYGmXNaARS9tlRVHEU2OFZN14/hJ/QcAgWJYkOHH7xB4/3q3fKxUanrBuawIgDF5wz9vfZOJcUVGqASA4zbawRU4TpRoBCDLO5SNroEtJUFt6kfwNEoPKlsam6HeDA3aAYP3Z2oiFAQTSsHm0YnczO0DAwEDFSfWwFkEDKZ2CQTtOhI7Bg0GXJU+RVa015xH65olKUN4I2bkQKahVCBBI9k/z8+vww1tmc2zzmy+fMWEnkeyuRFt+8SiwsVz17OpBnff85410KtOnqFMBauqwA4jAgEKpGa0UgPCg3cAoP9PSB9TGDuL+iN+sWd53AxPuKuyoSB5tRop5tgLZTdpUoBfe6Oz1cLjmbAppK+aBudHjG5tm2CJgLRExhDQzPVreDA2N9TBq791BwsbLFKv5sMUrwM8HbrwNCkVF+L7gVSNYAVm27AqCPeTwA5sEdbr+9TnT2nect0PTVxUYurAug+WdMLJzDY04547vfJFq+T0gJwm2m/LydR52gGAkrOEbm5BaVQcQ8PLVQEMJkuRJa2gnAZX8MjITwuMqaoQOEMhd1naLcwkQCIAw00hn/9t4vigNEPAzQwogk4GdDj4Q1ESMmp8jAgglhK0KAIITKDI0WsF+uE9Fimsd8NW3nz9r8nXB9i62t6B5J5Z6ABj7vSVXf7Im/W1JzrlI5TrpCQAhn6XCbw60GasygEA8GzDNSAYdIVBxJsgmHG2v6pcCbaYC+z1PBgs0CBYROY8HG0DI/ZjnHmkZLCJif1Bsg2AABBVAMjQISLOyP6qAdOzuqEJL//4weOcdQaZpEASjba9PCG41CL6v+yoBCE58CHZl4zwS2PZFgd4t6PfPzRp6UWALz4eOguWd6AF0dsr9Pt9hw8ZMvJnbIt3jM0Q1uFL6vnmUndcQu1Liw0LSINXcG6C+HTRZARmwb31ctKT2qPbs8ka8SKxD1wILRuQZwhNLfZ4PKgxPiCyIMO0NsoZldm0CbkPVjIiKYKZ9zoZdxlkecdCkDCTjMoyfvi9Icn5ETVFrgzdeQZ4XFSPYFkW78exSpUdBiSiHgS84JBW50jbJ3dteXT26GToZJzZw4kt3WKVSYQyo8753pl3x6IpX8Bmv8x70vPVMnlYDQCicfmEbiytBDi9AwBHoZNBIroZ0fRtAcx9QZaVat0pXsxFEoZIAwYqJ4AAQMF05IEEBCKSwqTG0nhgIQMCWqKoZoAlvCoa7I2gZkJEKI3beGZp69/aFBRZAMMbg3oyRBSD4tm6rCCAYPCjyAfVlTt02agDX4qNUknSYP6n3lPN3bXzDbVthK1fVAGHseQu/+XRbay+80SMJbxAcn0eAQAKSlLEBCCODfdtoHNkfXoCA7Q50kA1AgNKQbugNgO0SlFhZv3MOKetRVcoDBFN7kFXl596IaQAhFw/B8mIwDBZlDce6sABCxkzboJsAAcdFMHIzDBwzFvqMHknmonRUAbapspZ+9t8RQGBjIGNpy/DQXq2Se6whxs4AAUPYwfI3Hz5z1k6jGIcZmuKV5K0nJvxk4d+HXfXs2o99P+w8Agg8yLAbOvrOQ9pM82rgvL6L2uIgYNNFBemQSbSA3toH1HiCrHseC3LacHvK74aBmO2JwVATlAmaZHNBQ7noiHlBk7KhlwsMFq0nC8vlMZu4yQi9jIMmNTbXw+hpuwOSJRITgSV9l9d4BW5tCeyyIWxdel0nFRRYnnDHfpJbqMBw7Ct7ZiBQJRnO2iE54JKpfb/0ky6/2q5agLDDBfde9sGm+A/9Yky23R4AEAp5KGxjcjs5IQAIWAul4DdsQJBKNIHaPhCQFK+OZB5u+RxwOQsgWN1mbQhKRFW02yPgqIqFNgjZdiw3RkvVnDVctAdNwtEWNUAqtkPA3gwZkDQVJh08A0CRQcWW5gz8qGpjwyoDCHYtQaUPqKK90E1yKevMQNg7Sochia6fP3H6uJ8yiFtoilaa/1yM6Fy8PHH985/cvK4rc3K5BsQMjhYSmD4EJ4wR5hDPRWlmfHejpPG41O+UGaYu5nx3O/zcgD8JMpBJNILW2pdkgjTelPE/VRB2ky6OgZUofi/OxS5wCpqUZ7Boi5Ro8d1yRTVulVYCJ/O5wTRMlDT8xICVu+bvmgkQkBE0qWPYUBgyYRxo2P7EJj52SXACzOV+N2SGvkgcy4gKe5xFT05rQsxO6JfgOF1IsuDQr05LtWtOY95s5nm22HnpMOcFrMZV6xV0TgmLPQAAIABJREFU28wRQ+d2Tud9Bw+aCbn+wi05Jfiy/cU3D/l6a+v7G40UfSU/AZd/+sxwdoIj+1UL8wPXKBRyPWANAwZIii5BKhEDvb0/aIl6w86EfgbQ5aUHlSi+feUMC+kAwW6IZrkwm/kcLICAeWl5NJibuKypoOtp813YDJpEQi9jb4a0ERPhsINIgCz7AsyPr5e/Mt3IP88TgkG+SKHCLnbVsqvkFoKlMQgF5Q7eCLwHDN5H8CNbq5Te1Du2ZcKjp03+rNqWfyjmhJVp+//i2f1f/aj7WQ37PZdB4JxnNxs5nJ1UE0BwulGxMclj6YABAt5ksQUyNmFUYzg0c19AdQ1Vufl65Lzn6nkHoM3zIBfboETQJOvwJ//OBwjkr/Chb6Z+zsZGwHoe4sWAQy0bBoxGTASc4VEDpKVBymgwYpedoKVPn7yz1AIIxnnNvi26BQhiAUERkq4KGbWHO7aPgJ3rnsWTNJAvowxUUPZ+AhCIpxTA5N7ygQuPHvysGIqDa4WBG8ERRetpuwvu+uijLU3DS6l8WRYh5/lOIzH/d45OcJUwP0PkD7DS0Rw5r/cu3LvwDQADUVTfAZm2fmYkPqegXGwi0VNKl/RoyMZGsD0VGPm5zcPdHivBMnQ0NAgGQLCMFPGfcm1IKo5jkSEBlbJaCuLuaLo8ptPQd9QQGDB+IonKbHx0+WVxR/QNULuQ19DKVYjjFZTkGce+XTT3JtwcmUx9/cipY/qFdn5KEFZ1AOGixcs7rn/qg7XGkeDsbxwBhODFkIXnwqnj1f9TNlzDo10HXYLNx+3SMf+xj+u+vVlq3FOVZZ5LpvBhV0ODzADBuNIZQCEbTKkUQLDKFAIEw+4gBxAsl0cjJkJjayOM2nUaICVnpkiT33AABPfxFcIgG8VPTCKfUzhHKPAJgYUCpKXg1Al9On60d9t6lnqVLlt1AGHS+Xde8d7m5kskhut1ucUvACTS55Cjk+rSIBSzgLbh0pnGUMIngIApkJEOMehadcX540dvig9OXL5o9Z/Xo7pTcXCl6KNzoCRAMIGAoRHAN/iCeBn4eu8GIJB2jKdGMl847LKpQcBaA8NzAgME/A9OBZ0BSc3A2H32hXhDA30AZgkWgOCb7FeRN0LhM0KlV0t2TlhsNDj27VICpSMZxsW/+eWDp0/+H9dCF4KClZ43JhZ0Ll0a+/WdWx7UdHQ4U8WCwiwLWKCMlCaZs5Owx1ewD5iF517mtmRdDjsGvDh0pMD+I7qvfqxz1vm47euXLYt3Pph+eq3WvK+GdNCZnOV8GVnoG825K1rvvSYYwHES7AAhT2CcYiLknhiMoggQARI5gGDP1SDp2KPBjKiIy5BnBhWkdBoGjRoKrWPHE+NTEnHb7NutLYEvsl1FAKBQ6EIXr4DqcOQ9Tw9t4RnbuhWCOQOKnnz00o5BR51wAjaeq46vqgDCTj94ZNKqjei5rRnoEMneatQw4PFXE0Ao2lCEWm+7kAYOgGDwOAN/+u5+TXMm9d9q9dKJkHzdpS9dvUHqc3ZKVatL7+uCVaKL2AGCeaxn7QZKAQR8UOfqWTERygAEi2hLW4BtECyAQOIk4FgI5tNDJgMSqDBpxiGQlg1bH+ti6RYg+AJ4qwwg5Bv3Vfb5oPg5g3a0+QcQsnKLYafJFgwWkjJ8MTy+ecZ9p09cLnqN+dUejYt+9cvVbu/5D03fqqHnStkecDVKcTXivNyzkcLZSQQQGNjMBRAQjOuA19646ripTj1N+vlz9769re8xVeSxysAwcUULAQK5+ZuGhcEABGJqCkjFxosaCZgkZdIwauruEO/TBjGsWDBhXgQQ3M+75Z5o3JMr+4USINieM2QiYCokpNj+ry8YvLSy3HLfe6Xn1T2lADD+gvv+/tHm+B5+P/+y3A44z3amcZdN9lCmpWoCECw8Z2Oey9IOAAIfFr2bkid/cs3MO0u1svOVr//63Y2Jc7s0ucGysCe35KpaWS55xFmseG5NuwB8sJhREAvL2DUIln2B8W9Dd2y4SZpPDKWCJiEVkGZ4NJAP2yGQP2sAagra+/SBIVN2dJVcSah8Vqk3gmVXEArRrpCxYd4SIPNoeMDQeIIBqgZxGBrf+uRTZ4w7lHMpBV6NNq7ACSrV4eLFSDnjiYdVzR7+LCDqoieIgBht60bohuyGfAeA0JiAjTsPkI548mfHvFSqieMXL1Yya7a78NHPld/oau7hMwIIxRzLzWkxQCCgyvbslAcQjB9NQ0Q7QDD6QDp+OrBC4JkeDcS+ASdqwr8ZdUhMBPJn/NyQhubGJhi6604gxxNFG7yv8lclAKGnxCtwsz0UljGMX3PHJ/UgxWGXQcPIFr09f3jVPEtSx8XDPD/q7HHp45e/9Zn6A61CrK1GkEB19HCBfP2YS7dt+rpJFxJhUwUZ8c8AkpL2yuXnHb/vgl0kHHmn7HfczW/MfXJl7FfbVKkPuVVkV1bVLDHaED3/7gQQ8MGejW1g3fTN0MUk5Lf1tG1lyTHL2BM45YImFYRdJgABawxMTwmiQTABgp4BOZ2BkbvvAsn2jiJTU2+yR5lzzmBMnifATQM2kKY72AkFKs0FZg15IeBZELgINa8TLQwAwTCGJbAXdmzs/uVdJ4+tCm+GQOfbjXw6lUEISU3zHnsN6emddQmn4q38x7KBiJBP6og5Oqk2V0oWnlP5VaYAkjTQpQRM65u6+oUrjifeC7QPaxK6t+107HPvbb2rC+MLyUCyBtSoimVGG6Ln3+0AIashsB9CJDqi+ZEd1RYY3zzkrXr5AMFmsm55NGDggaMqgkqiKGZTRROAYLg8YjuEAaOHQa9R48Tm2agyY0P7xIbGGyEMTwgWYzjjsJVaMHWQfn3mvFFTO3G41pB/VbFzHfjLp6ctW515pEtVe4eV4GrUMFQbQChcS34BBrwfxEGHGy85pvmEidIWljX88+c/3PtXj667Q40lhhqv5BFAyO6zWTCAuZLzUjCQlOmOaAcI1n9nYyLk6tEAAtZKSDgOAljPDGZ/ZlRF8vyQSYMkIZi4/4FsuZ9pAlFFACGKV1A8mU77isSisaDIR1KGNRMbN8+8/aSJr9JEqdK/h/W8zeNLr7MfPrUrjf6qSfgdp7LuNG4njOXw4rj8uyUj/0bmUIvWN/WZgp0S32qw8LwcEboEMLZF+/e//3jcJB5ip13zzpS3Pt64JB1v6mUFBZSqRnJ5Ruy+Ts6joSA4EnlqsCIm5t1pbZoEM1kTLkuMFS0Ng6l8Jsw2YyKYTxcIp/A27RBI35YGAamAwzJDOg3j9pwKSmsr6VTJf1p2Hhj1sAjvtlps7V/Z/bToFaOQHNoG5V70SpY0Dn/bA4ZgljgZ4DYpmTmvzh1zuwDyfW0ivJJsG/Z2339i6UfrMvv5ygnBjbMcVgGsAWwcwzXCnugJocoIRvZu2++9X+//AhfTAODG5Rs7Lrzl3eXblPr+JFgKzh5YJeCWd8xu6tldHsl/W1EwTYCA2yg+xKw00cTGi/xODL5s/DSMxuxBk6w/Y02C4cmQAwhGAidisJhKQ0NHM4zadTfAF39CDm1XrCINQeGchOYJwSTMZnbiLD6c+5YbWbTKWNoBlj2bpf3CdrGYDm7IPP70nNGeAv6x0MBblrYUeNsVVm8pQrEj5z2QSaNw2B7wDqwanyDIjSr0r2SlZ4R3wTfUaetGNXXv/epvT3mHd75xvXGXvjRuHUo+9o3ePEpCGfO5wUuL1V/XDhAIGLA0AWUAQs5ewQAI5MNPBE4AIevyaAIE3QiYlAUIJICSang+4LLpFNQlEjBq6lSQG5LuGFxlAMH+jFDpDb8Y/FEo8gkg5HnMUDVC7sTCXqrs3oMQxJEOb549QpFCbodQaXmhcn72757tvP/tbT9FpqD4JC9UOkQXYDm8AhkzZyfVBCDc8jyZgMXXzzhqtqiQqMN++nxqdXd7QpfjgIGCostQCXdd0TLM056zdsA49LHNADn7C/TOdoCQe1bIPTFknyasOAnWuw4BC8aTg5Hu2fRosLQNGCToaZKbYfCk7aCt72BjSNZaqDIgYM0HBgSh2djDYGxoo8EvvrjdW4w5woazMuzXP/XDPx01/gqedRRUHb/4JYR+hJDca969X2yV6vtavsyEYD5tuRCaRDbiVqg4z242Ujk7qSqAYHebK8OdYe3pK9/9/Yk/YGNg6dK7Xrm0/zep9ns/2RrbE3s3IIS9JnOZBEX1Uy3t5Mm9GfDIFUAw0IMxTHs9K9gS+XvLBgH/IR8gYPsDZJY1jCJNN0g1DQNGDINeo8eCEYTN6qNCPtWME1mswjZMYyv3WfwzqHAdVZ1zDyo/TsOoxKJBHF/yDyHXYyRSadjS1OuZr18/Z8yAMGsRxPHLB2mc9esn9nv4A+kxDaUaJDO1cxbcs8yID7SJbjJ6ghDNUXp7pXh+yVHD2zuP3mkDvQX3Jfb70/KmTPfW1/+xpnGshr0gzYiA7luorZJZ3jsABONQyW3AzkGT8jUIFneyQZNIdTtAMLM5mtoD8hZvAgRJy4ACMow5aH+Sl0GuMoDgFNCokht7PgBkoMQHgGDYpuRoYKCm7IJze7lzagSneJMgBjEJth08UD/yN0cMeyasq1sUv3wZ34C5D/54rQz/JyEc6ay82gDhm4P5+SBnvoyP1ihNCAMfJ0eH1eJKifN7YGQ/uC794Yrrjh9Fmxue32dev6xh5ebkLe9/Ix+PzfOwF7Qu44Mu1MuQZ6jUOllbBLKuTY8GWkwEW9AkC2ARg0WbpVvOCM+M1kjiIRhAAaeBznvGwDkZzKcHKZ2CcXtNhVhTR1XMRiiMDc2Dl7ZPEWHg2DuoQlRYQHC8gqLmBV9K8ZmWhM0/+deCHX7FPNaAKoR2Z9qvc2ls1Rb1sS82pA4yAo/RSLWnh3WwhA6IoX52U/Q2G/RTC8cirxaAgN8EdVmFvca0TVvy4/19808+6pY32ralmn767EfdFxreVTjqYnWoskXKtiNAMFQHRjeFQZOs38ghYLk5GuucChB0I+wyiYmA3RwtDQUBCLrxW7ob6pqbYMzue4byBTOU8QpYjPs49g6avBXvh7QzgtZi/u+ugA9bk9nSVtu94vpjA5pHHHlPSFNAi+UoJ7Ocqs3sfKTh+U/VrRlUDyCpHADBCV4KJLACTVUrQKDtDeEQQgXqlW2bOxRt5H9vmP2N39O78+/e/vmbn+uX6DGUBNTz7BFKAgQLCDgChFxOBqJRxOCKvOfacmDgpwMDAhh2CiRgkun+iF0jsaGimWAHPzFgjQLRImRSoEgyjN93H4B4PARahHz0r+Mx2L5Kr5lC1T11vdA2AWoDxQVqASDUaSnYfnRr0+0H59LJc7DCtyqVlrOSAzv68ucvfmLl1t+KGnn0BCGKk2Xa4dwEwmDoqEs6tCZjt559YvO8zunTjWumj99Vi1fXL1q95vQ3P9evVeNx8kxK7GxYbmU+0hdE08bt3zzOSUwEK95BiaBJZrhlXIMc+qYmQMKaAdtnqN9zAMHKxUDAgpbK1iNggQARzQiapGZg0MTx0DpkqBEwKQgmlOgjFE8IeTylMINz7bOwGMcrCOJWz0KT27Kl6MYA96AB2378xyMnXua2rSDLhRIg4NwLvec+oG+VXfolu+JY9AThik1eCnFuEqEACIBggLyu88Obz/qZFxaw1p36m9dOeuML6ZZMvD5Js7NhbTvs5e0AgRz2JPiR+YTgGFWRhJwynhXsN2riFZL7sgDB1DJkAQJ2/7MDBJLV0UzehDSQMhkYOGwYtI0ZDTL1SVM8d6N4BcU8zTNW9QE8+wU43LaLzRU79PXw8jmTZAnH/Q7ZF0qAcPKVS/Z84L3MS7pQzWsB74umwlBX4i9808QnNTQhDXycJTqk0RFIuGdZz5y0e69xN87b9yM+bvPVwmnML37n7yeu70ou3CrVEfdHI0pgKJcm3yBL1CqST7uhMc6j4GAU5pjkiQRNMj4SadHSIBQCBBJqOWM8KZDnB2wlit0iTW8HNQ0JWYHR++0BipQQOlanxorHX8HzAd/O7TqTcqTQFiwv50waiiRfIFtoeyIv6VY91vYRkkCWEBzQb+tuVx898Z9e+xddP5S7UP/Tb/vT+kS/c0kWtsA+fDOxcs0H1qmvHbkRVr/WuuPAODsLQsPQonR3f3HTrHpfJ6RM4ztd8eouKzfI/9yEmiXsntcT3CDFAQS7B5NeHiAQmwMjgRPp3wQTJLqilgbszTDxAGyH0ECcUf38QhPQyLACd6++51zHVF6GLqARleK8Am7228IWMUAAHUErbL721fN2OI+tR/9L+7sCOOg/+Y+PtzyzInb/uu70AYoPKqXSJOV8ZHpSrAW/1nq1AYRZ0wYeetPZU5/kEFlhVcb+79ITtyptt3zWFa8P3cIUNsr8hvI21QINgtOtzDkmQj5AIPVIzoZc4ibDJsHIGIkBgqFFMLUN2fDLGZLhsbm9HYZM3RVE7j+kL0eNiE+MddFslh4TILioYhQRvGnk6AhXvAIaP3gAQVGbyIiJ0pCQl+zYu+u4m48cv5nWb5C/h24f6nPK7aO31dW/l4FmRcbeCyH6asnQ0a1wC94L6LPJ0SF+guCoBhoxDETQJKVhzc0nhmItTP3Vi2NXZ1pe/bJLaTOos/6fzrpqLJH3xmwGjzIs5LNBD8xbvjk6a6ItGwTT5THrFWF5NNgPZCsYEy6rYjCBXR5xlkfzGYM8PeDwVbrhzZDuhvEH7w+SUudZhxAKY0MrW6EbVT3PQmIVPJ/zu7jd21jJ9qtdTEdST6sNSmr8ywt2WMlKl5/lQ7Ep2gc4/bIX5r/84ebrSYatkFFnAQR7NFY/J8fPtt0KexD7Rd44OTrkBQg4vwdOFjSwveHGlVcdOs9PfrO0fcjVr+335rrkTV93ySONwKy1GyeBDhBKxETwBBBw0CTDxdEAI9iRwQAIoKYAMt3Qb8J46DN0BMu0mYqLQlsnN6cyczdsFVis/znWHxsxRoBLPz+3exsrDX61a9ExqY8+965jR97ESpef5UN2BAP0m//Axg16fYuMrZgDsU5jYW/tekKUEv4g9otKAgSseuijpM/75C+zrmWRBL/LHv+n10e/vrnxzlXrunbV5Ljf3VWs/ZIAAVNULmgSJ0CQcVRFU4Ng5GYwAQL2cMCeDFoadK0bevUfBAO3395F/JV81kUBjYpFqXBvsdIrixI6Pw9uP9u2j18CBVqlTRteWTCxXRRfRLQTKoDwnZv/MeEvr6xdLmJglWgjeoIIgOuciMXJ0BFJOiRk+auTdxuwz5/m7/bfAKhn6uLMxe+Ne3j5xtvXdzfsiqM8SnoSMM21+OGNuCgmggkQstka7QO3BUfCLo/Zjdz2LInbIyp+2xND1hbBjImQfc4geRmwzYJGDBjrFRmGT5sGSl2SVHHcKEvYFVRsfuwvM6WI4Fw/LGPyM16B3we23+2X5iN23ZXhpIlowv/sO/xdFn77WTZUAGHwtx+4/ZtU4hQ/B+xv25GGwV/+8htIOQEEVQLokDe++8VNcybyWTH4Plo477EPhz3x5tarPtoAx8gxCRs81+RnBwhEeYBdPcsBBMvo0BY0yaiXi4mQBQhEp21qCmzZHHFMBONAMIwXsUYBu5gi/N9qGrbbdRoobc1F3gw5o7rKT0bRgUYz7PYJIORpgmg0cEiwXwe3X+2yDpHIKkpAX/j8ry+cu8tprPX9Kh8agHDFQy81X/ZU12PdmfTefg3W/3YLAYKxZdXK57SYfNpvSrOMs0MngKDLEszZvdes6+ftdXeY5+jyZStbr1i85s4N0HAYyLVpj8AKEKygUqSeDTU5AwQTBJDnBCP8shVV0QIIREuhZgxDRaxNUNPQ0t4Xhu0yuUg0whLQyPFwox3OnOuHtj4igEDjUPnfSX5HpEM8lnzh5Kny4d+fFI7Qy6EBCOPPXbTHF2rjM11Iyfqi19pWaCyi2om14Ap9l1LPeltPQgBEi6zB1zceG5o1UI4lV728uv6yBz+5cqPU+G0VYoAqEOnPrykjMLrQBZASNMkOEHIeD7ghy+URP1lY4Zht7o42L4dsumcraqP5HEFcINVukFNpmHDQdEByMhz20mHJnmgaPfq5cFztLZwC6WfbnCThjCLEcLZBV7Z2yOtmPHv2lFd42xJZz885ZqJz8s+XzX579TcLZSvcKuC87LX21XasBecbTcDOKC5vSJIkwY6DG2549WczFlSLlCGE5EHfX3Lz5/VjTlNSW0CvMW1Cnvw4xEQwznsz2qn57yJ1v1uAgJvCURVxwiasNcD2BJoRVZEEaNMzAN3d0H/CeOgYPIyeTNZHIcqNkWG7drkOWMgupIOBmrLd+H1g+90+Cw9LlkUySNh+BikwtE9s9pPHDVokpF2PjYiaY49kAAw/7/4vPs0k+9sdF2jE0X73TJTwBpzCPYfQLYpz3KUWog97VRkK6SoLjNbjoOn1cmbmmhtPfJxzuBWphkHCmP994erPtPZzu8XGIq/IeOydlgYIhtaNhAK2x0cw/5ZgBevvHQFC7lnBMFg0WpNIHgYrF0MuaBKOrijpGZDUNDR1tMHQyVOYvRk8M9NKYmWNkZDMsOOJWHRF2xXmf3UFMyJscwhQ5Xl+BDeADTt1SQJZ16A9llr19/njhwnugqs5Bonjat9VpduWrRw6//p3P7HuBq4q1aSGAQuzPSqcW06Es5zbhSliL3PPAUPKGuviHxw2oeng278TbO4F93SWK4mkHX7x6s/e7Wq5VEUg2dMdi2m/Mq3kvWObt3rjfLROS9OGAP+dXWhIOmdr9zC0AQQAZJ8YbMDCWl8kaBIOmISDseGgSWY90hYGCCogNQXxuAxDd5oC9U3NgTDFtbYgiEXjs8OM2/2BlfF+tctKB1t5iYAvTHsC6fCj3ZsGnTSlz+dsbYgvHQqAMPni++7/z5aGo+O6DjoDRbX3BIEnOPKEEC/muRax9kAGBA1K99NrbzzxID/78rvtvX+37Lf/WZ88Z1NGrq/OTTGfQyUBggUSSNRE06WxECCYTVkhlO0AwerFcHnMZYyUNSNgkuHaaAZNsgACtkPAmR/VNIyatDPU9+nl63QW22BQNkIfAEIhDSLjFfgtn36379fk5+g2AIKFfYcku+9aMnfcSX7167ZdhuPYbZNs5RYv/7rpzD/8859pkLYzGCTO6h+3VvEBsrGjePxFar58AMHcfIgquF3UYvdCGWQkwaHbx0+/73sH3xYidnCRsufvX1/w77XJ32xV5SZD+1R9Em8fuCUTJCujBQwMHzDD88ACCHmVbGuCaAJMoG3GjMjGVygACEabpt2BnsklbzIBA87ZgD0bOjo6oP+kSSDj3kUEeI3iFXDJupOceG4oqAayBqaFHdo2eFNQsZQrEnrnh7vXT51TYW+Giu8m219yzzEfb6q/M61JSdFzVZ0AoTwXaukJwtj/6YBQNEBIyml9403HCk0mLlp2WdqbfdO/T3/wQ+XKLg36iATYLDSILItlwsAEpmzgg941QLCCJmFbFENbUBIgZNNB6ySCIumPpIA2giYRbYSWAUinYIcDDwaQTd8Jj7umFXqhLM/ECr1jV1FAI5FSS2mrJECw6uUSysi6DrIsd42Krzvxobk7PxIglUVdeRR176SP+v4zl6zekLrCe0vFLdQiQMgLZF6DUXOcAIPQvVKSYNIg+Y5Xf3HEqX7IXKXaPPyGdw9+4VP9hq1pNLRSNIjq1wIIua0z56bopEGw/10uJgLOYeEAEKwnvLyYCHaAgO9v2M0xAzLooGNDRjUFQ8buCK1D+xvAhXHXZH4+sKMaUUw128l7xmEdCJUWDM6ohbgKuLlIcDUcQCUDeNIexO0AQSYRUzua4hf9fc7g3wdAYskuGEVdPKkjL7zn00+3NgwS37K7FmnT5q6VcJSyjLOyrmA+LdYgR+tqY6A7LmRJjiENxdT0ThvumPVWkOMIoq8rlyyf/L9PbX4+HW9s1WUAicWgJwgCGfpw9GggmgXTo8F2EjmmgCbaASvmSM69mARBwp8dIGCDRmyDoKWzdbAng5UaGhsrNjTUwchp00AHhe5+HYbkSLaYCX5t8v/f3peASVGda39V1d3Ts8HMsA87yDYsiuAWBSX8BhfUuKH+5uJNFL3uydXEqNFMXGL89Rc1iQkatyRXDRoDKkYlBolGXMCIC8FdRJF9m4Xpperc55xT1VXdXTNVXV2nevvqeXwE+pyvznnP9tZ3vsXV2sxhzDOLipafR9N6rErs1l0OIdJldu2lwIBo16crzp0wWlQ73cgVNXfcvBvue23LgEsfeH2zRkK+2h64erleCAlCLmgFX9bVJuGSIFBZfWqkD/fvn5z919ZTvwy+N+LfeNaDH4x/+sPORzpjZCqJRMS/UNAbAiMIOlmgXgtACYJh45AiCNxYMSxLMHLadAjX1gGNoWH3uPZAsFb2VT1mcB9KiKjRG/+7X5u8q7WYx3wQLT+PpvVMCNLUJqaxYVqlHAgCracwg30C180e3e//jpO2i2q7k1y/5o7Te2x/P/jHf1z19s7+hwIx46d7EpRHpXIiCPr2YJKtCrmC6DaZTsa8oCFyVVV9WP3jaf+Zx5Qp+qqtK3Y13PrMe7u6wkWVGC4n3ApCEGhwJENDQYMmUTsEet1A7RASXTBkwiRoGDQYQMneNtPbm8O2KoogYLyCnOab98I21yp21wm5EASm3VJAllQYFYr/9Znzxx/nvX351cxhJuf3oszaty5dX3/d0x9vlGSldzrHNfyY/X2fV2nlRCDMTazyPCFkjWqpVDhw8L4L/3nzGb/1Oh9KpV7r05tq7nr1i7/vJXWH0ENPk0prJtu6PFq/1OgXfuoT2XKXloqJYHo88HgIethlVk9/mCqX/yZrCWA5FmjKZyP0Mk0NbRgtql3QNKAvDGyZArLE/dXZ43SPL4AAZM1BgfEKRH7Vi5QtbJ2y8baMf9aLTFuC3NpgdXOONvqRAAAgAElEQVQ057NMtN2XHRodfMH05s7c5PlTumAE4bBrnvzem9sb7w1r+xRVpg5ExmM/2ws1mUprW3U7KXSMGVN1W6c0ynU3T2iyJlWLwdVzJ1a1zptIdcll/wy75eVGpYu89YU6ZISWLMj+khfGKZdHa9Akdihn2CLYxkTgZbjBo0kQeHXDbTKdILB/11M+sz+rtB4NokS1CF3s/1NmfwuSllTThSAImXMc4xXkNc1cVU4nhD0dm7kTBC7bQhAs10IqkRJTGzvm/+nslsdcNdTnQoUhCIRI/S5ffnNbHK7mrttWUmB3YlnVOMGeaE4AOf3u83j5JM4SmS5TInc+9+k9wYvpjiBIIMGUfmTZG7eeNDf4VhX2jaNveP2lDfvqZ2hElel3dak8JkGwuC7mRBD0ejQyonVO0xgLqRgIRtRF6tqox0VIBU0yNQpAU0PH4zBi/wOgpn8/oCHhWcIsp6XilwbB8h49QkRqGJEg+Dmj6ZimD2ra35zGmzbFacztj7gULbCuUJnmCpHg5+9dPPonNGaqnz11I6sgu8VRrSuiH+/oXLstpox108j0MnxBF0qjkNnecnOl5LiW3xUEtQyeMap21AvXzfks9zlX2jVm3P1Wv44u9f63d9WewKzz9cdJO17oXqcIQiomgv511o03A2tvKlsj3aeNqIv0K4TvrWyLzSIIOilmholJHv+AaRCohoFGWqQJnJKMIERCEoyeMRPCoIBKCUIAezbGKwhwJhK557OFT6C8GpSLdxGdi73CybXjI5sOfei7s7ryerGHygUhCHNu/seglZ93bPKWstZ+gApFGMqNIPA5ZNHolImhY7+qxMZhdaGJ//x/J7V5WCdlUeWwO9c+vGZL6IykRlhQslIiCPwI18lrDwQh5fLIuIRud8DiIVjSrBsEgf5bypZA/zMlCDQPg+4GyYMlJYFmmdVobASiwpiDD4NQTQ3/4hNEENJsMHweKHF7pbg4CEEsQD7mDpfKHgmCFXPZ6R3WzhIJJJKAaYNhwB9O2W9rEDhY31EQgnDEtUsWv7Elero3uyk37C1YDYMTiE6/Bz3ozu9L02emFeebtPm7oP3RuYk5lqiJqnfs+NW3r5QKoKbLsanCin9v6fr69zeoP12zUbtCk9MPt6K9ejBCLjOGYNFuUU1B6nC3zEerdtG4LmP3mIYGwbxeY1FJMwkCNVKkVwzU7TEVWdESVTEZh0GjRkHvUSNBof7u+S5uPby8fgttjr2bbc7lTBFHCHgDRMt32c3cijHzK+vg6fZYjuPpPDB2Vz7pRreOL0mbB0SWYWrtjt89es7UBbl1Mv/SObQ0/5dRCacvXqws/1tVshOi6feC/ojXpaAnhK9wWoTxiW6ShFIgCLJEtCl9lEteu3Xub0ThUkpy5z36yVVPrd1zYxxCYaPdxDn8T8G6aBqIZRAEg6hatFy2QZPYtYNBECxXLAYJYKecEc6ZXiforo2pf6PGi9RGIcGSNzX17wf9Jk8CRZPp/XB+DwY0yg8/j7X5NmYzeLm4I3bzbqoh8Is0cTtyAtFkJ5x8eYvSKvnQwBwwy3d65/AqXvT/tC6Zv3JT3cMyxGg4iJzru6uQ7Qnh14C5e396qfLzhLBoEYr8CoIGtdE0reO201qaLztuzF4v41dudRatJuFfLX/7u+9u1xbJYc4RkCDoe4bG7Q0YIdAJAssCyWwTkvy6QVNh3IyZAKEQc3n0+nCVtlnfu6T0Foje60TL94pnT/Wy2qy7K2bV8Xj+er5CcOgs3V7pvKDX8VPqOk55/JyWv4jApzuZfs1J122uOnfJvUSpWcDch/LWz7l+bVpBa8IjbxL8rVU+BMJGc+MyyqG/iOrSiAwaUWF6Q9fbry48Y6qQd5SoUEKIdOnSTyfd++rud0ioDpJaHAiEQCYJIN7u/oQhYW6+lmyOaTER9BTOtAWpzExGOGVexzBsNkI1M1KUMtjUwzIz2wZ+nUBjIrDoisaVhWrRLKgdMH7awUB6NULI7Q6av21bj/iKOrRFyRU2WQzB7J6/J5uI3N0ROZM2rc4MGxfhfdFfIGnxe9ddOvaCoN7HllOQLzuuddnAtTsjy7fFOiZJWrUwAx+nPiFBcELI6+92cfLzNvr12hiQCaHpduCX/3HQ0AWzhpRlaGXP4OgVR1//+smbuuQ/xpSaGnr3rkohkKxGqvm+wIf6wgiCEQ/ByNvQI0Hg5IFeM5BkFyiKDC1HznKPFBIEH2ZCDiJYPoyeypceQagJSW9NaYwf8+C8MdtyQCKvooEShD4XPTNhnyq/z7R47M2F+nZOv4IoNEsuFAp5zRzbyjZBrgoajInAwFpp0+d3n1iwZGD+Y+yvRKpJmHzda+M3QdW6PckQaAVbkz33y7B9sbMxSEU+tNMgMKUCt0GgMqwaBFOLkK1B4G6ONAS8bvCsWrQLiRgjCmO/cRiEa+psG263p2C8An/nbqa0NMwdPQVyJwjmlRA/NoPetxVC1JiUmPzRxWP/LRZJU3qgBGHGTct/+cYX6iVBdc7re4jFqMmrDD/rlY8rZbaGwbqn+4kZkysBDO6lXPPxHcff4rfscpM3+toXv7FLbnpidzwyiEjUIoHqXopn5vHNWb+PpX827or1Qz/7QNajJTKCwOuyMpKezVG/jeDXDCZBSHno0K8Ya/ImmvaZeT1QLUISIB6DvkMHQ79x4yCkKWA4NIj62BAll5Gknj+1i3OqOxkCerQlsHY2l3gFQYBE1+OUhvgdj5895oog3sf20KBeRN/T+7+WJrq0KhoUv8if4tIwFM82ne+wdRM0XpChowSJ+Nje6vy1d8z7U74tr4T6029ZOXW72rD8y85IH5UdnPS/QLeIbmG2EgR2qLHYBvxhbok2h5yhbTAIAq9nJoaj5gopgsAZRCo3AwvnrMbMoEo0BDMzXNRdHpMJaGhqhEGTJoMsUWNrZkrm6zQRdXCLkutr53sQxueCU7wCbwkqRBkb+oINIVClxeLfvnRcdVDeDIGt/rPuXH7qk+ulJ9giK/on+8KwkIuqfAhCNxexPhMEapZGD4dIRPv4nnNmTPvOoX3Qe8Hlmptzx6v7vdte/9TmTmkC/WKhdhw+x+lx2ZL0Ysb6M20QLa6LlCCw0z/9gDaDJtHrAS4viyCkSIHh5qjPUUYQ4syTgR9IPLsjy/BI3SCTcaAZZEYdNB0iNXVCaJSoPUeUXE8Dm2MlPsSVSRDYrRdE4ISBbcffcdq4Z3OEzlPxwAjCoIsWL9ulNR1nZf58TZuL11MPClKJ3kt6Y6iimhv0fZiYflitzb2+QWOGdjTy3cj6xAvrF542x6ukSq130oOrJ6/bXrvo453kMFnTuA9AYDtF96in3zFbsjmyQEj64xgTwaJ5SK1hAoQlaUrXILC/s/gHxvWC/juNh0DJQyIBoyZOhKoBg0CmAOUZFET0wS1avoj1Qujdjd2T5xUCtQdhnxEldL2iEYWdO32UzudXXTThGBF4Z8oMZNlf9MAbQx9d2/F8Z1dsgl1kEeu6Ko0BKy4NAx3UciIItD9e5wQNKkJjH4RJHB668MjmU6f3+zqIhVRu77ho8da65R9tXvLRnvBsWaYukHSGBbJddAuldW8wPC1SX/d+EwQqz0j/rBMEdh3BSEOCx0RIJCCkhKFl5kye5ynHKwaRe51I2SLnela7BcUrMAiCyL74LZvyWXpdVl0VXn/CKHnOz45u/sLvdxSEIDRfvPTo3Vr0OU0jcrf5F1LawYx7PH+v9XzEM71htkZSPr7NSZTT1u30u5P84H634Go7J1K64u4PEpBgYKRj24bfnNk/uHaX35t+9OxHQ554a98vNuxVz9Zkmr6BaxMKNZe6JwjW3CGZmWEtKc2NqwJ9qEyPBqpBMEI3m1oEatvArxho+GUjPwNP4iQBJQhxFlmx5fCZIEWrXdkgiD64Rcv3fZYbkSQNcuV2v3fU1lgzbdrtKXQeF2omu0Mxmyzx4NAhUKEOYsesunTS8+4keS8VCEIzb155++sbu66QNAWIbFEHumh35t2jiypFUQRjLYgaBjMYk/0eQQ8xBVqGNl74r9YjfiuqFZUid9Gi1eHbtsp3fdIeupCnrKfJYwLZNrIg7pYg0JKGqpge6saTMjzQSQK9ztQjF/CrTWvYZf3PhgcTISDTmAe6DYLE/qwfNKmgSTGAZAwaBzbD4AkTXekPRB/gouX7Pu9FeSNYjBiDDmjkF0bdjaUEMoxrhNYlZw//mV/v6k5OICu970VLkm1qVJHoZKCJ1D085lr3Vt/DK/OsUlyeEOVxBUGHJDsVtXUhqbIGUSCxPkrXMZ//9qyX8hxErA4Ai1ZvqrlpyYbbN+2rulALRU0XwwKhww53y0HPmqEf3vYxEUwtAgt2lLJ9ylijTItguD1ygmDGQYinekuS3FCR2SYkuqC2vg6GT50GoGQ7aIk8sEXKFjm06bYk/nsj8GsnU26p7H3ux1OCWtjXueaSCbUix4nKFk4Q/uuhtac++NrXTwh7lZ7tzVHjJBpJR/kGseH/dz8ZHAX7UqBUFpF9Z03SSFOj1ig1r196TP9jWk+eutsXcFAILCZEufKnq370daz25wlZBpkZj1EPB+FbSBb6pmGzHkqXGqzZEQSjZirBGOU2hiEs3f1sYiJYCAIjo6w4jYkQ019BAJK0nh4TIZkERUvCsKlToLp3X3ZHLOoTptj2DFfLQpSGIDW29F4++Dnoqu8uCnkdU+q3c/aE0JGts4f9w8VrPBcRjmzzxY+/v0Pt1eK5hS4qmhuGi8IFLWIaN3qdGKKaXzaulCpA32jHE1/eM+90UVhVqlwadXHkda8s3ExqL4+rUT1KQvDePNb1ztaRU9CkLILQU9CkbHdHIyZCas0mqWbBCJqkgpSMw7Dx46BX8zDQkqowj49i2zMc1wFjSg6ZDfP0RmDBsyqOIFBirECT9vW6VZcdMgkEprAXShDOWfTi6D+/q65MJInwULderd4dJ7mvBbqJA1AEGoVyIQgKEDj9oLqDHzr/qDd9HToUlkJgzI2rLt3cVXd7RxIihdUg8CY5BU3iyZp0l2qLG6Rz0CTDLoGAlOxKaf1oNkeN0OyONC10EiCZgOpoNYw4+BAWG8Hf86qnhEPFOylTZEZwQCPmrOgv4EJB9YPkGaEgIpKy8fjBO2b+4uSpn4tqtFCCMGzB0gU7pap7E7LQ1zhiUzoaBtoVi+FUkfnoFus1BA3oo0ASEhCBRujct+2+U2ocJwUWyAuBw+98/Zo1W+p/EiOkWj9+xd9XWlqcfo9tMUw0YiIwLs5bZiUIKRHdeDSw+CZ6mmduj2BmheTujfR3Sgx43ARm80A1CokumDzzCEgq0bw+6Pw4QPIaWI+V7eMV5J7vIPP1pRivwOiDyLEMqSqooEB/aff5Ky+bep/HYXOsJvTkHvGjF+7atIdcVoBryuyOWzYMR1QKWsBeZStysrntbrESBOOAos7oh46I/vfK645e6LZPWM47AkcvfP2sNXvq/v+efeogjS1yodtJWkMDJQiMt2t6/AMbgkCTOiXj0DRoEAwaOwFoLgu3TzGsa7dttZbLaretpsA7QTDkyzT+hns4vXTF9zqix5ROL0pMk6BAc7V650sLRv/A907oAoWu6D4XLCHtpBeAbMY/F9URJ7ml4wXR/Z2u6InnhGGxEgS6g9AshGEtTqLxvRN3/GF+YNnOnDAr99//85HPjvmfd9uXaJpapUnBpVkpJoIA9JpBS0AkXAVjDj0MNCQI+rT3SBAsQadYhMoAiacf61X8Pk2AhgwIaQmolrrgjcsnCTvHhQm+7KGXp/12VddqGlAEpCI+Wixq/BzWtR/zyKMMvILIBI4iIhMN6qrll+eOip/40A9ORu8Fj7PLS7X5f1o/65kP9v26vU2ZkKAcgdDkRWI/+6ybMHV5TCcMRuIlfa1YF7Zhg6C7Shr1jJgI3EXOCMalX12wmAhx9g52XWnERKDFaG4GmgtCjUFYU2HolCkQbezTI4ziDxAvo+hQR5Q3QsnHKxBrI6I42ABrmgrnTAlP+vE3h78vYNTFUbP9r3j8kw87+4zSqC+xMBriIyTWVLI+ivVfFGoYMjFljmVEgl5k9++23X/2Av8xR4lOCFy4dOOUB17d9EJcqhnAHSCDWfTswLYjCLQF+oGeFrfbmquB2hJY3CPTVOh6mGX2bxaCQP9qEARCZRnJm0gcQrEEDBwzFnoNGZIGV0kSgkzDaQHGhpyMlVa8gqDH0pEgEAJjI+2rll445RtOa9TL78JWcfS8JW2aUlsnM19psV8TXjpuV4elf8388im6pnffIHPyFqbRTpPJ6Xev40gvGIgUgVNGarMeu/pYDI7kFcg86y38164R1z7y6aMxOXwokXliGdFfB5wg8C97/lhCJRsEgZ3q+u9pBMHQPKRHVWRSMggCzb1gJHNKJwi6NwMkQY4noN+QodBn9OgSJAg0TGb6vpH2N6ctxc0ebyfD4oEgan/Ic1oLHUsn2JziCmqSDOFkrP2dH4yt97OfhiwhY/Lwv/f2ueDuVV8QAiVvTZ6mynRaJCJGKGeZxRtrQdxFE4Fosh2+P/wMpbU1X8fqnAHHChYE5ixcN+i1TZuf3RseeICZHVEcRIaHUmqdpoImWTQI6aqB1N9o0CRej6oPjesETmkyCUKKeLA00DRoEtUeUMNFI2gSD6BUXROBEQceJK7DIiTr9/w9fh3nuayYK2JJ7J/2AIvSHDhpCJyGm81eCTp/PnfE4JNHSr5frQohCLN+8cycVRvCTxMCYacOltLvTMNQZK6H2fgVb6wFcQRBgm/tJ1//1FXH3FhK86lc27riMxI95Z4Vq9pD/Q9ICj4UDIJgYJmKiWC4IGasV/uYCFRvqEdVNK4a6eFvuBwzVbiZzElKcoJArzBoLAQWE4GSDZX+PwHjZxxZMkPL1fwuDAE9EgTzCoenVy6FJ8g9Pl+CQOdoUg7HjmjYMvv+7xz0T7/xFTJiB97wt/Pf/xruITRrTrqCJj2Wvt+9CUJe1oZnXko4qYuCaB5/h9OubAaOCa5N/E1OE87p9/TpREurEJFUGDO6tmHNj4/eE3R/8H32CEy+5eXGXe3KE1+qvb/JAgpJSioegd+Y2Xs0GIe6JZFTZkwEI+IMIxFWDQK/pkglXEsjCHQLo14L9GqBllOB0ARRGicLoMZh/BEz/O6ib/JIZlAhg0A5Lrye95TughWlCILjyvetizkLEkUImDuiQ2vyPTPo6UMkWZ1U03He4+dOfCjnzju1z2+BVN7kq5f87MPddddrWRGuzIXogrOKaJrvMkvvCoJCUJyeEDnPCUIgKSkwondo1ZhhiVl/vey4mO8DjALzQmD/m19d835n4wGqptGYu3nJ6q5yjwSB8WVLsiZLVEXOpXWNmyUoUkrLwDJDWjwiUhkjqTbBCJqk8aBJlCDQdZWkBOFwIf30Q6iogEayk5eDH40XJEMUQaD2A/kSAKcu05QoCtFgbHX7z55csH+rU/lcf3ciOLnKY+VHf3/xtRu7+tyYTaDKjyBYAcJYC56mS6pS7gRBA1mqghpt50+333/mDfm9HWuLQKCl9f2IFIk9+EFb1Vlq1uerP29MI+kpjwZdg+AnQTCay6Io2hEEHnp5wuFCDMo9gZV1+PkY0MgqmxKEUnpEkQIrBkERBJkQbYS854pll0y90+8xEEIQDrr++Qvf2UZ+pREjAEIuAVTMDGulNeW6H5rUZHShcvJ7gL3JK04NA+2LdU7Q80YD6DptPDnx0SuPX+6tr1grCATO+vWbf3h8U9136Bd2Ugr5et1gTxD0XmVeD2TGREiFY9Y9GnSvCMYrmB2CIYeHVmZzUIuDpqeGZtcn1ndoGkw4tFBGitQQUOrZTsqjLYHVHZFdrZTYI5oQ5G9L4A1QfsUQVidXbz5/8XkHPeBNSve1hBCEOTctO+mlr8KPa4ToRopIEOgQMLBLYm2VAkHgauOoFN+1696T+0qS153P7yWF8rpD4JA73rn+7e1wVSwp1Ug+5mfJiyCwNWmJpWAlCKmASdzWIJMgMHpKgyRZCAJd4+MPnhbwJDACO3EdXI/nt5dlwsTrR0XJfOSkb7aiOU2hCALbqaVwYma/bacvOnPqUr8nnhCCcOuKL4dct3jdh4SQat7gyiYI5leI7kIlerbmPUtKIRgTtVdX4IRRcMuTVx97Td5dRgHCETh/0epwe3XT/D+t6/gdTbDl52Maw2VHVeRfvLpLo11URRZUKVuDwNpnxFLIIAgGKTA0CMxQkRCojkZhxJSJfnbNUZZJkLgGoccnR4Jgaj+57i7na0DH1ospIFpjkNnqghEElgMl3Hnl4ZEx5x7Yb5PfaPq7Si2ti57/XFsyJNeBRq2X/Xx0w6EMdbOfbwhaVukZOhY+1gJbFloS2u8/yd/pFfTgV+D7Zv96zdn/3CDdHVNCTa5c7FxgZLrTGYWp8pW7JqYRBKsswzCRRUc0CITp3si4hA1BYKorPZCSpCVTGgRZ06Cxf1/oP2KoixZ7KKLf83d/+OVvFSdRq7cSfUSRAjoPnAIWFQoyFTSIEK39ncvHlE6gJArW6EsWf/V5oqlZklSQctIgOEFdfgTB2mOMteA0/vx3qhQe2Vt79cPb5xavybi7rlRcqdYVK0J/Xz9o5pufdLzYRRM8KRne0B4Q6ZYgsCCKnChkHiDWCIyUIPB5RfcXrkFLIwg62eCF9JgILA9DwiQIhEDzsKFQP6DnXAweuqe/w8kqyztBMLApJWNDUYQgc3yKmSBQhVFz/Iv1f7viyAle5pVTHWF08b//553j7nl567Ik+E0Q6OLVjYW67V1JXPTbtr70CYL5Bec0+fL7XYOaaOLc3b88xXfDnPzahbXdInDE3e/tv3pTbHmMRPqBDznh6YGR8iRie4R+VUY0My+DpXH2BIHW4TERuCwCLOeCHUEgKkgq1SBQwqCBIkkweORwqG3q7RYC1+X4lYaL7dqLX11a9kQnEuK6ycIL+kUQHFEtQg2CccJphMDZB9TMvu7IgX8XAbgjNvm8tOmi5+Jtajjs8x2DQ5PKz5Wy9K4g6BBl3AXnM5EsdakGlKqMw2Fp18HN6okv/eTEV3wSjWKCR0Aa2frmQbs6k6+3SbVA48rn+5hrxermaH5U0HgFxpOew8GIl2CWNTI8MppAgyOljBaNqIo8myOQJMiaCqFoBEaNHwuS4kM/7FT9OdoP2GGJ8QqyUZE154BG+c5LP+szuqpbvNdISVhz8RhZkrwwQ+dWCSUIY67526INe5XzSdIhZ6VzO3MoUX4Ewdr5Uo614A/jJ0ATAfXS9q7Zcd8Z03OYGFi0SBGYctva2s1t0ifb4vKAfJtoJQgpAsBsDXRi4ANBMOXybI4GQejV1ACDRgzzdNq4ilfgkSBgvIKeZ1WpEQR2ESbJIBMVhtcmf/nXc8ddlu+66a6+UILQctWykz7rCD+qJqVq2ikN/PV/7h4Uk5DYd9Dpd1Fw+yS3TMI9eyEMmkStDySYPZjMe+6ncx/3CVEUU2AEDrzh5Wk7pF5PbWwPNROZRibUv8Jz3KFsCQKLhsj0ANy4MKVCsPy7bpCYng3S4u7LoirqMpi6n/8nMYKQAOplO3ZSC0ghN/YUPHFRWubYzDVt228XV6dp2RF1uwpLtWLPh+BlT8hl6toZG4r59s6lVbmVNTQI4bDSMSy054xl501elpsE96VzXH7uBbOlRIhU/d0/vxePNrbQtM88hGn+6rfcWmFXGoMx5Y9hvhK8XUFIIMN+dW0b3184b1i+LcD6RYZAa6s8vuqEdR/tjo6zHp5urt6NntgTBONs17/4rQTB+DPVLOjukIaGIP2KITtoEkvWROMgQBL6Dx4ADX0aQZZd7G/Csieabo6lGMxIPzOETspCuSP62SlKaBJKEiJtbevevfpAoT61QgkCBeW8+9bMWLxm8z/2QRU3FPLhnjF/sMuPIKQwMbLRlWisBacviKoQad+vb2Tuv2781sr85wFKKDYETvzdmv0+3RX5/brt0mGpQz/HXYrPIf5Bkjaf9AyPqYPILiYCNWjU61kJQqqOnqDJcJ+kBCEckWHo6GEQror0CKcZU8BFNIEcrxO4bAtBcJEYrRjG3mm9+93GciAI1DBRllQ4duS+b9x+wpRVfmNklZfj0vPWlPHXrbjy061wG5Hp4nMIBertFTnWclLVufGUyPGVBS5eeoaO/IuNtlsmzKMdQrIE1WTbC6dOnzT33gumJwoMKb5eEALnLn61ae1XDfev2ZL8NgEZZN0bgR75bi74M10e+ezRrwT02AfpB5OhPdCjKhqBCVkKaP6XlHeRQRDYv3KPh/4D+0Kfvk0mGpa8BLYHIPefzAs9jFeQDV8QuQ/yGrQ8K7PIHhLdDwH6VamXr7xg7N15inSsHghB+I87Xx724sZ9T+3pDO+fyGT1jk0sRIHyi7VQegTBjH5HtU70iqp3VPrg9uOnTps/Z2BHIWYFvjM4BL67+KN+r3yeuOvjHR1nSVIVJ4vCCIIe24AzUourpDNBqKuvgSHDBqV7aSJB6HGiiNIalDtBoJwyEZKhSel867Cm2IkL5x3wlegVGQhBoJ2YdsUj4z/pavh3pxbN6pOoCeMdvPIjCFYsSi3WAk1nWlej7DhkZPWxT3//qDe9jyvWLCUErlr+Se+n3tp7yfrtcJOkKPkTBBYxkRsbdhs0yQ1B0GMi1NREYdDgARCJKKm8vjxegYMdgkcNQql6IwS1v5c7QVClJFRLGvQLt0144YLp64NYy4ERBNqZQ65+tuXdndo/4nK0D1cW2i+koCaUd4DLz5Wy+DQM+j0yYYH24i31se+/edvJv/E+ZlizFBGgURcXvVh1wzat+mqNhPVQBHT3cFbRm3f+FjdHmlPBeBxdHs2y6QaLCQhHFBgyZBBU2dkd5Gg/YDcuGK8gG5VysB/IdQ3SzKcySXID/2Rsx7hmctRfztM+KvUAAAgsSURBVGx5L1c5XssHShCoV8P4q5+etaVdeXGfVt1z1jFLj4qPMJQfQSg6DQORQJIS0LtaaRseaT/3jdtOR5dGr6u8xOstWk3CNy1duWBHrPbXXaEo0GBH1DbB6TH3DZ4ain/d50kQCIFolaxrDvRktZkN8UgQUrYT1FIrF9cNJyAC+D2IPboSCQJL5yyHoEbdA401MGv5eZNWigqKZDdNAiUIRgMOv/WV+k82t3+0qys8gN8rOj9BTEDnVhglKoAgcD2se0h8Lklj49eEpK/nTo6e/fuLj1rhs3gUV4IIHHHXq5e/vbXhln3JRLVGczg4aBHMA9e0Z8mXIERCCgwdPhBCIRbS0/46IU+CQIemlHIi8K1C/F5RKQRB90dhK5RqrmoV7avevTrHvTB//8Btr9ydzgI2k+MXrprwyY7YhV9s67w0IfNozJQ1u3WDDGJC5tftMnOlTAWSyQ8VW5aqB7ExPpqqFFmtJh2P/fCE8ddeeXzLBv/fiBJLFYHTH/zw6Jc/a7tieyw8R4UQyKCC1k0eB1uCkOL43cREYFoGw1hRt1cAAiGJQENDPTQ29QZFMbZNj8mR9DgI/AAQf7CKGGuR+28xJ0cSgSWXaXq20PlMNQeKFod+vSJ3DquG3/z+zNEfint395ILRhB01ikdt3DVzNfWb32yK9TYJBEZkuDNe03khPU2MGVGEFLJa0w0/MJco+piSQGFJKAB9sJZcw87auFb978Mra1Bxuj2NsxYK3AETl+8WInEp13657c2L0xWNYDawyFL5ygP0GYfEyE1h80Y5qZiQqVB+nmcg2GDmyEUAuAh770TBH7NYbprOl+UBA6v7Qv9WutuelPJBEHTNEiEe0Of+Nc7JgwMnfzgmS2vBHmlkDk+BSUIRmNWrybhS5Yu++Hn7ZFvtnfGZ8flau5qxCKSGgy756ZyX2fLU3Bm7hTO2b4/RihUPUiq3iHrV0bhhiwzJGnatw/biG31A5Z/tI6RwjLgyRJAlRyHhtqa5eF9O1fOOmrUr+6dN32Pm40Ey1Q2AvMffnvw8x91XkyiTcfubes8IC5RDyktLYQxzbTI5yUlCJYvNfbxb0ZPZHuNpjtSsgoa1FVHoLa+GurroywaA4t7kHatoEclyxgG6zqwPVhZO3ipwq1mN3PHXOF+bqd24Y6zDiYfFSt2ea/c9N7PMlabEnPMJdAklWvOCUCYdEFVJPrc4FDHs39ZMOkeSZIsBjN+tsa9rKKan9+7f339inc+aB7Qp/HUDZs237wHaoFeP9AcDjRYDpFU9n/bRme4FgXJeN3DbZakXzX8yyb9SU1mIlnuIS3lPN5vemmj2zp83+UBPIzHXJTmaKkSj1MvEw1CsgZN6o6uKfsfcPv6Tz/8w1ETW75+4NzxbW7fieUQAQOBEx7Z1PerrTuaQ0S64vMtO+bvJA2QlGpAInFmlMh9HvR5qBspsv1Bd4Zga5Hw0N/UxqBv394QiYQgEqYeNArQrzrNcd1RAqEf+pZ1UOz7UOYsUixtT7rwFHE7CymvMnYCU3/itnae5fxkNx6bYmixaHWekZZ/ClKtaa/kdhjQPOzandt3PtkyQPnynnkT2z2+xvdqRUUQMnu3eCupe+yxNUd+8fWWb+7cvWVsPBmBBFH0VJcZpQk1Wurp8ZGS+jAMPDocYZsPO1/1GO4hw0+bTiRD/6jRvvG/aDLf8Oweq/KTyUxXhqbVyyxrlZe3HP1Di8tMANE0UGQJapU4DG9u2NO//9DHf3jKIcunN0udPkCJIhCBFALUU+olgN6LHn5v/pdbdxz9+ZYOSLD1Qw96Aposp9ZBXNNAliWIRquhV20V1NXXgyRLoKpxdrWQrrdzuu3S9x/qlmsZD9WaHIq2wk2uhoDH09pP69e2my99N02le5xJn5xMS91IdF9GkmWQ1X3uKwgqya+m6HyToQZi0LdX/fqmQSOWHX9MwxsnSMW7DxY1QRA0VigWEUAEEAFEABFABBwQQIKAUwQRQAQQAUQAEUAEshBAgoCTAhFABBABRAARQASQIOAcQAQQAUQAEUAEEAFnBFCD4IwRlkAEEAFEABFABCoOASQIFTfk2GFEABFABBABRMAZASQIzhhhCUQAEUAEEAFEoOIQQIJQcUOOHUYEEAFEABFABJwRQILgjBGWQAQQAUQAEUAEKg4BJAgVN+TYYUQAEUAEEAFEwBkBJAjOGGEJRAARQAQQAUSg4hBAglBxQ44dRgQQAUQAEUAEnBFAguCMEZZABBABRAARQAQqDgEkCBU35NhhRAARQAQQAUTAGQEkCM4YYQlEABFABBABRKDiEECCUHFDjh1GBBABRAARQAScEUCC4IwRlkAEEAFEABFABCoOASQIFTfk2GFEABFABBABRMAZASQIzhhhCUQAEUAEEAFEoOIQQIJQcUOOHUYEEAFEABFABJwRQILgjBGWQAQQAUQAEUAEKg4BJAgVN+TYYUQAEUAEEAFEwBkBJAjOGGEJRAARQAQQAUSg4hBAglBxQ44dRgQQAUQAEUAEnBFAguCMEZZABBABRAARQAQqDgEkCBU35NhhRAARQAQQAUTAGQEkCM4YYQlEABFABBABRKDiEECCUHFDjh1GBBABRAARQAScEUCC4IwRlkAEEAFEABFABCoOASQIFTfk2GFEABFABBABRMAZASQIzhhhCUQAEUAEEAFEoOIQQIJQcUOOHUYEEAFEABFABJwRQILgjBGWQAQQAUQAEUAEKg4BJAgVN+TYYUQAEUAEEAFEwBkBJAjOGGEJRAARQAQQAUSg4hD4X9qfiLW3BuPCAAAAAElFTkSuQmCC;labelPosition=right;verticalLabelPosition=middle;align=left;verticalAlign=middle;" parent="1" vertex="1">
                    <mxGeometry x="337" y="146" width="30" height="30" as="geometry"/>
                </mxCell>
                <mxCell id="7SvAUBnzf-wJFJzy4QXz-1" value="" style="aspect=fixed;html=1;points=[];align=center;image;fontSize=12;image=img/lib/azure2/networking/Public_IP_Addresses.svg;" parent="1" vertex="1">
                    <mxGeometry x="424" y="310.8" width="29" height="23.2" as="geometry"/>
                </mxCell>
                <mxCell id="7SvAUBnzf-wJFJzy4QXz-2" value="" style="aspect=fixed;html=1;points=[];align=center;image;fontSize=12;image=img/lib/azure2/networking/Public_IP_Addresses.svg;" parent="1" vertex="1">
                    <mxGeometry x="545" y="310.8" width="29" height="23.2" as="geometry"/>
                </mxCell>
            </root>
        </mxGraphModel>
    </diagram>
</mxfile>